<?xml version="1.0" encoding="UTF-8"?>
<svg xmlns="http://www.w3.org/2000/svg" xmlns:xlink="http://www.w3.org/1999/xlink" width="54px" height="45px" viewBox="0 0 54 45" version="1.1">
  <title>chef</title>
  <g id="Page-1" stroke="none" stroke-width="1" fill="none" fill-rule="evenodd">
    <path d="M40.336,1 C35.485,1 30.764,2.1212 26.303,4.334 L25.689,4.6388 L25.095,4.2909 C21.372,2.1064 17.364,1 13.184,1 C6.466,1 1,7.1312 1,14.6662 C1,21.1706 4.36,26.8066 8.988,28.0677 L10.053,28.3576 L10.053,42.583 C10.053,43.1124 10.45,43.56 10.922,43.56 L42.599,43.56 C43.071,43.56 43.47,43.1124 43.47,42.583 L43.47,26.817 L44.308,26.4096 C49.373,23.941 52.52,19.4411 52.52,14.6662 C52.52,7.1312 47.054,1 40.336,1 Z M46.131,23.1053 C43.307,25.2169 39.642,26.3798 35.811,26.3798 L21.364,26.3798 L21.364,28.3324 L35.811,28.3324 C37.206,28.3324 38.639,28.1732 40.071,27.8624 L41.728,27.5026 L41.728,41.606 L11.792,41.606 L11.792,26.8259 L9.399,26.1702 C7.503,25.6541 5.782,24.1626 4.556,21.9736 C3.387,19.8843 2.741,17.2894 2.741,14.6662 C2.741,8.2078 7.426,2.9525 13.184,2.9525 C15.873,2.9525 18.554,3.473 21.153,4.4976 L23.826,5.5534 L21.449,7.2814 C19.738,8.526 18.155,9.8927 16.729,11.3589 L17.96,12.7389 C24.078,6.4159 31.971,2.9525 40.336,2.9525 C46.094,2.9525 50.779,8.2078 50.779,14.6662 C50.779,17.8202 49.085,20.8955 46.131,23.1053 Z" id="chef" stroke="#181818" fill="#181818" fill-rule="nonzero"></path>
  </g>
</svg>
