<?xml version="1.0" encoding="UTF-8"?>
<svg xmlns="http://www.w3.org/2000/svg" xmlns:xlink="http://www.w3.org/1999/xlink" width="50px" height="56px" viewBox="0 0 50 56" version="1.1">
  <title>hiking</title>
  <g id="Page-1" stroke="none" stroke-width="1" fill="none" fill-rule="evenodd" stroke-linecap="round">
    <g id="hiking" transform="translate(2.000000, 1.000000)" stroke="#181818">
      <line x1="0" y1="52.568" x2="45.619" y2="42.8" id="Path" stroke-width="3"></line>
      <path d="M28.986,43.92 C29.053,44.189 29.277,44.368 29.389,44.435 L29.77,44.682 C29.994,44.637 30.195,44.614 30.419,44.592 L30.688,44.166 C30.778,44.032 30.867,43.808 30.8,43.539 L27.799,31.488 C27.754,31.264 27.597,31.085 27.373,30.95 L17.629,25.238 L16.666,21.318 L26.275,15.181 C26.499,15.024 26.634,14.845 26.679,14.621 C26.723,14.397 26.656,14.195 26.544,14.016 C26.253,13.59 25.648,13.501 25.2,13.77 L16.218,19.504 L14.807,13.926 C14.717,13.523 14.336,13.254 13.911,13.254 C13.821,13.254 13.754,13.254 13.664,13.277 C13.418,13.344 13.216,13.478 13.082,13.702 C12.97,13.882 12.925,14.106 12.992,14.307 L15.882,25.955 C15.949,26.179 16.083,26.358 16.307,26.493 L26.051,32.205 L28.963,43.92 L28.986,43.92 Z" id="Path" fill="#181818" fill-rule="nonzero"></path>
      <path d="M8.915,28.464 L11.559,27.859 C11.693,27.814 11.805,27.77 11.895,27.702 C12.186,27.501 12.343,27.142 12.253,26.829 L8.938,13.546 C8.826,13.075 8.288,12.784 7.795,12.896 L0.717,14.509 C0.471,14.576 0.247,14.71 0.135,14.912 C-5.40121333e-14,15.114 -0.022,15.338 0.023,15.539 L3.338,28.822 C3.405,29.046 3.539,29.226 3.741,29.36 C3.965,29.472 4.234,29.517 4.48,29.472 L7.079,28.867 L10.17,41.232 C10.595,42.934 10.304,44.682 9.363,46.16 C8.4,47.638 6.922,48.669 5.175,49.072 C4.906,49.117 4.704,49.274 4.57,49.475 C4.458,49.677 4.435,49.878 4.48,50.102 L4.749,50.73 C4.749,50.73 4.906,50.752 4.973,50.774 L5.018,50.774 C5.197,50.774 5.354,50.774 5.533,50.774 C5.645,50.774 5.735,50.752 5.847,50.73 L5.914,50.73 C6.115,50.685 6.339,50.662 6.541,50.618 C6.787,50.573 7.011,50.506 7.258,50.461 L7.325,50.461 C7.437,50.394 7.571,50.349 7.683,50.304 L7.795,50.259 L7.84,50.259 C7.84,50.259 7.975,50.17 8.042,50.147 L9.722,48.534 C10.259,48.019 10.685,47.526 10.999,47.034 C12.186,45.174 12.567,42.979 12.029,40.851 L8.938,28.464 L8.915,28.464 Z M4.951,27.59 L2.061,15.987 L7.303,14.778 L10.215,26.381 L4.951,27.59 Z" id="Shape" fill="#181818" fill-rule="nonzero"></path>
      <path d="M43.098,33.84 C43.187,34.288 42.896,34.736 42.448,34.826 L35.728,36.192 C35.258,36.259 34.832,35.968 34.72,35.52 C34.631,35.072 34.944,34.624 35.392,34.534 L42.112,33.19 C42.112,33.19 42.224,33.168 42.269,33.168 C42.672,33.168 43.008,33.437 43.098,33.84 Z" id="Path" fill="#181818" fill-rule="nonzero"></path>
      <path d="M18.15,3.851 C17.591,1.563 15.551,0 13.273,0 C12.887,0 12.5,0.045 12.113,0.159 C11.469,0.295 10.867,0.589 10.33,0.974 C8.698,2.152 7.946,4.191 8.418,6.162 C8.719,7.454 9.514,8.541 10.653,9.243 C11.791,9.968 13.145,10.172 14.455,9.855 C15.099,9.697 15.679,9.425 16.216,9.04 C17.849,7.862 18.601,5.822 18.15,3.851 Z M15.142,7.658 C14.799,7.907 14.412,8.065 14.004,8.179 C13.768,8.224 13.51,8.269 13.273,8.269 C12.693,8.269 12.135,8.088 11.619,7.794 C10.889,7.34 10.373,6.615 10.18,5.777 C9.879,4.463 10.352,3.126 11.426,2.356 C11.77,2.107 12.135,1.948 12.543,1.835 C14.24,1.427 15.959,2.515 16.388,4.237 C16.689,5.528 16.195,6.865 15.142,7.658 Z" id="Shape" fill="#181818" fill-rule="nonzero"></path>
    </g>
  </g>
</svg>
