<?xml version="1.0" encoding="UTF-8"?>
<svg xmlns="http://www.w3.org/2000/svg" xmlns:xlink="http://www.w3.org/1999/xlink" width="51px" height="54px" viewBox="0 0 51 54" version="1.1">
  <title>surfing</title>
  <g id="Page-1" stroke="none" stroke-width="1" fill="none" fill-rule="evenodd" stroke-linecap="round">
    <g id="surfing" transform="translate(1.000000, 1.000000)" fill="#181818" fill-rule="nonzero" stroke="#181818" stroke-width="1.3">
      <path d="M38.113046,3.16825 C35.065046,3.16825 32.589046,5.72225 32.589046,8.83825 C32.589046,11.95325 35.065046,14.50725 38.113046,14.50725 C41.162046,14.50725 43.661046,11.97725 43.661046,8.83825 C43.661046,5.69825 41.162046,3.16825 38.113046,3.16825 Z M38.113046,13.14825 C35.798046,13.14825 33.919046,11.20425 33.919046,8.83825 C33.919046,6.47225 35.798046,4.55125 38.113046,4.55125 C40.429046,4.55125 42.308046,6.47225 42.308046,8.83825 C42.308046,11.20425 40.429046,13.14825 38.113046,13.14825 Z" id="Shape"></path>
      <path d="M48.728046,50.18525 L31.376046,46.50725 L33.187046,35.23925 C33.233046,34.98125 33.118046,34.72325 32.912046,34.58325 L26.058046,29.42925 L36.969046,20.36325 L48.270046,27.29725 C48.591046,27.50825 49.003046,27.39125 49.187046,27.06325 C49.370046,26.75925 49.278046,26.33725 48.958046,26.12625 L22.436046,9.84525 L18.471046,0.42825 C18.402046,0.24025 18.264046,0.12325 18.104046,0.05325 C17.921046,-0.01775 17.760046,-0.01775 17.577046,0.05325 C17.256046,0.21725 17.095046,0.61525 17.233046,0.96625 L21.290046,10.59425 C21.290046,10.59425 21.451046,10.82925 21.565046,10.89925 L29.657046,15.86525 L20.488046,26.00925 C20.373046,26.14925 20.305046,26.31325 20.305046,26.50125 L20.740046,36.71525 L9.78304602,41.86825 L9.34804602,41.82225 L0.798046023,40.01825 C0.637046023,39.97125 0.454046023,40.01825 0.316046023,40.11125 C0.156046023,40.20525 0.0640460229,40.36925 0.0180460229,40.55725 C-0.0279539771,40.72125 0.0180460229,40.90825 0.110046023,41.07225 C0.202046023,41.21225 0.362046023,41.33025 0.545046023,41.35325 L5.03804602,42.31425 L3.80004602,48.33425 C3.73204602,48.70925 3.96104602,49.06025 4.32804602,49.13125 C7.67404602,49.85725 11.136046,48.02925 12.511046,44.84425 L12.901046,43.97725 L48.453046,51.52025 C48.866046,51.52025 49.187046,51.30925 49.256046,51.00525 C49.324046,50.63025 49.095046,50.25525 48.728046,50.18525 Z M30.826046,16.59225 L35.731046,19.61425 L24.935046,28.58625 L21.978046,26.38425 L30.826046,16.59225 Z M10.815046,45.19525 C9.92104602,46.57725 8.47704602,47.53825 6.87204602,47.84225 L5.22204602,48.14725 L6.34504602,42.59525 L11.754046,43.74325 L10.815046,45.19525 Z M11.915046,42.38425 L21.703046,37.76925 C21.955046,37.65225 22.115046,37.39425 22.092046,37.11325 L21.703046,27.86025 L31.789046,35.42625 L30.069046,46.22625 L11.915046,42.38425 Z" id="Shape"></path>
    </g>
  </g>
</svg>
