<?xml version="1.0" encoding="UTF-8"?>
<svg xmlns="http://www.w3.org/2000/svg" xmlns:xlink="http://www.w3.org/1999/xlink" width="29px" height="43px" viewBox="0 0 29 43" version="1.1">
  <title>wine</title>
  <g id="Page-1" stroke="none" stroke-width="1" fill="none" fill-rule="evenodd">
    <g id="wine" fill="#000000" fill-rule="nonzero">
      <path d="M19.7044786,17.9170949 C21.6040919,17.9210343 23.4610743,17.3343176 25.0348409,16.232958 L25.0348409,16.232958 C28.2562539,13.8463515 29.7054747,9.63836742 28.6691788,5.68022795 L28.3230514,4.24691996 L27.4577328,0.663649997 C27.3564805,0.274331846 27.0164766,0.0030080591 26.627027,0.000360914665 L2.39810758,0.000360914665 C1.99080458,-0.0115398515 1.6304104,0.272013567 1.53278903,0.681566347 L0.667470483,4.26483631 L0.321343062,5.6981443 C-0.699706829,9.6583272 0.763067232,13.8584524 3.99029372,16.232958 C5.5640603,17.3343176 7.42104267,17.9210343 9.32065599,17.9170949 C10.7504352,17.9268653 11.9071738,19.1243743 11.9166116,20.6045473 L11.9166116,37.0875892 L11.8127734,37.0875892 L3.74800452,41.2979314 C3.38437575,41.480243 3.1910118,41.898794 3.28216394,42.3062787 C3.37331608,42.7137634 3.72471999,43.0017111 4.12874469,42.9999923 L24.8963899,42.9999923 C25.3004146,43.0017111 25.6518185,42.7137634 25.7429706,42.3062787 C25.8341228,41.898794 25.6407588,41.480243 25.2771301,41.2979314 L17.2123612,37.1234219 L17.1085229,37.1234219 L17.1085229,20.6045473 C17.1085229,19.1203083 18.2707719,17.9170949 19.7044786,17.9170949 Z M3.07305605,1.79238004 L25.9520785,1.79238004 L26.3847378,3.58401502 L2.64039678,3.58401502 L3.07305605,1.79238004 Z M21.2274392,41.2083496 L7.79769534,41.2083496 L12.5915601,38.7358934 C13.8073761,38.1118064 15.2350648,38.1118064 16.4508808,38.7358934 L21.2274392,41.2083496 Z M12.7473174,17.9170949 L16.2085917,17.9170949 C15.6569855,18.6956769 15.3653732,19.6390847 15.3778858,20.6045473 L15.3778858,36.568015 C14.8039977,36.482011 14.2211369,36.482011 13.6472487,36.568015 L13.6472487,20.6045473 C13.6499836,19.6320315 13.3393949,18.6863381 12.7646238,17.9170949 L12.7473174,17.9170949 Z M9.28604325,16.1254625 C7.75698552,16.1196502 6.26372549,15.6459093 4.99406324,14.7638173 C2.36788758,12.8035402 1.19480697,9.36028276 2.05198016,6.12813669 L2.2077375,5.37565 L26.8173971,5.37565 L27.0077672,6.12813669 C27.8576206,9.36788907 26.6701181,12.8129479 24.0310713,14.7638173 C22.751612,15.6526936 21.2453329,16.1267419 19.7044786,16.1254625 L9.28604325,16.1254625 Z" id="Shape"></path>
    </g>
  </g>
</svg>
