<?xml version="1.0" encoding="UTF-8"?>
<svg xmlns="http://www.w3.org/2000/svg" width="512" height="512">
  <path d="M314.399 117.302c-5.891 0-10.654 4.766-10.654 10.655s4.764 10.67 10.654 10.67 10.67-4.78 10.67-10.67-4.78-10.655-10.67-10.655z"></path>
  <path d="M461.879 208.773c-.891-5.749-4.562-15.06-25.122-36.276-11.279-11.654-26.637-25.871-45.649-42.275-26.028-22.449-51.993-43.01-61.147-50.181C320.195 14.176 282.747 1.1 281.122.568c-2.921-.953-6.092-.625-8.732.938a10.64 10.64 0 0 0-5.078 7.155l-10.123 52.023c-5.296.609-12.592 1.891-21.153 4.5-8.108.25-39.463 2.78-75.333 26.824-23.591 15.795-44.416 37.729-61.914 65.194-21.528 33.792-38.026 76.146-49.04 125.872a10.628 10.628 0 0 0 2.156 9.078 10.71 10.71 0 0 0 8.483 3.904c4.718-.109 18.357.375 28.527 3.563l197.598 209.002a10.649 10.649 0 0 0 7.748 3.344c.234 0 .453 0 .688-.016a10.724 10.724 0 0 0 7.953-4.391c1.671-2.311 41.135-57.398 41.135-114.873 0-49.979-32.559-103.236-42.182-117.891l6.904-35.526c3.281.891 6.688 1.656 10.218 2.313 11.921 2.202 22.935 2.624 30.402 2.562.828 3.688 1.937 8.108 3.374 12.639 5.594 17.779 12.967 27.777 22.544 30.559 18.028 5.219 38.339-9.529 41.917-12.279 8.357 6.17 14.529 3.844 17.481 1.875 5.062-3.359 12.717-13.561 18.231-24.247 5.532-10.749 11.577-27.075 8.953-43.917zm-345.718-39.134c13.732-21.778 29.652-39.714 47.4-53.415-32.433 43.947-65.069 131.857-75.458 161.166-5.108-1.078-10.202-1.734-14.623-2.125 10.248-41.432 24.589-76.927 42.681-105.626zm310.41 85.238c-3.188-3.297-7.437-8.405-10.92-13.248a10.656 10.656 0 0 0-12.982-3.531 10.657 10.657 0 0 0-6.109 11.983l2.469 11.545c-5.875 3.467-13.217 6.436-17.623 5.264-1.203-.75-4.874-5.186-8.654-17.621-2.781-9.14-4.141-17.717-4.141-17.795-.875-5.562-5.937-9.498-11.545-8.983-.609.063-62.055 5.328-79.271-29.995a10.671 10.671 0 0 0-14.264-4.906c-5.296 2.578-7.499 8.968-4.921 14.264 6.108 12.53 16.264 22.528 29.934 29.652l-8.469 43.557a10.677 10.677 0 0 0 1.734 8.17c.406.578 40.885 58.867 40.885 109.455 0 36.557-19.246 73.598-30.011 91.424L107.068 287.763c4.109-11.654 13.889-38.729 26.371-68.318 21.544-51.024 41.151-86.207 56.696-101.768 15.263-15.264 32.62-25.996 51.571-31.901a102.926 102.926 0 0 1 12.998-3.172l-1.031 17.545c-.344 5.89 4.14 10.936 10.03 11.279.203 0 .422.016.625.016 5.608 0 10.312-4.374 10.64-10.046l1.718-29.276 8.483-43.604a54.833 54.833 0 0 1 3.781 4.077c7.311 8.733 16.794 25.278 20.449 54.509a10.673 10.673 0 0 0 4.063 7.108c.313.249 31.684 24.559 63.272 51.773 59.741 51.509 63.804 64.757 64.069 66.069 2.454 15.764-7.686 34.121-14.232 42.823z"></path>
</svg>
