<svg width="21px" height="29px" viewBox="0 0 21 29" version="1.1" xmlns="http://www.w3.org/2000/svg" xmlns:xlink="http://www.w3.org/1999/xlink">
    <g id="Page-1" stroke="none" stroke-width="1" fill="none" fill-rule="evenodd">
        <g id="ACCESSIBLE_HEIGHT_TOILET" transform="translate(1.000000, 1.000000)" stroke="#181818">
            <path d="M19,10.5 C19,10.9591312 18.5346237,11.3853202 17.7242366,11.752831 C16.0834939,12.498147 13.0094587,13 9.4972266,13 C5.98499445,13 2.9165061,12.4976323 1.27576341,11.752831 C0.467040346,11.3858349 0,10.9591312 0,10.5 C0,9.93843937 0.698341799,9.42577723 1.87925498,9.00422071 C3.61706662,8.3942763 6.37992643,8 9.49667192,8 C12.8480469,8 15.7978338,8.45913115 17.4840603,9.14988676 C18.4469843,9.53901585 19,10.0032942 19,10.5 Z" id="Path"></path>
            <path d="M19,11 L19,13.6679942 C19,15.142889 14.7460948,16.3359883 9.49694882,16.3359883 C4.24780286,16.3359883 0,15.142889 0,13.6674449 L0,11 C0,11.4899837 0.465444247,11.9448116 1.27594966,12.3370183 C2.91693188,13.1324178 5.98364916,13.6679942 9.4986131,13.6679942 C13.013577,13.6679942 16.0858419,13.1318685 17.7268241,12.3370183 C18.534001,11.9448116 19,11.4894344 19,11 Z M15.4151362,26.3614282 C15.4151362,27.2128573 4.2089696,27.2128573 4.2089696,26.3614282 L5.47160501,20.1904901 C7.24073696,20.6975024 8.89891676,20.7491374 9.4986131,20.7491374 C10.1737569,20.7491374 12.1520336,20.7205733 14.1308651,20.0635997 L15.4151362,26.3614282 Z" id="Shape"></path>
            <path d="M18.5390922,13.8769642 C18.5277248,17.7255364 16.1573582,19.4931721 13.7864504,20.3104066 C11.8561633,20.9734772 9.92533488,21 9.26656892,21 C8.6819615,21 7.06346503,20.9480595 5.33724923,20.4380477 C2.78229828,19.6843574 0,17.9338511 0,13.8769642 C0,15.3605846 4.15071269,16.5607424 9.26656892,16.5607424 C14.3824252,16.5607424 18.5390922,15.3611372 18.5390922,13.8769642 Z M18.9591434,1.88477996 L17.1252083,9.74437671 L17.0629584,9.74437671 C15.4163142,9.00229021 12.537664,8.50996029 9.26819283,8.50996029 C6.22498643,8.50996029 3.53037926,8.93322036 1.83555904,9.58800256 L0.478512,1.79692311 C0.399550717,1.3520014 0.518070923,0.894251254 0.802074312,0.547256932 C1.0860777,0.20026261 1.50627945,-0.00019581512 1.94923271,5.98380408e-07 L17.4997901,5.98380408e-07 C17.9586847,-0.000413173115 18.3924797,0.213780558 18.6770331,0.581285853 C18.9615865,0.948791148 19.0655396,1.42910755 18.9591434,1.88477996 Z" id="Shape"></path>
            <path d="M15,3.99968224 C14.9938181,4.54956109 14.5496327,4.99381714 13.9998411,5 C13.4476441,5 13,4.55228475 13,4 C13,3.44771525 13.4476441,3 13.9998411,3 C14.5491404,3.00651854 14.9928471,3.4502957 14.9993646,3.99968224 L15,3.99968224 Z" id="Path"></path>
            <path d="M17,3.00086655 L17,4 L15,4 C15.0719107,3.68000385 15.0719107,3.31999614 15,3 L17,3.00086655 Z" id="Path"></path>
        </g>
    </g>
</svg>