
<svg width="42px" height="26px" viewBox="0 0 42 26" version="1.1" xmlns="http://www.w3.org/2000/svg" xmlns:xlink="http://www.w3.org/1999/xlink">
    <g id="Page-1" stroke="none" stroke-width="1" fill="none" fill-rule="evenodd">
        <g id="ACCESSIBLE_HEIGHT_BED" transform="translate(1.000000, 1.000000)" stroke="#181818">
            <path d="M40,12.7815391 L40,18.2120004 C40.0012774,18.6857596 39.8141673,19.1405577 39.4799545,19.4760132 C39.1457417,19.8114687 38.6919039,20 38.2186107,20 L1.78137592,20 C0.798133244,19.9955501 0.00265941479,19.1978423 2.84217094e-14,18.2136214 L2.84217094e-14,12.7831601 C2.84217094e-14,12.3093991 0.188345137,11.8551128 0.523469423,11.5205697 C0.858593714,11.1860266 1.31294275,10.9987315 1.78623422,11 L38.2186107,11 C38.6913075,10.9982949 39.1451656,11.1853825 39.4795668,11.51981 C39.8139681,11.8542375 40.0012837,12.3083737 40,12.7815391 Z" id="Path"></path>
            <path d="M38,3.84617831 L38,11.2376537 L2,11.2376537 L2,3.84617831 C2,-1.28205944 38,-1.28205944 38,3.84617831 Z M5.83306925,24 L3.38507889,24 L3.38507889,20.1540225 L13.5377714,20.1540225 C8.10671963,20.1026036 5.53848557,21.3845961 5.83306925,24 Z M34.204691,24 L36.6526814,24 L36.6526814,20.1540225 L26.4999888,20.1540225 C31.930505,20.1026036 34.4987391,21.3845961 34.204691,24 Z" id="Shape"></path>
            <path d="M16.6770559,10.0452607 L16.6770559,11 L5,11 L5,10.0452607 C5.00089663,8.91601936 6.04735365,8.00078419 7.33849992,8 L14.3369303,8 C15.6287114,8 16.6761585,8.91546443 16.6770559,10.0452607 Z M34,10.0452607 L34,11 L22.3245698,11 L22.3245698,10.0452607 C22.3254664,8.91601936 23.3719234,8.00078419 24.6630697,8 L31.6606873,8 C32.9521509,8.00039205 33.9991029,8.91574197 34,10.0452607 L34,10.0452607 Z" id="Shape"></path>
        </g>
    </g>
</svg>