<?xml version="1.0" encoding="UTF-8"?>
<svg width="128px" height="128px" viewBox="0 0 128 128" version="1.1" xmlns="http://www.w3.org/2000/svg" xmlns:xlink="http://www.w3.org/1999/xlink">
    <title>bathtub-1429979</title>
    <g id="Page-1" stroke="none" strokeWidth="1" fill="none" fillRule="evenodd">
        <g id="bathtub-1429979" transform="translate(0.000000, 0.000000)" fill="#181818" fillRule="nonzero">
            <path d="M115.999995,87 C115.981812,102.455947 103.455949,114.980468 87.9999946,114.997 L39.9999946,114.997 C24.5440508,114.980468 12.0181876,102.455947 11.9999946,87 L11.9999946,82 L7.99999463,82 L7.99999463,87 C7.99548419,94.7841937 10.84128,102.300652 15.9999946,108.13 L15.9999946,123.992 C15.9935218,125.428982 16.7602467,126.758444 18.0072714,127.472508 C19.2542961,128.186572 20.7889627,128.174919 22.025,127.442 L36.697,118.827 C37.7943673,118.940128 38.8968169,118.996869 39.9999946,118.997 L87.9999946,118.997 C89.1031838,118.996899 90.205635,118.940158 91.303,118.827 L105.975,127.442 C107.211778,128.16803 108.742594,128.176386 109.987223,127.4639 C111.231853,126.751414 111.999804,125.427133 111.999995,123.993 L111.999995,108.13 C117.158801,102.300701 120.004609,94.7842107 120.000006,87 L120.000006,82 L115.999995,82 L115.999995,87 Z M20,123.992 L20,111.951 C23.2033893,114.526883 26.8738561,116.460244 30.81,117.645 L20,123.992 Z M97.19,117.645 C101.127781,116.459812 104.799661,114.525403 108.004,111.948 L108.01,123.998 L97.19,117.645 Z M124,64 L4,64 C1.79177495,64.0022049 0.00220491932,65.791775 0,68 L0,74 C0.00220491932,76.208225 1.79177495,77.9977951 4,78 L124,78 C126.208225,77.9977951 127.997795,76.208225 128,74 L128,68 C127.997795,65.791775 126.208225,64.0022049 124,64 Z M4,74 L4,68 L124,68 L124.003,74 L4,74 Z M54.002,28 L73.998,28 C75.1343162,28 76.1731055,27.3579929 76.6812816,26.3416408 C77.1894576,25.3252887 77.0797897,24.1090529 76.398,23.2 L66,9.332 L66,2 C66,0.8954305 65.1045695,0 64,0 C62.8954305,0 62,0.8954305 62,2 L62,9.333 L51.603,23.2 C50.9213183,24.1089088 50.8115686,25.324918 51.3194947,26.3411937 C51.8274208,27.3574694 52.8658639,27.9996213 54.002,28 L54.002,28 Z M64,13.334 L71.998,24 L56.002,24 L64,13.334 Z M65.98,33.912 C65.8773824,33.3695762 65.5505538,32.8956747 65.08,32.607 C64.2865257,32.1546383 63.2915183,32.2678912 62.62,32.887 C62.0399522,33.4616855 61.8670385,34.3310502 62.1830331,35.0839555 C62.4990277,35.8368607 63.2406013,36.3224149 64.05705,36.3109903 C64.8734986,36.2995658 65.6011958,35.7934521 65.896,35.032 C66.0306245,34.6743786 66.0594388,34.2855591 65.979,33.912 L65.98,33.912 Z M64.03,38.198 C62.9254305,38.198 62.03,39.0934305 62.03,40.198 C62.03,41.3025695 62.9254305,42.198 64.03,42.198 C65.1345695,42.198 66.03,41.3025695 66.03,40.198 C66.0267052,39.0947981 65.1332019,38.2012948 64.03,38.198 Z M64.03,44.098 C62.9254305,44.098 62.03,44.9934305 62.03,46.098 C62.03,47.2025695 62.9254305,48.098 64.03,48.098 C65.1345695,48.098 66.03,47.2025695 66.03,46.098 C66.0267052,44.9947981 65.1332019,44.1012948 64.03,44.098 L64.03,44.098 Z M65.695,50.891 C65.6242032,50.7816745 65.5420831,50.6801138 65.45,50.588 C64.6555415,49.8384973 63.4144585,49.8384973 62.62,50.588 C61.8683464,51.3739158 61.8832909,52.616659 62.6536262,53.3842723 C63.4239615,54.1518856 64.6667499,54.1624309 65.45,53.408 C66.100389,52.7249982 66.201464,51.6866077 65.695,50.891 L65.695,50.891 Z M57.95,35.998 C58.4799564,35.9976456 58.987721,35.7851767 59.36,35.408 C59.4566324,35.3198765 59.5407466,35.2189394 59.61,35.108 C60.1694103,34.2550118 60.0027521,33.1184716 59.222,32.462 C58.4176285,31.8420056 57.2827024,31.8953242 56.54,32.588 C56.0942862,33.0226946 55.8816051,33.6432927 55.967,34.26 C56.1243059,35.2406743 56.9571664,35.9706348 57.95,35.998 L57.95,35.998 Z M55.94,37.598 C55.2095593,37.1840492 54.2983375,37.270373 53.6586238,37.8141241 C53.0189101,38.3578751 52.7869043,39.2432848 53.0777637,40.0308759 C53.368623,40.8184669 54.1204213,41.3405553 54.96,41.3380215 C55.8709292,41.3422098 56.669139,40.7291462 56.9000389,39.8479567 C57.1309388,38.9667672 56.7359403,38.0410448 55.94,37.598 L55.94,37.598 Z M51.01,46.428 C51.3044286,46.5994574 51.6392885,46.6892136 51.98,46.688 C52.9910966,46.6972447 53.851345,45.953233 53.9879496,44.9513643 C54.1245542,43.9494955 53.4948968,43.0023354 52.5182342,42.7405495 C51.5415715,42.4787636 50.5226053,42.9840246 50.1398133,43.919905 C49.7570212,44.8557854 50.1298277,45.9303067 51.01,46.428 L51.01,46.428 Z M49,52.0280158 C49.7634015,52.0310222 50.4619378,51.5991989 50.8004905,50.9149671 C51.1390433,50.2307354 51.0585536,49.4134559 50.593027,48.8084137 C50.1275003,48.2033716 49.3581454,47.9161133 48.61,48.068 C47.6048834,48.2720564 46.9170252,49.203354 47.0175471,50.224037 C47.1180689,51.24472 47.9743871,52.0239397 49,52.0280158 L49,52.0280158 Z M71.71,35.108 C72.2388122,34.3159974 72.1341164,33.2606645 71.46,32.588 C70.6694904,31.8382775 69.4305096,31.8382775 68.64,32.588 C68.2645972,32.9614748 68.0524513,33.4684675 68.05,33.998 C68.0580439,34.5780187 68.3145632,35.1267086 68.7544616,35.50483 C69.19436,35.8829514 69.7753518,36.0541568 70.35,35.975 C70.9021172,35.8823041 71.3929362,35.569407 71.71,35.108 L71.71,35.108 Z M75.04,42.938 C74.2417874,43.3816374 73.8452017,44.3094122 74.0761002,45.1929525 C74.3069988,46.0764927 75.1067944,46.6916132 76.02,46.6880158 C76.3606927,46.6890686 76.6955152,46.5993224 76.99,46.428 C77.9139818,45.8709791 78.2296206,44.681488 77.703373,43.7396397 C77.1771254,42.7977915 75.9986902,42.4430982 75.04,42.938 Z M73.03,41.3480053 C73.3732665,41.3446295 73.7102082,41.2552368 74.01,41.088 C74.716558,40.6937223 75.1159443,39.9125659 75.0218487,39.1089335 C74.9277532,38.305301 74.3587158,37.6375353 73.5801874,37.4171431 C72.8016591,37.1967509 71.9670363,37.4671569 71.4656632,38.1022192 C70.9642901,38.7372815 70.8949541,39.6118712 71.29,40.318 C71.6372719,40.9543999 72.3050174,41.3496745 73.03,41.3480053 L73.03,41.3480053 Z M77.036,50.028 C77.0263776,50.8316989 77.5045273,51.561144 78.2453474,51.8729296 C78.9861674,52.1847152 79.842024,52.0167072 80.41,51.448 C80.9094444,50.9175218 81.0875279,50.1606826 80.8770317,49.4631561 C80.6665356,48.7656296 80.0995167,48.2336438 79.39,48.068 C78.7357695,47.9386275 78.060189,48.1450549 77.59,48.618 C77.2221663,48.993685 77.0222873,49.5024024 77.036,50.028 L77.036,50.028 Z M16,46.997 C16,51.9675627 20.0294373,55.997 25,55.997 C29.9705627,55.997 34,51.9675627 34,46.997 C34,42.0264373 29.9705627,37.997 25,37.997 C20.0317218,38.0025111 16.0055111,42.0287218 16,46.997 Z M25,41.997 C27.7614237,41.997 30,44.2355763 30,46.997 C30,49.7584237 27.7614237,51.997 25,51.997 C22.2385763,51.997 20,49.7584237 20,46.997 C20.0033061,44.2369468 22.2399468,42.0003061 25,41.997 L25,41.997 Z M13,35.997 C16.8659932,35.997 20,32.8629932 20,28.997 C20,25.1310068 16.8659932,21.997 13,21.997 C9.13400675,21.997 6,25.1310068 6,28.997 C6.00440864,32.8611657 9.13583434,35.9925914 13,35.997 L13,35.997 Z M13,25.997 C14.6568542,25.997 16,27.3401458 16,28.997 C16,30.6538542 14.6568542,31.997 13,31.997 C11.3431458,31.997 10,30.6538542 10,28.997 C10.0016537,27.3408312 11.3438312,25.9986537 13,25.997 L13,25.997 Z M105,55.997 C109.970563,55.997 114,51.9675627 114,46.997 C114,42.0264373 109.970563,37.997 105,37.997 C100.029437,37.997 96,42.0264373 96,46.997 C96.0055111,51.9652782 100.031722,55.9914889 105,55.997 L105,55.997 Z M105,41.997 C107.761424,41.997 110,44.2355763 110,46.997 C110,49.7584237 107.761424,51.997 105,51.997 C102.238576,51.997 100,49.7584237 100,46.997 C100.003306,44.2369468 102.239947,42.0003061 105,41.997 Z M117,35.997 C120.865993,35.997 124,32.8629932 124,28.997 C124,25.1310068 120.865993,21.997 117,21.997 C113.134007,21.997 110,25.1310068 110,28.997 C110.004409,32.8611657 113.135834,35.9925914 117,35.997 L117,35.997 Z M117,25.997 C118.656854,25.997 120,27.3401458 120,28.997 C120,30.6538542 118.656854,31.997 117,31.997 C115.343146,31.997 114,30.6538542 114,28.997 C114.001654,27.3408312 115.343831,25.9986537 117,25.997 L117,25.997 Z" id="Shape"></path>
        </g>
    </g>
</svg>