<svg width="31px" height="29px" viewBox="0 0 31 29" version="1.1" xmlns="http://www.w3.org/2000/svg" xmlns:xlink="http://www.w3.org/1999/xlink">
    <g id="Page-1" stroke="none" stroke-width="1" fill="none" fill-rule="evenodd">
        <g id="bath.ff61f6bb" transform="translate(1.000000, 1.000000)" stroke="#181818">
            <path d="M25.4002,27.0008 L25.4002,27.0008 C25.2992,27.0008 24.5002,26.8998 24.0002,26.6008 C23.5002,26.1998 23.2002,25.6008 23.2002,25.5008" id="Stroke-1"></path>
            <path d="M5.7996,25.4002 C5.7996,25.4002 5.2996,26.2002 4.7996,26.5012 C4.2996,26.9002 3.4996,26.9002 3.3996,26.9002" id="Stroke-3"></path>
            <path d="M28.2996,17.5008 C28.2996,17.5008 26.5996,25.3998 24.4006,25.3998 L4.3996,25.3998 C2.1996,25.3998 0.4996,17.5008 0.4996,17.5008" id="Stroke-5"></path>
            <path d="M28.2,17.5008 C28.7,17.5008 28.9,17.1998 28.9,16.8998 C28.9,16.6008 28.7,16.3008 28.2,16.3008 L0.7,16.3008 C0.2,16.3008 0,16.6008 0,16.8998 C0,17.1998 0.2,17.5008 0.7,17.5008" id="Stroke-7"></path>
            <polygon id="Stroke-9" points="25.4002 1.5003 22.7992 2.0003 25.0002 4.2003"></polygon>
            <line x1="24.2" y1="5.5003" x2="23.599" y2="6.8003" id="Stroke-11"></line>
            <line x1="22.5994" y1="8.7005" x2="22.0994" y2="10.0005" id="Stroke-13"></line>
            <line x1="21.4998" y1="11.7005" x2="20.8998" y2="13.0005" id="Stroke-15"></line>
            <line x1="21.7" y1="3.1004" x2="20.5" y2="3.9004" id="Stroke-17"></line>
            <line x1="18.5994" y1="4.7005" x2="17.4004" y2="5.5005" id="Stroke-19"></line>
            <line x1="15.3997" y1="6.8006" x2="14.1997" y2="7.5006" id="Stroke-21"></line>
            <line x1="19.5994" y1="6.3006" x2="18.4994" y2="7.2006" id="Stroke-23"></line>
            <line x1="17.0994" y1="8.5003" x2="15.9994" y2="9.4003" id="Stroke-25"></line>
            <line x1="22.7996" y1="4.5003" x2="21.7996" y2="5.8003" id="Stroke-27"></line>
            <line x1="20.9998" y1="7.5003" x2="20.0998" y2="8.7003" id="Stroke-29"></line>
            <line x1="18.9998" y1="10.2005" x2="18.0998" y2="11.4005" id="Stroke-31"></line>
            <polyline id="Stroke-33" points="27.7996 16.2 27.7996 0 25.4006 1.5"></polyline>
        </g>
    </g>
</svg>