<?xml version="1.0" encoding="UTF-8"?>
<svg width="60px" height="48px" viewBox="0 0 60 48" version="1.1" xmlns="http://www.w3.org/2000/svg" xmlns:xlink="http://www.w3.org/1999/xlink">
    <title>smart-tv-2973297</title>
    <g id="Page-1" stroke="none" strokeWidth="1" fill="none" fillRule="evenodd">
        <g id="smart-tv-2973297" fill="#181818" fillRule="nonzero">
            <path d="M53,34 L7,34 C5.34383121,33.9983463 4.00165369,32.6561688 4,31 L4,7 C4.00165369,5.34383121 5.34383121,4.00165369 7,4 L53,4 C54.6561688,4.00165369 55.9983463,5.34383121 56,7 L56,31 C55.9983463,32.6561688 54.6561688,33.9983463 53,34 Z M7,6 C6.44794374,6.00055123 6.00055123,6.44794374 6,7 L6,31 C6.00055123,31.5520563 6.44794374,31.9994488 7,32 L53,32 C53.5522847,32 54,31.5522847 54,31 L54,7 C54,6.44771525 53.5522847,6 53,6 L7,6 Z M57,0 L3,0 C1.34383121,0.00165368949 0.00165368949,1.34383121 0,3 L0,35 C0.00165368949,36.6561688 1.34383121,37.9983463 3,38 L24.946,38 C24.3773843,41.0503948 22.8706234,43.8471668 20.636,46 L15,46 C14.4477153,46 14,46.4477153 14,47 C14,47.5522847 14.4477153,48 15,48 L45,48 C45.5522847,48 46,47.5522847 46,47 C46,46.4477153 45.5522847,46 45,46 L39.364,46 C37.1294304,43.8471261 35.6226793,41.0503723 35.054,38 L57,38 C58.6561688,37.9983463 59.9983463,36.6561688 60,35 L60,3 C59.9983463,1.34383121 58.6561688,0.00165368949 57,0 Z M36.616,46 L23.384,46 C25.2630312,43.696599 26.4976556,40.9361196 26.962,38 L33.037,38 C33.5021578,40.9362494 34.7374546,43.6966891 36.617,46 L36.616,46 Z M58,35 C58,35.5522847 57.5522847,36 57,36 L3,36 C2.44794374,35.9994488 2,35.5520563 2,35 L2,3 C2,2.44794374 2.44794374,2.00055123 3,2 L57,2 C57.5522847,2 58,2.44771525 58,3 L58,35 Z M30,27 C28.6192881,27 27.5,25.8807119 27.5,24.5 C27.5,23.1192881 28.6192881,22 30,22 C31.3807119,22 32.5,23.1192881 32.5,24.5 C32.4983469,25.8800266 31.3800266,26.9983469 30,27 L30,27 Z M30,24 C29.7238576,24 29.5,24.2238576 29.5,24.5 C29.5,24.7761424 29.7238576,25 30,25 C30.2761424,25 30.5,24.7761424 30.5,24.5 C30.5,24.2238576 30.2761424,24 30,24 Z M39.23,14.88 C34.1635422,9.80730879 25.9729524,9.71048911 20.788,14.662 C20.4098545,15.0465928 20.4048369,15.6617752 20.7766587,16.052485 C21.1484806,16.4431947 21.763157,16.4686407 22.166,16.11 C26.5647882,11.9059038 33.5167206,11.9871948 37.816,16.293 C38.2095832,16.6626018 38.8254904,16.6530364 39.2074063,16.2713906 C39.5893222,15.8897448 39.5993233,15.2738446 39.23,14.88 L39.23,14.88 Z M29.922,14.4999548 C27.4257892,14.4974869 25.0252055,15.4598701 23.222,17.186 C22.8221458,17.5670765 22.8069235,18.2001458 23.188,18.6 C23.5690765,18.9998542 24.2021458,19.0150765 24.602,18.634 C27.6317657,15.7376624 32.4207594,15.7936376 35.382,18.76 C35.7743789,19.1389722 36.3980848,19.1335524 36.7838186,18.7478186 C37.1695524,18.3620848 37.1749722,17.7383789 36.796,17.346 C34.9761716,15.5169492 32.5001434,14.4921126 29.92,14.4999548 L29.922,14.4999548 Z M29.953,17.9869763 C28.3523689,17.9857414 26.8131689,18.6030695 25.657,19.71 C25.2571459,20.0910765 25.2419236,20.7241458 25.623,21.124 C26.0040765,21.5238541 26.6371458,21.5390765 27.037,21.158 C28.6974887,19.5707291 31.3220349,19.6013814 32.945,21.227 C33.3385832,21.5966018 33.9544904,21.5870364 34.3364063,21.2053906 C34.7183222,20.8237448 34.7283233,20.2078446 34.359,19.814 C33.1936743,18.6404107 31.6068667,17.9824221 29.953,17.9869763 L29.953,17.9869763 Z" id="Shape"></path>
        </g>
    </g>
</svg>