<?xml version="1.0" encoding="UTF-8"?>
<svg width="60px" height="60px" viewBox="0 0 60 60" version="1.1" xmlns="http://www.w3.org/2000/svg" xmlns:xlink="http://www.w3.org/1999/xlink">
    <title>vacuum-cleaner-2973327</title>
    <g id="Page-1" stroke="none" strokeWidth="1" fill="none" fillRule="evenodd">
        <g id="vacuum-cleaner-2973327" fill="#181818" fillRule="nonzero">
            <path d="M30,0 C13.4314575,0 0,13.4314575 0,30 C0,46.5685425 13.4314575,60 30,60 C46.5685425,60 60,46.5685425 60,30 C59.981263,13.4392249 46.5607751,0.0187370435 30,0 Z M2.025,31 L3.081,31 C3.60338049,31.0109056 4.03195252,31.4169668 4.071,31.938 C5.0831334,45.5101333 16.3901795,56.0053609 30,56.0053609 C43.6098205,56.0053609 54.9168666,45.5101333 55.929,31.938 C55.9685001,31.417182 56.39681,31.0113691 56.919,31 L57.975,31 C57.4495209,46.0707557 45.079914,58.0165827 30,58.0165827 C14.920086,58.0165827 2.55047905,46.0707557 2.025,31 L2.025,31 Z M12,8.575 C22.3991232,-0.190961856 37.6008768,-0.190961856 48,8.575 L48,19 C48,19.5522847 47.5522847,20 47,20 L13,20 C12.4477153,20 12,19.5522847 12,19 L12,8.575 Z M10,10.431 L10,19 C10,20.6568542 11.3431458,22 13,22 L47,22 C48.6568542,22 50,20.6568542 50,19 L50,10.43 C54.8856387,15.405835 57.7308007,22.0308705 57.975,29 L56.919,29 C55.3643951,28.9901699 54.0650771,30.1804847 53.939,31.73 C53.034896,44.2839248 42.5864384,54.0069698 30,54.0069698 C17.4135616,54.0069698 6.96510398,44.2839248 6.061,31.73 C5.93445478,30.1807139 4.63541754,28.9906563 3.081,29 L2.025,29 C2.26919928,22.0308705 5.11436129,15.405835 10,10.43 L10,10.431 Z M39,15 C39,16.6568542 40.3431458,18 42,18 C43.6568542,18 45,16.6568542 45,15 C45,13.3431458 43.6568542,12 42,12 C40.3438312,12.0016537 39.0016537,13.3438312 39,15 Z M43,15 C43,15.5522847 42.5522847,16 42,16 C41.4477153,16 41,15.5522847 41,15 C41,14.4477153 41.4477153,14 42,14 C42.5522847,14 43,14.4477153 43,15 Z M34,12 C32.3431458,12 31,13.3431458 31,15 C31,16.6568542 32.3431458,18 34,18 C35.6568542,18 37,16.6568542 37,15 C36.9983463,13.3438312 35.6561688,12.0016537 34,12 L34,12 Z M34,16 C33.4477153,16 33,15.5522847 33,15 C33,14.4477153 33.4477153,14 34,14 C34.5522847,14 35,14.4477153 35,15 C35,15.5522847 34.5522847,16 34,16 Z M26,12 C24.3431458,12 23,13.3431458 23,15 C23,16.6568542 24.3431458,18 26,18 C27.6568542,18 29,16.6568542 29,15 C28.9983463,13.3438312 27.6561688,12.0016537 26,12 L26,12 Z M26,16 C25.4477153,16 25,15.5522847 25,15 C25,14.4477153 25.4477153,14 26,14 C26.5522847,14 27,14.4477153 27,15 C27,15.5522847 26.5522847,16 26,16 Z M18,18 C19.6568542,18 21,16.6568542 21,15 C21,13.3431458 19.6568542,12 18,12 C16.3431458,12 15,13.3431458 15,15 C15.0016537,16.6561688 16.3438312,17.9983463 18,18 L18,18 Z M18,14 C18.5522847,14 19,14.4477153 19,15 C19,15.5522847 18.5522847,16 18,16 C17.4477153,16 17,15.5522847 17,15 C17,14.4477153 17.4477153,14 18,14 Z M19.5,11 L40.5,11 C41.8807119,11 43,9.88071187 43,8.5 C43,7.11928813 41.8807119,6 40.5,6 L19.5,6 C18.1192881,6 17,7.11928813 17,8.5 C17,9.88071187 18.1192881,11 19.5,11 Z M19.5,8 L40.5,8 C40.7761424,8 41,8.22385763 41,8.5 C41,8.77614237 40.7761424,9 40.5,9 L19.5,9 C19.2238576,9 19,8.77614237 19,8.5 C19,8.22385763 19.2238576,8 19.5,8 Z M30,35.99 C28.6192881,35.99 27.5,37.1092881 27.5,38.49 C27.5,39.8707119 28.6192881,40.99 30,40.99 C31.3807119,40.99 32.5,39.8707119 32.5,38.49 C32.4983469,37.1099734 31.3800266,35.9916531 30,35.99 Z M30,38.99 C29.7238576,38.99 29.5,38.7661424 29.5,38.49 C29.5,38.2138576 29.7238576,37.99 30,37.99 C30.2761424,37.99 30.5,38.2138576 30.5,38.49 C30.5,38.7661424 30.2761424,38.99 30,38.99 Z M30,52 C37.7319865,52 44,45.7319865 44,38 C44,30.2680135 37.7319865,24 30,24 C22.2680135,24 16,30.2680135 16,38 C16.0088173,45.7283313 22.2716687,51.9911827 30,52 L30,52 Z M30,26 C36.627417,26 42,31.372583 42,38 C42,44.627417 36.627417,50 30,50 C23.372583,50 18,44.627417 18,38 C18.0071648,31.375553 23.375553,26.0071648 30,26 L30,26 Z" id="Shape"></path>
        </g>
    </g>
</svg>