<?xml version="1.0" encoding="UTF-8"?>
<svg width="76px" height="128px" viewBox="0 0 76 128" version="1.1" xmlns="http://www.w3.org/2000/svg" xmlns:xlink="http://www.w3.org/1999/xlink">
    <title>CHILDREN_DINNERWARE</title>
    <g id="Page-1" stroke="none" strokeWidth="1" fill="none" fillRule="evenodd">
        <g id="CHILDREN_DINNERWARE" transform="translate(0.000000, -0.000000)" fill="#181818" fillRule="nonzero">
            <path d="M70.1450545,81.46387 C68.0063845,67.23587 65.3447645,49.53272 65.8994445,43.39698 L65.9023745,43.37012 C65.91447,43.1985336 65.9918851,43.0381131 66.1186845,42.92188 C71.7525245,38.08252 76.0005245,28.55176 76.0005245,20.75244 C76.0005245,9.30957 68.3745245,0 59.0005245,0 C49.6265245,0 42.0005245,9.30957 42.0005245,20.75244 C42.0005245,28.39307 46.2461345,37.88037 51.8769845,42.8208 C52.0012515,42.9378619 52.0770509,43.0973047 52.0893845,43.26758 L52.0991545,43.37305 C52.6631545,49.48731 49.9975945,67.21778 47.8559945,81.46387 C46.5219945,90.33787 45.3696645,98.00147 45.1626345,101.64453 C44.9783784,104.267924 44.9553852,106.900157 45.0937845,109.52637 C45.5962245,117.22266 49.0210345,126.08008 57.1255245,127.85791 C57.6434086,127.95978 58.1705227,128.007238 58.6982745,128.000322 C59.4409979,127.994455 60.1824942,127.938322 60.9175145,127.83151 C60.9741545,127.82321 61.0298145,127.81251 61.0855145,127.79928 C69.0455145,125.91012 72.4116845,117.12155 72.9072945,109.52633 C73.0456937,106.900117 73.0227005,104.267884 72.8384445,101.64449 C72.6313845,98.00146 71.4790445,90.33789 70.1450545,81.46387 Z M51.8115545,82.0586 C54.0981745,66.84571 56.6904645,49.60255 56.0825545,43.00587 L56.0708345,42.88478 C55.9637636,41.6998814 55.4068984,40.6010018 54.5146845,39.81398 C49.7402745,35.62451 46.0005245,27.252 46.0005245,20.75244 C46.0005245,11.51514 51.8320645,4 59.0005245,4 C66.1689845,4 72.0005245,11.51514 72.0005245,20.75244 C72.0005245,27.39355 68.2720045,35.79883 63.5122445,39.88769 C62.6039214,40.6709632 62.0341477,41.7755036 61.9224045,42.96969 L61.9184945,43.00582 C61.3105845,49.6025 63.9028745,66.84566 66.1894945,82.05855 C67.0426445,87.73335 67.8187645,92.89949 68.3152845,96.78292 C62.8475505,101.083548 55.1433531,101.071118 49.6895245,96.75287 C50.1862545,92.87286 50.9606645,87.71857 51.8115245,82.05859 L51.8115545,82.0586 Z M68.9160445,109.2656 C68.5151645,115.40574 66.0259045,122.45408 60.2451445,123.88718 C59.4965715,124.003297 58.7363501,124.024625 57.9824445,123.95066 C52.0444445,122.64841 49.4931845,115.51072 49.0849845,109.2656 C48.9588305,106.801924 48.982474,104.332859 49.1557845,101.87205 C49.1674445,101.66667 49.1829445,101.44456 49.2011345,101.21073 C55.2054296,104.92049 62.7877006,104.930381 68.8016545,101.2363 C68.8188645,101.46005 68.8340045,101.67459 68.8452345,101.87204 C69.0185532,104.332861 69.0422034,106.80194 68.9160545,109.26563 L68.9160445,109.2656 Z" id="Shape"></path>
            <circle id="Oval" cx="59.0005245" cy="113" r="2"></circle>
            <path d="M62.5000345,32.0000024 C63.049127,32.0008578 63.5742803,31.7752856 63.9516945,31.37646 C65.5520262,29.6518922 66.6422947,27.5169889 67.1011045,25.20946 C68.5693645,18.11376 65.5708345,14.916 65.2241045,14.57469 C64.434826,13.7947296 63.1646059,13.7960367 62.3769345,14.57762 C62.0026911,14.9495486 61.7925727,15.4555947 61.793307,15.9832199 C61.7940413,16.5108452 62.0055674,17.0163045 62.3808445,17.38719 C62.4555545,17.46971 64.2045745,19.46727 63.1840645,24.39891 C62.8686591,25.9746169 62.1307471,27.4349104 61.0492945,28.62352 C60.4991802,29.2034028 60.3471584,30.0551409 60.6626959,30.7895289 C60.9782334,31.523917 61.7007287,32.0000024 62.5000345,32.0000024 Z M25.2300145,43.36768 C25.249816,43.2079898 25.3315251,43.0624583 25.4575545,42.96241 C31.4682945,38.12207 36.0005245,28.57373 36.0005245,20.75244 C36.0321158,16.1067535 34.6358019,11.5634973 32.0005245,7.73743 L32.0005245,19 C31.9993412,19.2345525 31.984486,19.4688365 31.9560345,19.70166 C31.9742845,20.05096 32.0005245,20.39777 32.0005245,20.75244 C32.0005245,27.37207 28.0244545,35.75928 22.9482745,39.84765 C21.9799037,40.6222326 21.3664009,41.7558859 21.2475945,42.99023 L21.2441745,43.02685 C20.6064745,49.66406 23.3677145,66.88378 25.8042345,82.08007 C26.6760645,87.51617 27.4733645,92.49029 28.0040045,96.3109 C27.9262644,96.352291 27.8513715,96.3988209 27.7798245,96.45018 C25.0202007,98.698614 21.5822572,99.9494371 18.0229845,100 C14.4459865,99.9485067 10.992087,98.6859564 8.22513446,96.41846 C8.1537524,96.3670521 8.07902347,96.3204589 8.00144446,96.27899 C8.53220446,92.46252 9.32737446,87.5014 10.1968145,82.08008 C12.6377345,66.85889 15.4038145,49.60694 14.7554045,43.01221 L14.7417345,42.87207 C14.6206107,41.6593741 14.0225209,40.5445226 13.0791345,39.77295 C7.98831446,35.585 4.00052446,27.23 4.00052446,20.75244 C4.00052446,20.39776 4.02677446,20.05096 4.04501446,19.70166 C4.01656288,19.4688365 4.00170768,19.2345525 4.00052446,19 L4.00052446,7.73743 C1.36524701,11.5634873 -0.0310668411,16.1067435 0.000524455805,20.75243 C0.000524455805,28.41503 4.53079446,37.91991 10.5390945,42.86278 C10.6659266,42.966816 10.7462005,43.1170031 10.7622345,43.28026 L10.7729745,43.38526 C11.3725845,49.48389 8.53078446,67.20655 6.24709446,81.44678 C4.82375446,90.32278 3.59475446,97.98828 3.37309446,101.63721 C3.17700571,104.265308 3.15270403,106.903405 3.30034446,109.53467 C3.83647446,117.2378 7.46880446,126.09767 16.0552245,127.86328 C16.5904612,127.961748 17.1340577,128.00754 17.6782245,128.0008 C18.4576556,127.994636 19.2359426,127.939346 20.0083045,127.83447 C20.0610345,127.82715 20.1137745,127.81738 20.1665045,127.80566 C28.6005845,125.9292 32.1713845,117.1372 32.7006845,109.53515 C32.8484161,106.903717 32.8239506,104.265441 32.6274445,101.6372 C32.4062545,97.98827 31.1772445,90.32275 29.7539045,81.44677 C27.4702145,67.20654 24.6284145,49.48388 25.2280245,43.38525 L25.2300145,43.36768 Z M28.6348045,101.8794 C28.8195082,104.334488 28.8447879,106.79897 28.7104845,109.25733 C28.2832345,115.39356 25.6054845,122.44288 19.3764845,123.88333 C18.5433619,124.005525 17.6985043,124.026343 16.8603745,123.94533 C10.4668245,122.63088 7.72512446,115.49611 7.29055446,109.25685 C7.15634304,106.798658 7.18146227,104.334355 7.36575446,101.87941 C7.38595446,101.54677 7.41824446,101.16469 7.45639446,100.75807 C13.8221106,105.070604 22.1698915,105.081501 28.5468445,100.7856 C28.5837145,101.1814 28.6150845,101.55432 28.6348045,101.87939 L28.6348045,101.8794 Z" id="Shape"></path>
            <path d="M18.0005245,21 C19.1050711,21 20.0004692,20.1045466 20.0005245,19 L20.0005245,2 C20.0005245,0.8954305 19.105094,0 18.0005245,0 C16.895955,0 16.0005245,0.8954305 16.0005245,2 L16.0005245,19 C16.0005797,20.1045466 16.8959778,21 18.0005245,21 L18.0005245,21 Z M10.0005245,21 C11.1050711,21 12.0004692,20.1045466 12.0005245,19 L12.0005245,5 C12.0005245,3.8954305 11.105094,3 10.0005245,3 C8.89595496,3 8.00052446,3.8954305 8.00052446,5 L8.00052446,19 C8.00057968,20.1045466 8.89597783,21 10.0005245,21 L10.0005245,21 Z M26.0005245,21 C27.1050711,21 28.0004692,20.1045466 28.0005245,19 L28.0005245,5 C28.0005245,3.8954305 27.105094,3 26.0005245,3 C24.895955,3 24.0005245,3.8954305 24.0005245,5 L24.0005245,19 C24.0005797,20.1045466 24.8959778,21 26.0005245,21 L26.0005245,21 Z" id="Shape"></path>
            <circle id="Oval" cx="18.0005245" cy="113" r="2"></circle>
        </g>
    </g>
</svg>