<?xml version="1.0" encoding="UTF-8"?>
<svg width="54px" height="60px" viewBox="0 0 54 60" version="1.1" xmlns="http://www.w3.org/2000/svg" xmlns:xlink="http://www.w3.org/1999/xlink">
    <title>dishwasher-2081864</title>
    <g id="Page-1" stroke="none" strokeWidth="1" fill="none" fillRule="evenodd">
        <g id="dishwasher-2081864" fill="#181818" fillRule="nonzero">
            <path d="M45,60 L49,60 C50.6568542,60 52,58.6568542 52,57 L52,56 L53,56 C53.5522847,56 54,55.5522847 54,55 L54,3 C54,1.34314575 52.6568542,0 51,0 L3,0 C1.34314575,0 0,1.34314575 0,3 L0,55 C0,55.5522847 0.44771525,56 1,56 L2,56 L2,57 C2,58.6568542 3.34314575,60 5,60 L9,60 C10.6568542,60 12,58.6568542 12,57 L12,56 L42,56 L42,57 C42,58.6568542 43.3431458,60 45,60 L45,60 Z M50,57 C50,57.5522847 49.5522847,58 49,58 L45,58 C44.4477153,58 44,57.5522847 44,57 L44,56 L50,56 L50,57 Z M47,29 L47,35 L7,35 L7,29 L47,29 Z M7,27 L7,25 C7,23.3431458 8.34314575,22 10,22 L44,22 C45.6568542,22 47,23.3431458 47,25 L47,27 L7,27 Z M47,37 L47,41 L7,41 L7,37 L47,37 Z M47,43 L47,49 L7,49 L7,43 L47,43 Z M2,54 L2,3 C2,2.44771525 2.44771525,2 3,2 L51,2 C51.5522847,2 52,2.44771525 52,3 L52,54 L49,54 L49,25 C48.9966939,22.2399468 46.7600532,20.0033061 44,20 L10,20 C7.23994685,20.0033061 5.00330612,22.2399468 5,25 L5,54 L2,54 Z M10,57 C10,57.5522847 9.55228475,58 9,58 L5,58 C4.44771525,58 4,57.5522847 4,57 L4,56 L10,56 L10,57 Z M11,54 L7,54 L7,51 L47,51 L47,54 L11,54 Z" id="Shape"></path>
            <path d="M8,18 L46,18 C46.5522847,18 47,17.5522847 47,17 L47,5 C47,4.44771525 46.5522847,4 46,4 L8,4 C7.44771525,4 7,4.44771525 7,5 L7,17 C7,17.5522847 7.44771525,18 8,18 Z M9,6 L45,6 L45,16 L9,16 L9,6 Z" id="Shape"></path>
            <path d="M16,8 C14.3431458,8 13,9.34314575 13,11 C13,12.6568542 14.3431458,14 16,14 C17.6568542,14 19,12.6568542 19,11 C19,9.34314575 17.6568542,8 16,8 Z M16,12 C15.4477153,12 15,11.5522847 15,11 C15,10.4477153 15.4477153,10 16,10 C16.5522847,10 17,10.4477153 17,11 C17,11.5522847 16.5522847,12 16,12 Z" id="Shape"></path>
            <rect id="Rectangle" x="25" y="10" width="4" height="2"></rect>
            <rect id="Rectangle" x="37" y="10" width="4" height="2"></rect>
        </g>
    </g>
</svg>