<?xml version="1.0" encoding="UTF-8"?>
<svg width="54px" height="60px" viewBox="0 0 54 60" version="1.1" xmlns="http://www.w3.org/2000/svg" xmlns:xlink="http://www.w3.org/1999/xlink">
    <title>clothes-dryer-2081868</title>
    <g id="Page-1" stroke="none" strokeWidth="1" fill="none" fillRule="evenodd">
        <g id="clothes-dryer-2081868" fill="#181818" fillRule="nonzero">
            <path d="M45,60 L49,60 C50.6568542,60 52,58.6568542 52,57 L52,56 L53,56 C53.5522847,56 54,55.5522847 54,55 L54,3 C54,1.34314575 52.6568542,0 51,0 L3,0 C1.34314575,0 0,1.34314575 0,3 L0,55 C0,55.5522847 0.44771525,56 1,56 L2,56 L2,57 C2,58.6568542 3.34314575,60 5,60 L9,60 C10.6568542,60 12,58.6568542 12,57 L12,56 L42,56 L42,57 C42,58.6568542 43.3431458,60 45,60 L45,60 Z M50,57 C50,57.5522847 49.5522847,58 49,58 L45,58 C44.4477153,58 44,57.5522847 44,57 L44,56 L50,56 L50,57 Z M2,3 C2,2.44771525 2.44771525,2 3,2 L51,2 C51.5522847,2 52,2.44771525 52,3 L52,14 L2,14 L2,3 Z M10,57 C10,57.5522847 9.55228475,58 9,58 L5,58 C4.44771525,58 4,57.5522847 4,57 L4,56 L10,56 L10,57 Z M11,54 L2,54 L2,16 L52,16 L52,54 L11,54 Z" id="Shape"></path>
            <path d="M27,18 C17.6111593,18 10,25.6111593 10,35 C10,44.3888407 17.6111593,52 27,52 C36.3888407,52 44,44.3888407 44,35 C43.989529,25.6154999 36.3845001,18.010471 27,18 Z M27,50 C18.7157288,50 12,43.2842712 12,35 C12,26.7157288 18.7157288,20 27,20 C35.2842712,20 42,26.7157288 42,35 C41.9906315,43.2803876 35.2803876,49.9906315 27,50 L27,50 Z" id="Shape"></path>
            <path d="M27,24 C20.9248678,24 16,28.9248678 16,35 C16,41.0751322 20.9248678,46 27,46 C33.0751322,46 38,41.0751322 38,35 C37.9928365,28.9278374 33.0721626,24.0071635 27,24 Z M27,44 C22.0294373,44 18,39.9705627 18,35 C18,30.0294373 22.0294373,26 27,26 C31.9705627,26 36,30.0294373 36,35 C35.9944889,39.9682782 31.9682782,43.9944889 27,44 L27,44 Z M46,4 C43.790861,4 42,5.790861 42,8 C42,10.209139 43.790861,12 46,12 C48.209139,12 50,10.209139 50,8 C50,6.93913404 49.5785726,5.92171839 48.8284271,5.17157288 C48.0782816,4.42142736 47.060866,4 46,4 Z M46,10 C44.8954305,10 44,9.1045695 44,8 C44,6.8954305 44.8954305,6 46,6 C47.1045695,6 48,6.8954305 48,8 C48,9.1045695 47.1045695,10 46,10 Z M8,4 C5.790861,4 4,5.790861 4,8 C4,10.209139 5.790861,12 8,12 C10.209139,12 12,10.209139 12,8 C12,6.93913404 11.5785726,5.92171839 10.8284271,5.17157288 C10.0782816,4.42142736 9.06086596,4 8,4 Z M8,10 C6.8954305,10 6,9.1045695 6,8 C6,6.8954305 6.8954305,6 8,6 C9.1045695,6 10,6.8954305 10,8 C10,9.1045695 9.1045695,10 8,10 Z" id="Shape"></path>
            <rect id="Rectangle" x="34" y="7" width="4" height="2"></rect>
            <rect id="Rectangle" x="25" y="7" width="4" height="2"></rect>
            <rect id="Rectangle" x="16" y="7" width="4" height="2"></rect>
            <circle id="Oval" cx="5" cy="51" r="1"></circle>
            <circle id="Oval" cx="49" cy="51" r="1"></circle>
        </g>
    </g>
</svg>