<?xml version="1.0" encoding="UTF-8"?>
<svg width="1608px" height="1188px" viewBox="0 0 1608 1188" version="1.1" xmlns="http://www.w3.org/2000/svg" xmlns:xlink="http://www.w3.org/1999/xlink">
    <title>ESSENTIALS</title>
    <g id="Page-1" stroke="none" strokeWidth="1" fill="none" fillRule="evenodd">
        <g id="ESSENTIALS" fill="#181818" fillRule="nonzero">
            <ellipse id="Oval" cx="344.2095" cy="887.032" rx="26.748" ry="32.34"></ellipse>
            <path d="M688.3848,774.0469 L788.25,774.0469 C802.0576,774.0469 813.25,762.854 813.25,749.0469 C813.25,735.2398 802.0576,724.0469 788.25,724.0469 L688.3848,724.0469 C674.5772,724.0469 663.3848,735.2398 663.3848,749.0469 C663.3848,762.854 674.5772,774.0469 688.3848,774.0469 Z M1117.7227,243.0991 C1103.9151,243.0991 1092.7227,254.292 1092.7227,268.0991 L1092.7227,367.9638 C1092.7227,381.7709 1103.9151,392.9638 1117.7227,392.9638 C1131.5303,392.9638 1142.7227,381.7709 1142.7227,367.9638 L1142.7227,268.0991 C1142.7227,254.292 1131.5304,243.0991 1117.7227,243.0991 Z M1117.7227,805.5957 C1103.9151,805.5957 1092.7227,816.7886 1092.7227,830.5957 L1092.7227,930.4604 C1092.7227,944.2675 1103.9151,955.4604 1117.7227,955.4604 C1131.5303,955.4604 1142.7227,944.2675 1142.7227,930.4604 L1142.7227,830.5957 C1142.7227,816.7886 1131.5304,805.5957 1117.7227,805.5957 Z M788.2501,1000.6924 L688.3849,1000.6924 C674.5773,1000.6924 663.3849,1011.8853 663.3849,1025.6924 C663.3849,1039.4995 674.5773,1050.6924 688.3849,1050.6924 L788.2501,1050.6924 C802.0577,1050.6924 813.2501,1039.4995 813.2501,1025.6924 C813.2501,1011.8853 802.0577,1000.6924 788.2501,1000.6924 Z M486.9083,278.1465 L779.0792,278.1465 C790.9728,278.1465 801.338,272.4014 806.8067,262.7781 C812.2755,253.1546 811.9053,241.3089 805.8174,231.0891 L739.7637,120.2363 C739.1543,119.2148 738.4766,118.2285 737.7676,117.2592 L737.7676,35.78 C737.7676,16.0508 721.7168,0 701.9883,0 L564.0001,0 C544.2706,0 528.2198,16.0508 528.2198,35.78 L528.2198,117.2612 C527.5118,118.2297 526.8331,119.2158 526.2247,120.2368 L460.172,231.0881 C454.0831,241.3059 453.712,253.1518 459.1808,262.7763 C464.6485,272.4006 475.0138,278.1465 486.9083,278.1465 Z M687.7677,50 L687.7677,98.7729 L578.2198,98.7729 L578.2198,50 L687.7677,50 Z M567.4249,148.7729 L698.5636,148.7729 L745.8605,228.1464 L520.128,228.1464 L567.4249,148.7729 Z" id="Shape"></path>
            <path d="M1572.7139,0 L1040.7774,0 C1021.4786,0 1005.7774,15.7009 1005.7774,35 L1005.7774,586.0627 L454.7735,586.0627 C451.6876,586.0627 448.7012,586.5078 445.8575,587.3261 C443.0137,586.5077 440.0274,586.0627 436.9415,586.0627 L33.918,586.0627 C15.2159,586.0627 0,602.1135 0,621.8427 L0,1152.2197 C0,1171.9492 15.2158,1188 33.918,1188 L436.9415,1188 C440.0274,1188 443.0138,1187.5547 445.8575,1186.7363 C448.7013,1187.5547 451.6876,1188 454.7735,1188 L1021.8604,1188 C1025.0704,1188 1028.1739,1187.5166 1031.1192,1186.6338 C1034.1895,1187.5166 1037.4268,1188 1040.7774,1188 L1572.7139,1188 C1592.0127,1188 1607.7139,1172.2988 1607.7139,1153 L1607.7139,601.0627 L1607.7139,35 C1607.7139,15.7009 1592.0128,0 1572.7139,0 Z M1055.7774,50 L1557.7139,50 L1557.7139,586.0627 L1055.7774,586.0627 L1055.7774,50 Z M1005.7774,862.0313 L470.8575,862.0313 L470.8575,636.0628 L1005.7774,636.0628 L1005.7774,862.0313 L1005.7774,862.0313 Z M50.0001,636.0627 L420.8575,636.0627 L420.8575,876.2514 L420.8575,1138 L50.0001,1138 L50.0001,636.0627 Z M470.8575,912.0313 L1005.7774,912.0313 L1005.7774,1138 L470.8575,1138 L470.8575,912.0313 Z M1055.7774,1138 L1055.7774,876.2515 L1055.7774,636.0628 L1557.7139,636.0628 L1557.7139,1138 L1055.7774,1138 Z" id="Shape"></path>
        </g>
    </g>
</svg>