<?xml version="1.0" encoding="UTF-8"?>
<svg width="42px" height="60px" viewBox="0 0 42 60" version="1.1" xmlns="http://www.w3.org/2000/svg" xmlns:xlink="http://www.w3.org/1999/xlink">
    <title>charging-2973319</title>
    <g id="Page-1" stroke="none" strokeWidth="1" fill="none" fillRule="evenodd">
        <g id="charging-2973319" fill="#181818" fillRule="nonzero">
            <path d="M39,-2.22044605e-16 L3,-2.22044605e-16 C1.34383121,0.00165368949 0.00165368949,1.34383121 -1.77635684e-15,3 L-1.77635684e-15,57 C0.00165368949,58.6561688 1.34383121,59.9983463 3,60 L39,60 C40.6561688,59.9983463 41.9983463,58.6561688 42,57 L42,3 C41.9983463,1.34383121 40.6561688,0.00165368949 39,-2.22044605e-16 Z M40,57 C40,57.5522847 39.5522847,58 39,58 L3,58 C2.44771525,58 2,57.5522847 2,57 L2,3 C2,2.44771525 2.44771525,2 3,2 L39,2 C39.5522847,2 40,2.44771525 40,3 L40,57 Z M36,5 L24.87,5 C24.412854,5 24.0139151,5.31001849 23.901,5.753 C23.5588801,7.07559965 22.3656317,7.99946236 20.9995,7.99946236 C19.6333683,7.99946236 18.4401199,7.07559965 18.098,5.753 C17.9851772,5.31037923 17.5867734,5.0004639 17.13,5 L6,5 C4.89611555,5.00165211 4.00165211,5.89611555 4,7 L4,48 C4.00165211,49.1038844 4.89611555,49.9983479 6,50 L36,50 C37.1038844,49.9983479 37.9983479,49.1038844 38,48 L38,7 C37.9983479,5.89611555 37.1038844,5.00165211 36,5 Z M36,48 L6,48 L6,7 L16.418,7 C17.2135596,8.82142621 19.0124114,9.99868143 21,9.99868143 C22.9875886,9.99868143 24.7864404,8.82142621 25.582,7 L36,6.998 L36,48 Z M21,51 C19.3431458,51 18,52.3431458 18,54 C18,55.6568542 19.3431458,57 21,57 C22.6568542,57 24,55.6568542 24,54 C23.9983463,52.3438312 22.6561688,51.0016537 21,51 Z M21,55 C20.4477153,55 20,54.5522847 20,54 C20,53.4477153 20.4477153,53 21,53 C21.5522847,53 22,53.4477153 22,54 C22,54.5522847 21.5522847,55 21,55 Z M19.5,5 C19.5,4.17157288 20.1715729,3.5 21,3.5 C21.8284271,3.5 22.5,4.17157288 22.5,5 C22.5,5.82842712 21.8284271,6.5 21,6.5 C20.1715729,6.5 19.5,5.82842712 19.5,5 L19.5,5 Z M22,13 L20,13 C18.3431458,13 17,14.3431458 17,16 L16,16 C14.3438312,16.0016537 13.0016537,17.3438312 13,19 L13,42 C13.0016537,43.6561688 14.3438312,44.9983463 16,45 L26,45 C27.6561688,44.9983463 28.9983463,43.6561688 29,42 L29,19 C28.9983463,17.3438312 27.6561688,16.0016537 26,16 L25,16 C25,14.3431458 23.6568542,13 22,13 Z M20,15 L22,15 C22.5522847,15 23,15.4477153 23,16 L19,16 C19,15.4477153 19.4477153,15 20,15 Z M26,18 C26.5522847,18 27,18.4477153 27,19 L27,42 C27,42.5522847 26.5522847,43 26,43 L16,43 C15.4477153,43 15,42.5522847 15,42 L15,19 C15,18.4477153 15.4477153,18 16,18 L26,18 Z M25,25 L17,25 C16.4477153,25 16,25.4477153 16,26 L16,29 C16,29.5522847 16.4477153,30 17,30 L25,30 C25.5522847,30 26,29.5522847 26,29 L26,26 C26,25.4477153 25.5522847,25 25,25 Z M24,28 L18,28 L18,27 L24,27 L24,28 Z M16,20 L16,23 C16,23.5522847 16.4477153,24 17,24 L25,24 C25.5522847,24 26,23.5522847 26,23 L26,20 C26,19.4477153 25.5522847,19 25,19 L17,19 C16.4477153,19 16,19.4477153 16,20 Z M18,21 L24,21 L24,22 L18,22 L18,21 Z M25,31 L17,31 C16.4477153,31 16,31.4477153 16,32 L16,35 C16,35.5522847 16.4477153,36 17,36 L25,36 C25.5522847,36 26,35.5522847 26,35 L26,32 C26,31.4477153 25.5522847,31 25,31 Z M24,34 L18,34 L18,33 L24,33 L24,34 Z M25,37 L17,37 C16.4477153,37 16,37.4477153 16,38 L16,41 C16,41.5522847 16.4477153,42 17,42 L25,42 C25.5522847,42 26,41.5522847 26,41 L26,38 C26,37.4477153 25.5522847,37 25,37 Z M24,40 L18,40 L18,39 L24,39 L24,40 Z" id="Shape"></path>
        </g>
    </g>
</svg>