<?xml version="1.0" encoding="UTF-8"?>
<svg width="1384px" height="1389px" viewBox="0 0 1384 1389" version="1.1" xmlns="http://www.w3.org/2000/svg" xmlns:xlink="http://www.w3.org/1999/xlink">
    <title>pillow-2213483</title>
    <g id="Page-1" stroke="none" strokeWidth="1" fill="none" fillRule="evenodd">
        <g id="pillow-2213483" fill="#181818" fillRule="nonzero">
            <path d="M1307.93867,200.8476 C1347.43577,153.5473 1354.31757,95.2724 1322.35367,63.3071 C1309.10267,50.0542 1291.00407,43.0493 1270.01677,43.0493 C1241.59587,43.0493 1210.02847,56.2739 1183.36637,78.9424 C1020.29507,26.5542 852.228674,0 683.554874,0 C462.363474,0 288.878074,46.0674 197.714074,76.834 C171.605674,55.4815 141.048074,43.0547 113.607674,43.0547 C92.6271736,43.0547 74.5353736,50.0581 61.2883736,63.3062 C29.3235736,95.2701 36.2043736,153.5455 75.7004736,200.8477 C13.8488736,394.3233 -10.2819264,598.4664 3.97587358,807.8584 C15.1496736,971.9443 47.4153736,1103.9463 74.1682736,1189.4478 C58.5549736,1208.7164 47.7551736,1230.3545 43.3088736,1251.5977 C37.1135736,1281.2037 43.4983736,1307.3062 61.2883736,1325.0962 C74.5383736,1338.3467 92.6330736,1345.3501 113.616474,1345.3501 C140.666274,1345.3501 169.941674,1333.7837 195.711174,1313.2275 C290.775674,1343.1845 471.547074,1388.4028 696.278574,1388.4028 C865.173074,1388.4028 1030.31767,1362.9712 1187.39187,1312.7915 C1213.29127,1333.625 1242.75807,1345.3462 1270.02957,1345.3477 C1270.03247,1345.3477 1270.03157,1345.3477 1270.03447,1345.3477 C1291.01007,1345.3477 1309.10287,1338.3448 1322.35287,1325.0962 C1340.14287,1307.3062 1346.52767,1281.2031 1340.33037,1251.5962 C1335.88407,1230.353 1325.08427,1208.7153 1309.46907,1189.4473 C1336.22197,1103.9444 1368.48957,971.9419 1379.66247,807.8584 C1393.92117,598.4658 1369.79127,394.3232 1307.93867,200.8476 Z M1257.57057,1187.6371 C1254.72387,1196.412 1256.94167,1206.0409 1263.33917,1212.6874 C1291.60867,1242.059 1299.14577,1277.5927 1286.99837,1289.7401 C1283.27767,1293.4608 1277.56967,1295.3475 1270.03357,1295.3475 L1270.03257,1295.3475 C1251.90467,1295.3465 1229.05797,1284.307 1210.40957,1266.5365 C1203.73377,1260.1747 1194.09807,1258.0062 1185.33827,1260.8915 C1029.26987,1312.3241 864.725974,1338.4027 696.278674,1338.4027 C467.326574,1338.4027 285.657574,1290.1371 197.743474,1261.3661 C195.194674,1260.5321 192.572574,1260.1259 189.970974,1260.1259 C183.682874,1260.1259 177.514874,1262.5004 172.802074,1266.9511 C154.255174,1284.4682 131.576474,1295.35 113.616574,1295.35 C106.075574,1295.35 100.365574,1293.4633 96.6438736,1289.7411 C84.4954736,1277.5927 92.0305736,1242.0585 120.299174,1212.6864 C126.695674,1206.0404 128.912474,1196.4115 126.066774,1187.6371 C77.8685736,1039.0458 -18.4566264,645.6107 127.699574,202.6083 C130.646874,193.6752 128.330474,183.8441 121.705474,177.1669 C92.1829736,147.413 84.1253736,111.1796 96.6449736,98.661 C100.363774,94.9413 106.071774,93.0546 113.607874,93.0546 C132.240674,93.0546 155.578574,104.5712 174.514174,123.1098 C181.319874,129.7729 191.322774,131.9902 200.306174,128.8266 C283.915574,99.3871 457.876474,49.9999 683.555174,49.9999 C852.613774,49.9999 1021.07277,77.5341 1184.25437,131.8378 C1195.25537,135.4984 1207.33347,131.1142 1213.42327,121.2455 C1214.19967,119.9862 1214.85297,118.6815 1215.38517,117.3436 C1233.03657,102.1898 1253.32557,93.0492 1270.01697,93.0492 C1277.56087,93.0492 1283.27377,94.9374 1286.99747,98.661 C1299.51507,111.18 1291.45747,147.4134 1261.93497,177.1664 C1255.30897,183.8441 1252.99257,193.6752 1255.93987,202.6083 C1402.09597,645.6049 1305.76977,1039.0439 1257.57057,1187.6371 Z" id="Shape"></path>
        </g>
    </g>
</svg>