<?xml version="1.0" encoding="UTF-8"?>
<svg width="413px" height="512px" viewBox="0 0 413 512" version="1.1" xmlns="http://www.w3.org/2000/svg" xmlns:xlink="http://www.w3.org/1999/xlink">
    <title>FIRE_EXTINGUISHER</title>
    <g id="Page-1" stroke="none" strokeWidth="1" fill="none" fillRule="evenodd">
        <g id="FIRE_EXTINGUISHER" fill="#181818" fillRule="nonzero">
            <path d="M410.683868,66.5361493 C409.405521,65.0118999 407.57385,64.0581273 405.592068,63.8847893 L345.912868,58.6617893 L396.453398,28.5913493 C398.163105,27.5739018 399.398557,25.9188931 399.887921,23.9904689 C400.377285,22.0620447 400.080469,20.0182017 399.062778,18.3086393 C388.449096,0.536166032 365.457062,-5.29920376 347.652618,5.26075933 L278.750398,46.2599393 C263.083451,49.2922882 250.897365,61.6523529 248.087398,77.3607093 L222.722898,83.5293493 C187.718863,92.055394 162.48654,122.581806 160.700468,158.564939 C160.680938,158.852539 160.668248,159.148939 160.656528,159.457519 C159.887831,174.994012 153.697574,189.769564 143.162388,201.214359 L131.838168,213.505939 L130.990508,212.658229 C124.644263,206.27594 114.484342,205.769187 107.534508,211.488299 L6.4182482,294.219749 C2.59172502,297.350664 0.268109195,301.95409 0.0217641767,306.892129 C-0.224580842,311.830167 1.62933393,316.641998 5.1252482,320.138209 L35.4602482,350.473649 L35.4612482,350.474139 C38.7462115,353.753521 43.1974842,355.596541 47.8391782,355.599139 C48.1282515,355.599139 48.4176415,355.591806 48.7073482,355.577139 C53.6441695,355.327151 58.2459854,353.00443 61.3792182,349.181139 L144.110668,248.063959 C149.829386,241.114155 149.322648,230.954638 142.940748,224.608389 L142.453438,224.121019 L154.191718,211.380359 C167.11932,197.331505 174.709964,179.193444 175.641918,160.124499 L175.645818,160.021499 C175.651678,159.864269 175.656568,159.703139 175.668288,159.546889 C175.672188,159.488289 175.676098,159.429209 175.679028,159.370129 C177.235049,130.045286 197.767856,105.179321 226.268868,98.1040193 L248.501658,92.6968493 C248.655348,93.3615793 248.811228,94.0255893 248.998358,94.6770093 L248.998358,95.9658393 C249.055884,108.162502 241.046248,118.929441 229.347968,122.380839 C211.337765,127.786234 199.003087,144.362125 198.998358,163.165999 L198.998358,474.065939 C199.021653,494.766961 215.797337,511.542645 236.498358,511.565939 L335.498358,511.565939 C356.199382,511.54265 372.975069,494.766963 372.998358,474.065939 L372.998358,436.085289 L372.999358,436.065939 L372.998358,436.046589 L372.998358,406.085289 L372.999358,406.065939 L372.998358,406.046589 L372.998358,226.085289 L372.999358,226.065939 L372.998358,226.046589 L372.998358,196.085289 L372.999358,196.065939 L372.998358,196.046589 L372.998358,163.166039 C373.085737,144.331767 360.714524,127.706778 342.648748,122.380879 C333.065302,119.506016 325.793756,111.661465 323.652658,101.887879 L371.785468,106.097659 C372.888988,106.193853 373.984692,106.241703 375.072578,106.241209 C394.495064,106.198664 410.683077,91.3583505 412.409498,72.0126993 C412.583572,70.0305469 411.96281,68.0604647 410.683868,66.5361493 Z M132.501248,238.565939 L49.7698082,339.682639 C49.3225576,340.229169 48.6650075,340.561026 47.9596773,340.59619 C47.254347,340.631354 46.5670502,340.366544 46.0676582,339.867209 L15.7317182,309.531269 C15.2326619,309.031737 14.968043,308.344507 15.0032022,307.639273 C15.0383615,306.93404 15.3700218,306.276538 15.9162882,305.829119 L117.032498,223.097679 C118.025324,222.281005 119.47639,222.353329 120.383088,223.264679 L132.333278,235.214879 C133.245607,236.121201 133.318374,237.57293 132.501248,238.565939 L132.501248,238.565939 Z M355.321568,18.1518793 C363.521974,13.289494 373.89377,14.1073346 381.230748,20.1948793 L315.465358,59.3235693 C311.975596,55.1697301 307.652074,51.7953986 302.774928,49.4192093 L355.321568,18.1518793 Z M285.999298,60.5659393 C298.97799,60.5659393 309.499298,71.0872477 309.499298,84.0659393 C309.499298,97.044631 298.97799,107.565939 285.999298,107.565939 C273.020607,107.565939 262.499298,97.044631 262.499298,84.0659393 C262.513919,71.0933086 273.026667,60.5805599 285.999298,60.5659393 Z M357.998298,474.065939 C357.984223,486.486512 347.91887,496.551865 335.498298,496.565939 L236.498298,496.565939 C224.077726,496.551865 214.012373,486.486512 213.998298,474.065939 L213.998298,443.565939 L357.998298,443.565939 L357.998298,474.065939 Z M357.998298,428.565939 L213.998298,428.565939 L213.998298,413.565939 L357.998298,413.565939 L357.998298,428.565939 Z M357.998298,398.565939 L213.998298,398.565939 L213.998298,233.565939 L357.998298,233.565939 L357.998298,398.565939 Z M357.998298,218.565939 L213.998298,218.565939 L213.998298,203.565939 L357.998298,203.565939 L357.998298,218.565939 Z M338.344048,136.750019 C350.044058,140.200341 358.055516,150.968 357.998642,163.166019 L357.998642,188.565939 L213.998338,188.565939 L213.998338,163.166039 C214.002679,150.988319 221.989747,140.253447 233.652638,136.750039 C245.710218,133.189699 255.560701,124.452834 260.535208,112.906599 C275.08047,125.796025 296.963083,125.78443 311.494678,112.879599 C312.803445,115.892329 314.455222,118.744107 316.417288,121.378439 C321.863265,128.747205 329.559953,134.142906 338.344048,136.750019 Z M373.091118,91.1543193 L324.384328,86.8943193 C324.452448,85.9591993 324.499328,85.0181593 324.499328,84.0658893 C324.501485,80.1306355 323.89807,76.2184828 322.710268,72.4667693 L323.850648,71.7882393 L395.528648,78.0610093 C391.569154,86.7296299 382.586073,91.971658 373.091098,91.1543193 L373.091118,91.1543193 Z" id="Shape"></path>
        </g>
    </g>
</svg>