<?xml version="1.0" encoding="UTF-8"?>
<svg width="64px" height="57px" viewBox="0 0 64 57" version="1.1" xmlns="http://www.w3.org/2000/svg" xmlns:xlink="http://www.w3.org/1999/xlink">
    <title>medical-kit</title>
    <g id="Page-1" stroke="none" strokeWidth="1" fill="none" fillRule="evenodd">
        <g id="medical-kit" fill="#181818" fillRule="nonzero">
            <path d="M5.4,56.2 C5.6,56.5 5.9,56.6 6.2,56.6 L57.8,56.6 C58.1,56.6 58.4,56.4 58.6,56.2 L63.8,49 C63.9,48.8 64,48.6 64,48.4 L64,33.5 C64,32.9 63.6,32.5 63,32.5 C62.4,32.5 62,32.9 62,33.5 L62,48 L57.3,54.5 L6.7,54.5 L2,48 L2,20.1 L8.8,20.1 L8.8,24.1 C8.8,26.5 10.8,28.5 13.2,28.5 C15.6,28.5 17.6,26.5 17.6,24.1 L17.6,20.1 L46.6,20.1 L46.6,24.1 C46.6,26.5 48.6,28.5 51,28.5 C53.4,28.5 55.4,26.5 55.4,24.1 L55.4,20.1 L62,20.1 L62,28.5 C62,29.1 62.4,29.5 63,29.5 C63.6,29.5 64,29.1 64,28.5 L64,19.1 C64,18.9 63.9,18.7 63.8,18.6 L58.6,10.4 C58.4,10.1 58.1,9.9 57.8,9.9 L53.7,9.9 L53.7,8.8 C53.7,6.9 52.2,5.3 50.3,5.3 C48.4,5.3 46.8,6.8 46.8,8.8 L46.8,9.9 L43.4,9.9 L43.4,4.8 C43.4,4.6 43.3,4.4 43.2,4.2 L40.4,0.4 C40.2,0.1 39.9,3.55271368e-15 39.6,3.55271368e-15 L24.4,3.55271368e-15 C24.1,3.55271368e-15 23.8,0.2 23.6,0.4 L20.8,4.2 C20.7,4.4 20.6,4.6 20.6,4.8 L20.6,9.9 L17.2,9.9 L17.2,8.8 C17.2,6.9 15.7,5.3 13.7,5.3 C11.7,5.3 10.2,6.8 10.2,8.8 L10.2,9.9 L6.2,9.9 C5.9,9.9 5.5,10.1 5.4,10.4 L0.2,18.6 C0.1,18.7 0,18.9 0,19.1 L0,48.3 C0,48.5 0.1,48.7 0.2,48.9 L5.4,56.2 Z M15.5,24.1 C15.5,25.4 14.4,26.5 13.1,26.5 C11.8,26.5 10.7,25.4 10.7,24.1 L10.7,20.1 L15.4,20.1 L15.4,24.1 L15.5,24.1 Z M53.2,24.1 C53.2,25.4 52.1,26.5 50.8,26.5 C49.5,26.5 48.4,25.4 48.4,24.1 L48.4,20.1 L53.1,20.1 L53.1,24.1 L53.2,24.1 Z M48.7,8.8 C48.7,8 49.4,7.3 50.2,7.3 C51,7.3 51.6,8 51.6,8.8 L51.6,9.9 L48.7,9.9 L48.7,8.8 Z M22.6,5.2 L24.9,2.1 L39,2.1 L41.3,5.2 L41.3,9.9 L22.6,9.9 L22.6,5.2 Z M12.4,8.8 C12.4,8 13.1,7.3 13.9,7.3 C14.7,7.3 15.4,8 15.4,8.8 L15.4,9.9 L12.5,9.9 L12.5,8.8 L12.4,8.8 Z M6.8,11.9 C35.8,11.9 28.3,11.9 57.3,11.9 L61.2,18.1 L2.8,18.1 L6.8,11.9 Z" id="Shape"></path>
            <path d="M9.3,49.6 C8.7,49.6 8.3,50 8.3,50.6 C8.3,51.2 8.7,51.6 9.3,51.6 L17.6,51.6 C18.2,51.6 18.6,51.2 18.6,50.6 C18.6,50 18.2,49.6 17.6,49.6 L9.3,49.6 Z M31,32.2 L31,34.9 L28.7,33.6 C28.2,33.3 27.6,33.5 27.3,34 C27,34.5 27.2,35.1 27.7,35.4 L30,36.7 L27.7,38 C27.2,38.3 27.1,38.9 27.3,39.4 C27.6,39.9 28.2,40 28.7,39.8 L31,38.5 L31,41.2 C31,41.8 31.4,42.2 32,42.2 C32.6,42.2 33,41.8 33,41.2 L33,38.5 L35.3,39.8 C35.8,40.1 36.4,39.9 36.7,39.4 C37,38.9 36.8,38.3 36.3,38 L34,36.6 L36.3,35.3 C36.8,35 36.9,34.4 36.7,33.9 C36.4,33.4 35.8,33.3 35.3,33.5 L33,34.9 L33,32.2 C33,31.6 32.6,31.2 32,31.2 C31.4,31.2 31,31.7 31,32.2 Z" id="Shape"></path>
            <path d="M22,36.6 C22,42.1 26.5,46.6 32,46.6 C37.5,46.6 42,42.1 42,36.6 C42,31.1 37.5,26.6 32,26.6 C26.5,26.6 22,31.1 22,36.6 Z M40,36.6 C40,41 36.4,44.6 32,44.6 C27.6,44.6 24,41 24,36.6 C24,32.2 27.6,28.6 32,28.6 C36.4,28.6 40,32.2 40,36.6 Z" id="Shape"></path>
        </g>
    </g>
</svg>