<svg width="17px" height="28px" viewBox="0 0 17 28" version="1.1" xmlns="http://www.w3.org/2000/svg" xmlns:xlink="http://www.w3.org/1999/xlink">
    <g id="Page-1" stroke="none" stroke-width="1" fill="none" fill-rule="evenodd">
        <g id="garden.d26ef287" transform="translate(1.000000, 1.000000)" stroke="#181818">
            <line x1="7.1998" y1="12.9001" x2="7.1998" y2="26.2001" id="Stroke-1"></line>
            <path d="M12.4,7.3 L12.799,7.3 C13.299,7.1 12.7,6.7 13.099,6.3 C14.4,5 14.5,3.5 13.599,2.7 C12.799,1.9 11.4,1.9 10.099,3 L10.099,2.9 C10.099,1.1 9.099,0 7.9,0 C6.7,0 5.799,1 5.7,2.6 C4.5,1.4 3,1.3 2.1,2.2 C1.299,3.1 1.4,4.6 2.7,5.8 C2.799,5.9 2.9,5.9 2.9,6 C1.1,6 0,7 0,8.3 C0,9.5 1.1,10.5 3,10.5 L3.4,10.5 C3.299,10.7 3.2,10.8 3.2,11 C2.5,12.7 3,14.1 4.2,14.6 C5.299,15.1 6.6,14.401 7.299,12.8 C8,14.3 9.299,14.901 10.4,14.401 C11.299,14 11.799,13 11.599,11.7 C11.799,11.7 12,11.8 12.2,11.8 C14,11.9 15.2,11 15.299,9.8 C15.2,8.5 14.2,7.4 12.4,7.3 Z" id="Stroke-3"></path>
            <path d="M7.3995,6.1003 C8.2285,6.1003 8.8995,6.7713 8.8995,7.6003 C8.8995,8.4283 8.2285,9.1003 7.3995,9.1003 C6.5715,9.1003 5.8995,8.4283 5.8995,7.6003 C5.8995,6.7713 6.5715,6.1003 7.3995,6.1003 Z" id="Stroke-5"></path>
        </g>
    </g>
</svg>