<svg width="27px" height="10px" viewBox="0 0 27 10" version="1.1" xmlns="http://www.w3.org/2000/svg" xmlns:xlink="http://www.w3.org/1999/xlink">
    <g id="Page-1" stroke="none" stroke-width="1" fill="none" fill-rule="evenodd">
        <g id="GYM" transform="translate(1.000000, 1.000000)" stroke="#181818">
            <path d="M23.4375,6.89722803 C22.5745551,6.89722803 21.875,6.54598698 21.875,6.11270921 L21.875,1.88702932 C21.875,1.45375152 22.5745551,1.10251049 23.4375,1.10251049 C24.3004449,1.10251049 25,1.45375152 25,1.88702932 L25,6.11297071 C25,6.54624848 24.3004449,6.89748954 23.4375,6.89748954 L23.4375,6.89722803 Z M1.5625,6.89722803 C2.42544492,6.89722803 3.125,6.54598698 3.125,6.11270921 L3.125,1.88702929 C3.125,1.4537515 2.42544492,1.10251046 1.5625,1.10251046 C0.699555078,1.10251046 0,1.4537515 0,1.88702929 L0,6.11297071 C0,6.54624848 0.699555078,6.89748954 1.5625,6.89748954 L1.5625,6.89722803 Z M4.6875,8 C5.5504449,8 6.25,7.64875894 6.25,7.21548117 L6.25,0.784518828 C6.25,0.351241043 5.5504449,0 4.6875,0 C3.82455508,0 3.125,0.351241043 3.125,0.784518828 L3.125,7.21548117 C3.125,7.64875894 3.82455508,8 4.6875,8 L4.6875,8 Z M20.3125,8 C19.4495551,8 18.75,7.64875894 18.75,7.21548117 L18.75,0.784518828 C18.75,0.351241043 19.4495551,0 20.3125,0 C21.1754449,0 21.875,0.351241043 21.875,0.784518828 L21.875,7.21548117 C21.875,7.64875894 21.1754449,8 20.3125,8 Z M6.25,2.82322176 L18.75,2.82322176 L18.75,5.17677824 L6.25,5.17677824 L6.25,2.82322176 Z" id="Shape"></path>
        </g>
    </g>
</svg>