<?xml version="1.0" encoding="UTF-8"?>
<svg width="64px" height="64px" viewBox="0 0 64 64" version="1.1" xmlns="http://www.w3.org/2000/svg" xmlns:xlink="http://www.w3.org/1999/xlink">
    <title>hair-dryer</title>
    <g id="Page-1" stroke="none" strokeWidth="1" fill="none" fillRule="evenodd">
        <g id="hair-dryer" transform="translate(0.000000, 0.000000)" fill="#181818" fillRule="nonzero">
            <path d="M56.1945357,19.5509101 C50.4005357,16.3959101 35.1065357,11.9669101 28.1185357,10.7999101 L22.9045357,2.35591011 C22.7176687,2.05211572 22.3830124,1.87099105 22.0264786,1.88031251 C21.6699448,1.89037461 21.3456226,2.08941252 21.1755357,2.40291011 L10.0115357,22.9109101 C9.84653568,23.2139101 9.84853568,23.5809101 10.0185357,23.8819101 C10.1885357,24.1819101 10.5025357,24.3739101 10.8485357,24.3879101 L20.5155357,24.7899101 C25.1225357,29.8459101 31.7105357,35.4859101 37.1435357,39.5659101 L34.5485357,44.3319101 C33.8647185,45.5963651 34.2032942,47.1704452 35.3465357,48.0419101 L33.2685357,51.8579101 L32.3195357,51.3409101 C32.0053994,51.1646226 31.6207264,51.1709105 31.3125197,51.3573709 C31.0043129,51.5438312 30.8202081,51.8816452 30.8305611,52.241717 C30.840914,52.6017888 31.0441246,52.9284665 31.3625357,53.0969101 L32.3125357,53.6139101 L30.4935357,56.9539101 C29.5847546,58.6009651 29.8728549,60.6502673 31.2005357,61.9829101 C30.6555357,62.0369101 30.0435357,61.7799101 29.5545357,61.5369101 C25.7865357,59.6549101 23.1175357,56.0569101 22.7545357,52.3689101 C22.5725357,50.4949101 22.9055357,48.4439101 22.2175357,46.4289101 C21.2705357,43.6549101 18.7785357,41.9739101 16.1715357,40.5489101 C16.5637572,38.7858132 15.7349938,36.9770819 14.1435357,36.1229101 L12.6995357,35.3329101 L12.8775357,35.0059101 C13.0538232,34.6917738 13.0475353,34.3071009 12.8610749,33.9988941 C12.6746145,33.6906873 12.3368006,33.5065826 11.9767288,33.5169355 C11.616657,33.5272885 11.2899793,33.730499 11.1215357,34.0489101 L10.4715357,35.2429101 C10.4695357,35.2459101 10.4665357,35.2479101 10.4655357,35.2509101 L10.3625357,35.4389101 L8.71053568,34.5389101 C8.39639941,34.3626226 8.01172643,34.3689105 7.70351967,34.5553709 C7.39531291,34.7418312 7.21120814,35.0796452 7.22156109,35.439717 C7.23191403,35.7997888 7.43512456,36.1264665 7.75353568,36.2949101 L9.40553568,37.1949101 L8.56353568,38.7389101 L6.91353568,37.8399101 C6.59939941,37.6636226 6.21472643,37.6699105 5.90651967,37.8563709 C5.59831291,38.0428312 5.41420814,38.3806452 5.42414636,38.740717 C5.43491403,39.1007888 5.63812456,39.4274665 5.95653568,39.5959101 L7.60653568,40.4949101 L6.85353568,41.8869101 C6.67724815,42.2010464 6.68353604,42.5857194 6.86999643,42.8939261 C7.05645681,43.2021329 7.39427078,43.3862376 7.75434258,43.3758847 C8.11441438,43.3655318 8.44109208,43.1623212 8.60953568,42.8439101 L8.78753568,42.5189101 L10.2375357,43.3089101 C11.9555357,44.2379101 14.0605357,43.8089101 15.3005357,42.3499101 C17.5915357,43.6059101 19.6075357,44.9739101 20.3245357,47.0759101 C20.8705357,48.6749101 20.5775357,50.6359101 20.7645357,52.5639101 C21.1995357,56.9869101 24.2245357,61.1109101 28.6615357,63.3259101 C30.2255357,64.1079101 32.0665357,64.3839101 33.2855357,63.1779101 C35.1629561,63.6201215 37.1039717,62.7503925 38.0235357,61.0549101 L42.8835357,52.1329101 C44.2313825,52.634803 45.7428822,52.0653761 46.4245357,50.7989101 L49.4275357,45.2839101 C54.5575357,45.3589101 59.2335357,42.6309101 61.6805357,38.1359101 C65.2935357,31.5029101 62.8305357,23.1659101 56.1935357,19.5509101 L56.1945357,19.5509101 Z M11.1905357,41.5509101 L9.74253568,40.7609101 L11.7425357,37.0879101 L13.1875357,37.8779101 C14.1996985,38.4302297 14.5733386,39.6979211 14.0225357,40.7109101 C13.4671763,41.7183623 12.2053924,42.0926202 11.1905357,41.5509101 L11.1905357,41.5509101 Z M22.1085357,4.87191011 L26.3675357,11.7699101 L20.3725357,22.7799101 L12.5345357,22.4549101 L22.1085357,4.87191011 Z M22.1945357,23.6659101 L28.0995357,12.8229101 C33.5095357,13.7519101 39.6915357,15.4929101 44.8835357,17.2249101 C38.6555357,21.6529101 35.3385357,27.7439101 34.9985357,35.3779101 C30.7265357,31.9559101 25.9085357,27.7079101 22.1945357,23.6659101 Z M36.2665357,60.0959101 C35.6623361,61.2057263 34.2728519,61.6156096 33.1630357,61.0114101 C32.0532195,60.4072106 31.6433362,59.0177263 32.2475357,57.9079101 L37.0805357,49.0369101 L41.0975357,51.2249101 L36.2675357,60.0959101 L36.2665357,60.0959101 Z M44.6695357,49.8409101 C44.5527991,50.0559612 44.3553651,50.2157881 44.1207204,50.2851875 C43.8860757,50.3545868 43.6334677,50.3278658 43.4185357,50.2109101 L36.6735357,46.5379101 C36.4584846,46.4211736 36.2986576,46.2237395 36.2292583,45.9890949 C36.159859,45.7544502 36.18658,45.5018421 36.3035357,45.2869101 L38.7665357,40.7629101 C40.5945357,42.0839101 42.1115357,43.0849101 43.0895357,43.6179101 C44.3960905,44.3228578 45.8084849,44.8108802 47.2715357,45.0629101 L44.6695357,49.8409101 L44.6695357,49.8409101 Z M59.9265357,37.1789101 C56.8315357,42.8609101 49.7345357,44.9609101 44.0465357,41.8629101 C42.6215357,41.0869101 40.0235357,39.2889101 36.9715357,36.9319101 C36.9005357,28.6589101 40.2695357,22.4709101 47.2575357,18.0409101 C50.8925357,19.3249101 53.8135357,20.5319101 55.2375357,21.3069101 C60.9075357,24.3949101 63.0105357,31.5149101 59.9265357,37.1789101 L59.9265357,37.1789101 Z" id="Shape"></path>
            <path d="M54.1185357,25.0369101 C52.2814801,24.0363043 50.1220099,23.8070098 48.1157944,24.3995336 C46.1095789,24.9920574 44.4211915,26.3577938 43.4225357,28.1959101 C41.3365357,32.0209101 42.7425357,36.8169101 46.5725357,38.9019101 C50.4285357,41.0039101 55.2065357,39.5439101 57.2775357,35.7419101 C59.3608807,31.9134271 57.9466409,27.1209493 54.1185357,25.0369101 L54.1185357,25.0369101 Z M55.5215357,34.7859101 C53.9634454,37.6416181 50.3878693,38.6973368 47.5285357,37.1459101 C46.1567467,36.3978187 45.1384228,35.1353073 44.6976866,33.6362417 C44.2569505,32.1371762 44.4299234,30.5244149 45.1785357,29.1529101 C45.9235434,27.7806817 47.1835083,26.7609133 48.6808716,26.3182505 C50.1782349,25.8755877 51.7901532,26.0463464 53.1615357,26.7929101 C56.0195626,28.3491274 57.0759268,31.9268896 55.5215357,34.7859101 L55.5215357,34.7859101 Z M7.81453568,2.20891011 C8.04653568,1.92891011 8.66953568,1.92491011 9.14853568,2.19691011 C10.3095357,2.85691011 11.3355357,5.23391011 13.3745357,6.23191011 C14.7555357,6.90791011 16.2715357,6.76791011 17.2665357,6.00291011 C17.5630833,5.79003502 17.7200729,5.43248441 17.6761045,5.07009911 C17.6321362,4.70771381 17.3941968,4.39808011 17.0553464,4.26229815 C16.7164961,4.12651618 16.330581,4.18616294 16.0485357,4.41791011 C15.6275357,4.73891011 14.8905357,4.74791011 14.2545357,4.43691011 C12.6835357,3.66591011 11.8325357,1.42391011 10.1385357,0.459910108 C8.99853568,-0.191089892 7.25853568,-0.248089892 6.27853568,0.927910108 C6.03953047,1.20110821 5.96733627,1.58236842 6.0899128,1.92403446 C6.21248934,2.2657005 6.51058627,2.51411461 6.86875519,2.57306978 C7.22692411,2.63202495 7.58891553,2.49226243 7.81453568,2.20791011 L7.81453568,2.20891011 Z M4.78153568,7.77591011 C5.01453568,7.49791011 5.63753568,7.49091011 6.11653568,7.76391011 C7.27853568,8.42491011 8.30253568,10.7989101 10.3425357,11.7999101 C10.9355357,12.0899101 11.5665357,12.2339101 12.1765357,12.2339101 C12.9365357,12.2339101 13.6625357,12.0099101 14.2345357,11.5699101 C14.5263966,11.3551786 14.6792669,10.9993658 14.6341256,10.6398457 C14.5889842,10.2803257 14.3528943,9.97335069 14.0170067,9.83743932 C13.681119,9.70152794 13.2979883,9.75794554 13.0155357,9.98491011 C12.5955357,10.3079101 11.8575357,10.3149101 11.2235357,10.0039101 C9.67353568,9.24391011 8.77853568,6.97791011 7.10653568,6.02591011 C5.96353568,5.37591011 4.22653568,5.32191011 3.24653568,6.49391011 C2.89784157,6.918205 2.956574,7.54431004 3.3780934,7.89635425 C3.7996128,8.24839847 4.42616344,8.19462757 4.78153568,7.77591011 Z M11.2035357,17.1379101 C11.4868473,16.9201567 11.632468,16.5677994 11.5855438,16.2135676 C11.5386197,15.8593359 11.3062796,15.557046 10.9760438,15.4205676 C10.6458081,15.2840893 10.2678473,15.3341567 9.98453568,15.5519101 C9.56553568,15.8759101 8.82753568,15.8819101 8.19053568,15.5709101 C7.26553568,15.1169101 6.61453568,14.1829101 6.15153568,13.6199101 C5.60253568,12.9119101 4.98153568,12.1099101 4.07553568,11.5929101 C2.93253568,10.9429101 1.19553568,10.8879101 0.215535676,12.0619101 C-0.120549296,12.4870697 -0.0567912337,13.1025727 0.359304589,13.4498162 C0.775400413,13.7970597 1.39237801,13.7496494 1.75053568,13.3429101 C1.98253568,13.0659101 2.60653568,13.0579101 3.08553568,13.3319101 C3.64553568,13.6499101 4.09553568,14.2309101 4.57153568,14.8449101 C4.67153568,14.9109101 7.96453568,19.6249101 11.2035357,17.1379101 Z" id="Shape"></path>
        </g>
    </g>
</svg>