
<svg width="13px" height="25px" viewBox="0 0 13 25" version="1.1" xmlns="http://www.w3.org/2000/svg" xmlns:xlink="http://www.w3.org/1999/xlink">
    <g id="Page-1" stroke="none" stroke-width="1" fill="none" fill-rule="evenodd">
        <g id="heating.00982edf" transform="translate(1.000000, 1.000000)" stroke="#181818">
            <path d="M7.988,13.126 L7.988,2.282 C7.988,1.021 6.966,0 5.706,0 L5.25,0 C3.989,0 2.967,1.021 2.967,2.282 L2.967,13.126 C1.206,14.036 0,15.874 0,17.993 C0,21.018 2.453,23.47 5.478,23.47 C8.502,23.47 10.9540006,21.018 10.9540006,17.993 C10.955,15.874 9.75,14.036 7.988,13.126 L7.988,13.126 Z" id="Stroke-1"></path>
            <path d="M5.3504,20.1037 C6.4844,20.1037 7.4044,19.1837 7.4044,18.0497 C7.4044,16.9157 6.4844,15.9957 5.3504,15.9957 C4.2164,15.9957 3.2964,16.9157 3.2964,18.0497 C3.2964,19.1837 4.2164,20.1037 5.3504,20.1037 L5.3504,20.1037 Z" id="Stroke-3"></path>
            <line x1="5.4777" y1="15.8636" x2="5.4777" y2="2.5196" id="Stroke-5"></line>
        </g>
    </g>
</svg>