<?xml version="1.0" encoding="UTF-8"?>
<svg width="25px" height="25px" viewBox="0 0 25 25" version="1.1" xmlns="http://www.w3.org/2000/svg" xmlns:xlink="http://www.w3.org/1999/xlink">
    <title>HOT_TUB</title>
    <g id="Page-1" stroke="none" strokeWidth="1" fill="none" fillRule="evenodd">
        <g id="HOT_TUB" fill="#181818" fillRule="nonzero">
            <path d="M13.74,16.6279838 C12.6963551,15.8816928 11.2936449,15.8816928 10.25,16.6279838 C10.0097561,16.766055 9.92692881,17.0727399 10.065,17.3129838 C10.2030712,17.5532277 10.5097561,17.636055 10.75,17.4979838 C11.4787863,16.9183033 12.5112137,16.9183033 13.24,17.4979838 C13.7406971,17.8373639 14.3257153,18.0312161 14.93,18.0579838 C15.5813402,18.0343543 16.2139595,17.833852 16.76,17.4779838 C16.916996,17.3885202 17.0135066,17.2213099 17.012449,17.0406158 C17.0113739,16.8599218 16.9128966,16.6938621 16.7548557,16.6062577 C16.5968148,16.5186532 16.4038031,16.5231362 16.25,16.6179838 C15.5198269,17.2112641 14.4748771,17.2154272 13.74,16.6279838 L13.74,16.6279838 Z M11.93,15.0579838 C12.5813402,15.0343543 13.2139595,14.833852 13.76,14.4779838 C13.916996,14.3885202 14.0135066,14.2213099 14.012449,14.0406158 C14.0113739,13.8599218 13.9128966,13.6938621 13.7548557,13.6062577 C13.5968148,13.5186532 13.4038031,13.5231362 13.25,13.6179838 C12.5174728,14.2083396 11.4725272,14.2083396 10.74,13.6179838 C9.69635512,12.8716928 8.29364488,12.8716928 7.25,13.6179838 C7.09458946,13.7073002 6.99863393,13.8727425 6.99827794,14.0519902 C6.99792393,14.2312378 7.0932234,14.3970589 7.24827894,14.4869902 C7.40333448,14.5769214 7.59458947,14.5773002 7.75,14.4879838 C8.47878629,13.9083033 9.51121371,13.9083033 10.24,14.4879838 C10.7396345,14.8309089 11.324733,15.0282498 11.93,15.0579838 L11.93,15.0579838 Z" id="Shape"></path>
            <path d="M20,8.76798381 L20,6.05798381 C20,4.95341431 20.8954305,4.05798381 22,4.05798381 C23.1045695,4.05798381 24,4.95341431 24,6.05798381 L25,6.05798381 C25,4.40112959 23.6568542,3.05798389 22,3.05798389 C20.3431458,3.05798389 19,4.40112959 19,6.05798381 L19,7.74798381 L16,6.25798381 L16,3.25798381 C15.9975411,2.30340942 16.597692,1.4511825 17.4972666,1.13183351 C18.3968413,0.812484512 19.4000144,1.09553143 20,1.83798381 L20.77,1.19798381 C19.8985014,0.127773053 18.4461102,-0.275280255 17.1477294,0.192766901 C15.8493486,0.660814057 14.9881917,1.89786735 15,3.27798381 L15,7.27798381 C14.1728767,7.14595489 13.3374698,7.07243909 12.5,7.05798381 C5.61,7.05798381 0,10.8679838 0,15.5579838 C0,20.2479838 5.61,24.0579838 12.5,24.0579838 C19.39,24.0579838 25,20.2479838 25,15.5579838 C25,12.8679838 23.13,10.3579838 20,8.76798381 Z M16,13.0579838 L16,11.3779838 L19,12.8679838 L19,15.5579838 L20,15.5579838 L20,13.7179838 C20.550123,14.185967 20.9065568,14.8418051 21,15.5579838 C21,17.1479838 17.77,20.0579838 12.5,20.0579838 C7.23,20.0579838 4,17.1479838 4,15.5579838 C4,13.9679838 7.23,11.0579838 12.5,11.0579838 C13.3464615,11.062401 14.190468,11.1494811 15.02,11.3179838 L15.02,13.0579838 L16,13.0579838 Z M19,8.86798381 L19,11.7479838 L16,10.2579838 L16,7.37798381 L19,8.86798381 Z M12.5,23.0579838 C6.16,23.0579838 1,19.6979838 1,15.5579838 C1,11.4179838 6.16,8.05798381 12.5,8.05798381 C13.3371509,8.06230568 14.1728094,8.12915836 15,8.25798381 L15,10.2579838 C14.1743283,10.1166586 13.3376386,10.0497234 12.5,10.0579838 C6.7,10.0579838 3,13.3179838 3,15.5579838 C3,17.7979838 6.7,21.0579838 12.5,21.0579838 C18.3,21.0579838 22,17.7979838 22,15.5579838 C21.8392399,14.2560018 21.1059022,13.0936616 20,12.3879838 L20,9.89798381 C22.51,11.3079838 24,13.3779838 24,15.5579838 C24,19.6979838 18.84,23.0579838 12.5,23.0579838 Z" id="Shape"></path>
        </g>
    </g>
</svg>