<?xml version="1.0" encoding="UTF-8"?>
<svg width="48px" height="48px" viewBox="0 0 48 48" version="1.1" xmlns="http://www.w3.org/2000/svg" xmlns:xlink="http://www.w3.org/1999/xlink">
    <title>fireplace</title>
    <g id="Page-1" stroke="none" strokeWidth="1" fill="none" fillRule="evenodd">
        <g id="fireplace" fill="#181818" fillRule="nonzero">
            <path d="M47,0 L1,0 C0.4477539,0 0,0.4472656 0,1 L0,6.9853516 C0,7.538086 0.4477539,7.9853516 1,7.9853516 L3.3745117,7.9853516 L3.3745117,46 L1,46 C0.4477539,46 0,46.4472656 0,47 C0,47.5527344 0.4477539,48 1,48 L4.3745117,48 L43.625,48 L47,48 C47.5527344,48 48,47.5527344 48,47 C48,46.4472656 47.5527344,46 47,46 L44.625,46 L44.625,7.9853516 L47,7.9853516 C47.5527344,7.9853516 48,7.538086 48,6.9853516 L48,1 C48,0.4472656 47.5527344,0 47,0 Z M27.4960938,44.0019531 C26.8339844,44.9059448 25.8832398,45.5249023 24.8084107,45.8127441 C24.2230225,45.9107666 23.6276246,45.9657592 23.0212403,45.9733886 C22.850525,45.9605102 22.6799317,45.9499511 22.5078126,45.9208984 L22.4962159,45.9898681 C22.4724122,45.9891357 22.4487916,45.9886474 22.4249268,45.9877319 L22.4321289,45.9072265 C21.1899414,45.6835937 20.2231445,44.8154296 19.8457031,43.5839843 C19.4594726,42.3222655 19.7841797,41.0283202 20.7148437,40.1210937 C20.8867187,39.9541015 21.0605468,39.790039 21.2338867,39.6259765 C22.5336914,38.3984374 23.9624023,37.0478515 24.5083008,34.4169921 L27.8710938,39.8291015 C28.5722656,41.1982422 28.4355469,42.7197266 27.4960938,44.0019531 Z M29.6103516,38.8457031 L24.5678711,30.7226562 C24.3271484,30.3349609 23.8520508,30.1562499 23.4204102,30.2958984 C22.9848633,30.4316406 22.6967774,30.8447265 22.7197266,31.2998047 C22.9174805,35.2841797 21.5004883,36.6230469 19.8603516,38.1728516 C19.6791993,38.34375 19.4985352,38.5146485 19.319336,38.6894532 C17.8632813,40.107422 17.3325196,42.2080079 17.9335938,44.169922 C18.008545,44.4146119 18.0999756,44.6506349 18.2055054,44.8777467 C16.5695191,43.9300538 15.3286743,42.3981935 14.7353516,40.4609376 C13.8642578,37.616211 14.6293946,34.5751954 16.7319336,32.5263673 C17.0800781,32.1875001 17.4311524,31.8554689 17.7822266,31.5244142 C20.8041993,28.6679689 23.9145508,25.7294923 24.4077149,18.9599611 L32.631836,32.2021486 C34.1894532,35.2441408 33.8779298,38.754883 31.7998047,41.5937502 C31.2753906,42.3101809 30.6565552,42.9301149 29.9866943,43.482239 C30.491394,41.9849854 30.3862915,40.3563232 29.6103516,38.8457031 Z M42.625,46 L29.9254761,46 C31.2645264,45.1627808 32.4542237,44.085083 33.413086,42.7753906 C35.9482423,39.3134765 36.3212891,35.0195312 34.3710938,31.21875 L24.2856445,14.9726563 C24.0449218,14.584961 23.5717773,14.40625 23.1381836,14.5458985 C22.7026367,14.6816407 22.4145508,15.0947266 22.4375,15.5498048 C22.8564453,23.9775392 19.7246094,26.9365236 16.4086914,30.0703126 C16.050293,30.4091798 15.6914062,30.748047 15.3364258,31.0947267 C12.6948242,33.6679689 11.7314453,37.4814455 12.8232422,41.0468751 C13.4533081,43.1045532 14.6716919,44.7965088 16.2914429,46 L5.3745117,46 L5.3745117,7.9853516 L42.625,7.9853516 L42.625,46 Z M46,5.9853516 L43.625,5.9853516 L4.3745117,5.9853516 L2,5.9853516 L2,2 L46,2 L46,5.9853516 Z" id="Shape"></path>
        </g>
    </g>
</svg>