<?xml version="1.0" encoding="UTF-8"?>
<svg width="60px" height="60px" viewBox="0 0 60 60" version="1.1" xmlns="http://www.w3.org/2000/svg" xmlns:xlink="http://www.w3.org/1999/xlink">
    <g id="Page-1" stroke="none" strokeWidth="1" fill="none" fillRule="evenodd">
        <g id="clothes-iron-2081867" fill="#181818" fillRule="nonzero">
            <path d="M59,44 L1,44 C0.44771525,44 0,44.4477153 0,45 L0,59 C0,59.5522847 0.44771525,60 1,60 L59,60 C59.5522847,60 60,59.5522847 60,59 L60,45 C60,44.4477153 59.5522847,44 59,44 Z M6,46 L54,46 L54,51 C54,51.5522847 53.5522847,52 53,52 L7,52 C6.44771525,52 6,51.5522847 6,51 L6,46 Z M58,58 L2,58 L2,46 L4,46 L4,51 C4,52.6568542 5.34314575,54 7,54 L53,54 C54.6568542,54 56,52.6568542 56,51 L56,46 L58,46 L58,58 Z M51.5,14 L44,14 C42.8954305,14 42,13.1045695 42,12 C42,10.8954305 42.8954305,10 44,10 L53,10 C54.6568542,10 56,8.65685425 56,7 C56,5.34314575 54.6568542,4 53,4 L33,4 L33,3 C33,1.34314575 31.6568542,-4.4408921e-16 30,-4.4408921e-16 L28,-4.4408921e-16 C27.4477153,-4.4408921e-16 27,0.44771525 27,1 L27,2 L24,2 L24,4 L27,4 L27,6 L24,6 L24,8 L27,8 L27,9 C27,9.55228475 27.4477153,10 28,10 L30,10 C31.6568542,10 33,8.65685425 33,7 L33,6 L53,6 C53.5522847,6 54,6.44771525 54,7 C54,7.55228475 53.5522847,8 53,8 L44,8 C41.790861,8 40,9.790861 40,12 C40,14.209139 41.790861,16 44,16 L51.5,16 C54.9668393,16.0350682 57.7959282,18.7849263 57.9294329,22.2493716 C58.0629375,25.7138168 55.4538593,28.6732382 52,28.975 L52,23 C52,21.3431458 50.6568542,20 49,20 L22.085,20 C14.8383966,19.9766857 8.09794387,23.7125498 4.277,29.87 L0.152,36.47 C0.135628946,36.5025571 0.120942888,36.5359345 0.108,36.57 C0.095,36.597 0.082,36.624 0.071,36.653 C0.0274829923,36.7602179 0.00343977332,36.8743385 0,36.99 L0,37 L0,39 C0,40.6568542 1.34314575,42 3,42 L49,42 C50.6568542,42 52,40.6568542 52,39 L52,30.975 C56.5843777,30.7022171 60.1219476,26.8353816 59.9867342,22.2448863 C59.8515208,17.6543911 56.0924855,14.0024776 51.5,14 Z M31,7 C31,7.55228475 30.5522847,8 30,8 L29,8 L29,2 L30,2 C30.5522847,2 31,2.44771525 31,3 L31,7 Z M33.141,21.9999964 L43,21.9999964 C44.6568542,21.9999964 46,23.3431458 46,24.9999964 L46,25.9999964 L28.869,25.9999964 L30.645,23.336 C31.200224,22.5001768 32.13757,21.9984564 33.141,21.9999964 L33.141,21.9999964 Z M16.0000445,22.992 L16.0000445,23 C16.0073219,24.7361847 15.1097135,26.3508045 13.6312115,27.2609818 C12.1527095,28.171159 10.3068544,28.2454365 8.76,27.457 C10.8005176,25.4350835 13.2772388,23.9076581 16.0000445,22.992 L16.0000445,22.992 Z M50,39 C50,39.5522847 49.5522847,40 49,40 L3,40 C2.44771525,40 2,39.5522847 2,39 L2,38 L50,38 L50,39 Z M50,36 L21.414,36 L23.414,34 L50,34 L50,36 Z M50,32 L23,32 C22.7348052,32.0000566 22.4804927,32.1054506 22.293,32.293 L18.586,36 L2.8,36 L5.969,30.931 C6.39429113,30.2500374 6.86187579,29.5964208 7.369,28.974 C9.52694654,30.2968641 12.2318424,30.3482266 14.4384542,29.1082399 C16.645066,27.8682531 18.0077752,25.5311346 18,23 C18,22.816 17.985,22.635 17.971,22.453 C19.3219431,22.1538315 20.701329,22.0019448 22.085,22 L29.153,22 C29.096,22.076 29.034,22.147 28.98,22.227 L26.168,26.445 C25.9632678,26.7518587 25.9440981,27.1465085 26.118126,27.471765 C26.292154,27.7970216 26.6311131,28.0000552 27,28 L47,28 C47.5522847,28 48,27.5522847 48,27 L48,25 C47.9963232,23.9145307 47.6358067,22.8603889 46.974,22 L49,22 C49.5522847,22 50,22.4477153 50,23 L50,32 Z" id="Shape"></path>
        </g>
    </g>
</svg>