
<svg width="27px" height="43px" viewBox="0 0 27 43" version="1.1" xmlns="http://www.w3.org/2000/svg" xmlns:xlink="http://www.w3.org/1999/xlink">
    <g id="Page-1" stroke="none" stroke-width="1" fill="none" fill-rule="evenodd">
        <g id="listing_guests.b6f69025" transform="translate(1.000000, 0.000000)" stroke="#181818">
            <path d="M7.2279,41.0623 L7.2279,41.4933 C7.2279,42.0493 6.7769,42.5003 6.2199,42.5003 C5.6649,42.5003 5.2139,42.0493 5.2139,41.4933 L5.2139,41.0543" id="Stroke-1"></path>
            <path d="M19.7869,41.0623 L19.7869,41.4933 C19.7869,42.0493 19.3359,42.5003 18.7799,42.5003 C18.2239,42.5003 17.7729,42.0493 17.7729,41.4933 L17.7729,41.0543" id="Stroke-3"></path>
            <path d="M25,39.4513 C25,40.5543 24.083,41.4493 22.951,41.4493 L2.048,41.4493 C0.918,41.4493 0,40.5553 0,39.4513 L0,8.4473 C0,7.3443 0.918,6.4493 2.048,6.4493 L22.951,6.4493 C24.082,6.4493 25,7.3443 25,8.4473 L25,13.4513 L25,39.4513 Z" id="Stroke-11"></path>
            <path d="M22,36.4513 C22,37.5543 21.083,38.4493 19.951,38.4493 L5.048,38.4493 C3.918,38.4493 3,37.5553 3,36.4513 L3,23.4473 C3,22.3443 3.918,21.4493 5.048,21.4493 L19.951,21.4493 C21.082,21.4493 22,22.3443 22,23.4473 L22,28.4513 L22,36.4513 Z" id="Stroke-11"></path>
            <path d="M22,16.4513 C22,17.5543 21.083,18.4493 19.951,18.4493 L5.048,18.4493 C3.918,18.4493 3,17.5553 3,16.4513 L3,11.4473 C3,10.3443 3.918,9.4493 5.048,9.4493 L19.951,9.4493 C21.082,9.4493 22,10.3443 22,11.4473 L22,16.4513 L22,16.4513 Z" id="Stroke-11"></path>
            <line x1="5.8386" y1="24.4495" x2="19.0866" y2="24.4495" id="Stroke-13"></line>
            <line x1="5.8386" y1="12.4495" x2="19.0866" y2="12.4495" id="Stroke-13"></line>
            <line x1="16.1101" y1="6.3005" x2="16.1101" y2="0.6035" id="Stroke-17"></line>
            <line x1="9.1101" y1="6.3005" x2="9.1101" y2="0.6035" id="Stroke-17"></line>
            <line x1="8" y1="0.5" x2="17" y2="0.5" id="Line" stroke-linecap="square"></line>
        </g>
    </g>
</svg>