<?xml version="1.0" encoding="UTF-8"?>
<svg width="60px" height="40px" viewBox="0 0 60 40" version="1.1" xmlns="http://www.w3.org/2000/svg" xmlns:xlink="http://www.w3.org/1999/xlink">
    <title>microwave-2081850</title>
    <g id="Page-1" stroke="none" strokeWidth="1" fill="none" fillRule="evenodd">
        <g id="microwave-2081850" fill="#181818" fillRule="nonzero">
            <path d="M59,0 L1,0 C0.44771525,0 0,0.44771525 0,1 L0,35 C0,35.5522847 0.44771525,36 1,36 L5,36 L5,37 C5,38.6568542 6.34314575,40 8,40 L12,40 C13.6568542,40 15,38.6568542 15,37 L15,36 L45,36 L45,37 C45,38.6568542 46.3431458,40 48,40 L52,40 C53.6568542,40 55,38.6568542 55,37 L55,36 L59,36 C59.5522847,36 60,35.5522847 60,35 L60,1 C60,0.44771525 59.5522847,0 59,0 Z M13,37 C13,37.5522847 12.5522847,38 12,38 L8,38 C7.44771525,38 7,37.5522847 7,37 L7,36 L13,36 L13,37 Z M43,34 L2,34 L2,2 L43,2 L43,34 Z M53,37 C53,37.5522847 52.5522847,38 52,38 L48,38 C47.4477153,38 47,37.5522847 47,37 L47,36 L53,36 L53,37 Z M58,34 L45,34 L45,2 L58,2 L58,34 Z" id="Shape"></path>
            <path d="M5,32 L39,32 C39.5522847,32 40,31.5522847 40,31 L40,5 C40,4.44771525 39.5522847,4 39,4 L5,4 C4.44771525,4 4,4.44771525 4,5 L4,31 C4,31.5522847 4.44771525,32 5,32 Z M6,6 L38,6 L38,30 L6,30 L6,6 Z M52,24 C54.209139,24 56,22.209139 56,20 C56,17.790861 54.209139,16 52,16 C49.790861,16 48,17.790861 48,20 C48,22.209139 49.790861,24 52,24 Z M51,18.278 L51,20 L53,20 L53,18.278 C53.783936,18.7306057 54.1661376,19.6533219 53.9318517,20.5276889 C53.6975657,21.4020559 52.9052114,22.0100508 52,22.0100508 C51.0947886,22.0100508 50.3024343,21.4020559 50.0681483,20.5276889 C49.8338624,19.6533219 50.216064,18.7306057 51,18.278 Z M52,12 C54.209139,12 56,10.209139 56,8 C56,5.790861 54.209139,4 52,4 C49.790861,4 48,5.790861 48,8 C48,10.209139 49.790861,12 52,12 Z M52,5.99997447 C52.7113268,6.002145 53.3675874,6.38324874 53.722,7 L52,7 L52,9 L53.722,9 C53.2360644,9.84163686 52.2154392,10.2121337 51.3027625,9.87820656 C50.3900859,9.54427945 49.8495579,8.60259305 50.0215228,7.64608165 C50.1934878,6.68957025 51.0281655,5.99512314 52,5.99997447 Z" id="Shape"></path>
            <rect id="Rectangle" x="50" y="30" width="4" height="2"></rect>
            <path d="M31.745,13.416 L29.266,10.369 C29.0761082,10.1353734 28.7910653,9.99973291 28.49,9.99973291 C28.1889347,9.99973291 27.9038918,10.1353734 27.714,10.369 L25.24,13.414 L22.768,10.37 C22.57169,10.1467477 22.2887864,10.0187911 21.9915,10.0187911 C21.6942136,10.0187911 21.41131,10.1467477 21.215,10.37 L18.742,13.413 L16.273,10.37 C16.0831082,10.1363734 15.7980653,10.0007329 15.497,10.0007329 C15.1959347,10.0007329 14.9108918,10.1363734 14.721,10.37 L12.249,13.414 L9.776,10.37 L8.224,11.63 L11.473,15.63 C11.6691256,15.8532082 11.9518685,15.9811547 12.249,15.9811547 C12.5461315,15.9811547 12.8288744,15.8532082 13.025,15.63 L15.5,12.587 L17.969,15.63 C18.1588815,15.8639929 18.4441569,15.9998827 18.7455,15.9998827 C19.0468431,15.9998827 19.3321185,15.8639929 19.522,15.63 L21.994,12.586 L24.467,15.63 C24.6568815,15.8639929 24.9421569,15.9998827 25.2435,15.9998827 C25.5448431,15.9998827 25.8301185,15.8639929 26.02,15.63 L28.494,12.585 L30.973,15.631 C31.1692874,15.853569 31.4517414,15.9810733 31.7485,15.9810733 C32.0452586,15.9810733 32.3277126,15.853569 32.524,15.631 L35.778,11.631 L34.228,10.369 L31.745,13.416 Z M31.745,23.416 L29.266,20.369 C29.0761082,20.1353734 28.7910653,19.9997329 28.49,19.9997329 C28.1889347,19.9997329 27.9038918,20.1353734 27.714,20.369 L25.24,23.414 L22.768,20.37 C22.57169,20.1467477 22.2887864,20.0187911 21.9915,20.0187911 C21.6942136,20.0187911 21.41131,20.1467477 21.215,20.37 L18.742,23.413 L16.273,20.37 C16.0831082,20.1363734 15.7980653,20.0007329 15.497,20.0007329 C15.1959347,20.0007329 14.9108918,20.1363734 14.721,20.37 L12.249,23.414 L9.776,20.37 L8.224,21.63 L11.473,25.63 C11.6691256,25.8532082 11.9518685,25.9811547 12.249,25.9811547 C12.5461315,25.9811547 12.8288744,25.8532082 13.025,25.63 L15.5,22.587 L17.969,25.63 C18.1588815,25.8639929 18.4441569,25.9998827 18.7455,25.9998827 C19.0468431,25.9998827 19.3321185,25.8639929 19.522,25.63 L21.994,22.586 L24.467,25.63 C24.6568815,25.8639929 24.9421569,25.9998827 25.2435,25.9998827 C25.5448431,25.9998827 25.8301185,25.8639929 26.02,25.63 L28.494,22.585 L30.973,25.631 C31.1692874,25.853569 31.4517414,25.9810733 31.7485,25.9810733 C32.0452586,25.9810733 32.3277126,25.853569 32.524,25.631 L35.778,21.631 L34.228,20.369 L31.745,23.416 Z" id="Shape"></path>
        </g>
    </g>
</svg>