<?xml version="1.0" encoding="UTF-8"?>
<svg width="60px" height="38px" viewBox="0 0 60 38" version="1.1" xmlns="http://www.w3.org/2000/svg" xmlns:xlink="http://www.w3.org/1999/xlink">
    <title>OVEN</title>
    <g id="Page-1" stroke="none" strokeWidth="1" fill="none" fillRule="evenodd">
        <g id="OVEN" fill="#181818" fillRule="nonzero">
            <path d="M17.9600097,11 L15.96,11 C15.96,11.572 15.751,11.813 15.279,12.306 C14.493001,12.9793029 14.040594,13.9625453 14.040594,14.9975 C14.040594,16.0324547 14.493001,17.0156971 15.279,17.689 C15.752,18.182 15.961,18.424 15.961,18.998 C15.961,19.572 15.752,19.814 15.279,20.307 C14.4994903,20.9858787 14.0483954,21.9663457 14.04,23 L16.04,23 C16.04,22.426 16.249,22.184 16.722,21.691 C17.5078106,21.0169507 17.9600097,20.0332974 17.9600097,18.998 C17.9600097,17.9627026 17.5078106,16.9790493 16.722,16.305 C16.249,15.813 16.04,15.57 16.04,14.996 C16.04,14.422 16.249,14.183 16.721,13.696 C17.5023513,13.0172248 17.9537562,12.0349911 17.9600097,11 L17.9600097,11 Z M25.9600097,11 L23.96,11 C23.96,11.572 23.751,11.813 23.279,12.306 C22.493001,12.9793029 22.040594,13.9625453 22.040594,14.9975 C22.040594,16.0324547 22.493001,17.0156971 23.279,17.689 C23.752,18.182 23.961,18.424 23.961,18.998 C23.961,19.572 23.752,19.814 23.279,20.307 C22.4994903,20.9858787 22.0483954,21.9663457 22.04,23 L24.04,23 C24.04,22.426 24.249,22.184 24.722,21.691 C25.5078106,21.0169507 25.9600097,20.0332974 25.9600097,18.998 C25.9600097,17.9627026 25.5078106,16.9790493 24.722,16.305 C24.249,15.813 24.04,15.57 24.04,14.996 C24.04,14.422 24.249,14.183 24.721,13.696 C25.5023513,13.0172248 25.9537562,12.0349911 25.9600097,11 L25.9600097,11 Z M33.9600097,11 L31.96,11 C31.96,11.572 31.751,11.813 31.279,12.306 C30.493001,12.9793029 30.040594,13.9625453 30.040594,14.9975 C30.040594,16.0324547 30.493001,17.0156971 31.279,17.689 C31.752,18.182 31.961,18.424 31.961,18.998 C31.961,19.572 31.752,19.814 31.279,20.307 C30.4994903,20.9858787 30.0483954,21.9663457 30.04,23 L32.04,23 C32.04,22.426 32.249,22.184 32.722,21.691 C33.5078106,21.0169507 33.9600097,20.0332974 33.9600097,18.998 C33.9600097,17.9627026 33.5078106,16.9790493 32.722,16.305 C32.249,15.813 32.04,15.57 32.04,14.996 C32.04,14.422 32.249,14.183 32.721,13.696 C33.5023513,13.0172248 33.9537562,12.0349911 33.9600097,11 L33.9600097,11 Z" id="Shape"></path>
            <path d="M59,0 L1,0 C0.44771525,0 0,0.44771525 0,1 L0,33 C0,33.5522847 0.44771525,34 1,34 L3,34 L3,35 C3,36.6568542 4.34314575,38 6,38 L10,38 C11.6568542,38 13,36.6568542 13,35 L13,34 L47,34 L47,35 C47,36.6568542 48.3431458,38 50,38 L54,38 C55.6568542,38 57,36.6568542 57,35 L57,34 L59,34 C59.5522847,34 60,33.5522847 60,33 L60,1 C60,0.44771525 59.5522847,0 59,0 Z M11,35 C11,35.5522847 10.5522847,36 10,36 L6,36 C5.44771525,36 5,35.5522847 5,35 L5,34 L11,34 L11,35 Z M55,35 C55,35.5522847 54.5522847,36 54,36 L50,36 C49.4477153,36 49,35.5522847 49,35 L49,34 L55,34 L55,35 Z M58,32 L2,32 L2,2 L58,2 L58,32 Z" id="Shape"></path>
            <path d="M5,30 L43,30 C43.5522847,30 44,29.5522847 44,29 L44,5 C44,4.44771525 43.5522847,4 43,4 L5,4 C4.44771525,4 4,4.44771525 4,5 L4,29 C4,29.5522847 4.44771525,30 5,30 Z M6,6 L42,6 L42,28 L6,28 L6,6 Z M52,21 C54.209139,21 56,19.209139 56,17 C56,14.790861 54.209139,13 52,13 C49.790861,13 48,14.790861 48,17 C48,19.209139 49.790861,21 52,21 Z M51,15.278 L51,17 L53,17 L53,15.278 C53.783936,15.7306057 54.1661376,16.6533219 53.9318517,17.5276889 C53.6975657,18.4020559 52.9052114,19.0100508 52,19.0100508 C51.0947886,19.0100508 50.3024343,18.4020559 50.0681483,17.5276889 C49.8338624,16.6533219 50.216064,15.7306057 51,15.278 Z M49,11 L55,11 C55.5522847,11 56,10.5522847 56,10 L56,6 C56,5.44771525 55.5522847,5 55,5 L49,5 C48.4477153,5 48,5.44771525 48,6 L48,10 C48,10.5522847 48.4477153,11 49,11 Z M50,7 L54,7 L54,9 L50,9 L50,7 Z" id="Shape"></path>
            <rect id="Rectangle" x="47" y="28" width="2" height="2"></rect>
            <rect id="Rectangle" x="54" y="28" width="2" height="2"></rect>
        </g>
    </g>
</svg>