<?xml version="1.0" encoding="UTF-8"?>
<svg width="129px" height="112px" viewBox="0 0 129 112" version="1.1" xmlns="http://www.w3.org/2000/svg" xmlns:xlink="http://www.w3.org/1999/xlink">
    <title>PACK_N_PLAY_TRAVEL_CRIB</title>
    <g id="Page-1" stroke="none" strokeWidth="1" fill="none" fillRule="evenodd">
        <g id="PACK_N_PLAY_TRAVEL_CRIB" fill="#181818" fillRule="nonzero">
            <path d="M123.227098,37.13867 C114.034288,15.43884 90.9655677,0 64.0029777,0 C37.0403877,0 13.9716677,15.43884 4.77885773,37.13867 C1.88769098,37.9244185 -0.0873939649,40.5903249 0.00297772808,43.585 L0.00297772808,107.707 C-0.0725944776,109.995052 1.71529734,111.913907 4.00297773,112 L8.00297773,112 C10.2906581,111.913907 12.0785499,109.995052 12.0029777,107.707 L12.0029777,102 L116.002978,102 L116.002978,107.707 C115.927406,109.995052 117.715297,111.913907 120.002978,112 L124.002978,112 C126.290658,111.913907 128.07855,109.995052 128.002978,107.707 L128.002978,43.585 C128.093349,40.5903249 126.118264,37.9244185 123.227098,37.13867 Z M46.0029777,90 L46.0029777,52.07129 L50.0029777,52.07129 L50.0029777,90 L46.0029777,90 Z M30.0029777,90 L30.0029777,52.07129 L34.0029777,52.07129 L34.0029777,90 L30.0029777,90 Z M120.002978,43.585 C119.785893,42.7481101 120.112829,41.8645507 120.822377,41.3705342 C121.531925,40.8765178 122.474031,40.8765178 123.183579,41.3705342 C123.893126,41.8645507 124.220062,42.7481101 124.002978,43.585 L124.002978,45 L120.002978,45 L120.002978,43.585 Z M6.00297773,41 C7.24886394,41.1963091 8.12579024,42.3297364 8.00297773,43.585 L8.00297773,45 L4.00297773,45 L4.00297773,43.585 C3.88016521,42.3297364 4.75709151,41.1963091 6.00297773,41 Z M12.0029777,52.07129 L18.0029777,52.07129 L18.0029777,90 L12.0029777,90 L12.0029777,52.07129 Z M22.0029777,52.07129 L26.0029777,52.07129 L26.0029777,90 L22.0029777,90 L22.0029777,52.07129 Z M38.0029777,52.07129 L42.0029777,52.07129 L42.0029777,90 L38.0029777,90 L38.0029777,52.07129 Z M54.0029777,52.07129 L58.0029777,52.07129 L58.0029777,90 L54.0029777,90 L54.0029777,52.07129 Z M62.0029777,52.07129 L66.0029777,52.07129 L66.0029777,90 L62.0029777,90 L62.0029777,52.07129 Z M70.0029777,52.07129 L74.0029777,52.07129 L74.0029777,90 L70.0029777,90 L70.0029777,52.07129 Z M78.0029777,52.07129 L82.0029777,52.07129 L82.0029777,90 L78.0029777,90 L78.0029777,52.07129 Z M86.0029777,52.07129 L90.0029777,52.07129 L90.0029777,90 L86.0029777,90 L86.0029777,52.07129 Z M94.0029777,52.07129 L98.0029777,52.07129 L98.0029777,90 L94.0029777,90 L94.0029777,52.07129 Z M102.002978,52.07129 L106.002978,52.07129 L106.002978,90 L102.002978,90 L102.002978,52.07129 Z M110.002978,52.07129 L116.002978,52.07129 L116.002978,90 L110.002978,90 L110.002978,52.07129 Z M82.0029777,20 C83.1075472,20 84.0029777,20.8954305 84.0029777,22 C84.0029777,23.1045695 83.1075472,24 82.0029777,24 C80.8984082,24 80.0029777,23.1045695 80.0029777,22 C80.0044156,20.8960266 80.8990044,20.0014379 82.0029777,20 Z M66.4751477,36 L64.0029777,34.63342 L61.5308677,36 L62.0029777,33.10559 L60.0029777,31.05572 L62.7669777,30.63342 L64.0029777,28 L65.2390577,30.63342 L68.0029777,31.05573 L66.0029777,33.1056 L66.4751477,36 Z M46.0029777,20 C47.1075472,20 48.0029777,20.8954305 48.0029777,22 C48.0029777,23.1045695 47.1075472,24 46.0029777,24 C44.8984082,24 44.0029777,23.1045695 44.0029777,22 C44.0044156,20.8960266 44.8990044,20.0014379 46.0029777,20 Z M44.0029777,7.14746 L44.0029777,16.35 C41.2478844,17.3240726 39.5952336,20.1413325 40.0893864,23.0214661 C40.5835392,25.9015998 43.0807599,28.0068542 46.0029777,28.0068542 C48.9251955,28.0068542 51.4224163,25.9015998 51.9165691,23.0214661 C52.4107219,20.1413325 50.7580711,17.3240726 48.0029777,16.35 L48.0029777,5.98718 C52.5846001,4.82859281 57.2791561,4.17437289 62.0029777,4.03613 L62.0029777,24.54523 C61.2960081,24.9509351 60.7302933,25.5634811 60.3819777,26.30042 L60.0528177,27.00171 L59.3988177,27.10162 C57.9167867,27.3280525 56.6858064,28.3642192 56.2098614,29.7858957 C55.7339163,31.2075721 56.0929268,32.7760316 57.1399077,33.84912 L57.7301177,34.45404 L57.5830277,35.35604 C57.3364129,36.8678634 57.974845,38.3877582 59.2270824,39.2699885 C60.4793198,40.1522188 62.1254199,40.2418299 63.4660277,39.50075 L64.0029777,39.20392 L64.5399777,39.50073 C65.880589,40.2418136 67.5266948,40.1522011 68.7789341,39.2699653 C70.0311734,38.3877294 70.6696017,36.8678267 70.4229777,35.356 L70.2758177,34.454 L70.8660277,33.84908 C71.9130087,32.7759916 72.2720191,31.2075321 71.7960741,29.7858557 C71.320129,28.3641792 70.0891488,27.3280125 68.6071177,27.10158 L67.9531177,27.00167 L67.6239577,26.30038 C67.275679,25.563433 66.7099626,24.9508917 66.0029777,24.54523 L66.0029777,4.03613 C70.7267993,4.17432289 75.4213554,4.82854281 80.0029777,5.98713 L80.0029777,16.35 C77.2478844,17.3240726 75.5952336,20.1413325 76.0893864,23.0214661 C76.5835392,25.9015998 79.0807599,28.0068542 82.0029777,28.0068542 C84.9251955,28.0068542 87.4224163,25.9015998 87.9165691,23.0214661 C88.4107219,20.1413325 86.7580711,17.3240726 84.0029777,16.35 L84.0029777,7.14746 C99.9792377,12.34 112.819688,23.56213 119.169728,37.783 C117.167542,39.0257867 115.965149,41.2287668 116.002978,43.585 L116.002978,48.07133 L12.0029777,48.07133 L12.0029777,43.585 C12.0408068,41.2287668 10.8384133,39.0257867 8.83622773,37.783 C15.1862677,23.56213 28.0267177,12.34 44.0029777,7.14746 Z M8.00297773,107.707 C8.0071448,107.810861 7.97845054,107.91339 7.92097773,108 L4.08497773,108 C4.02750491,107.91339 3.99881066,107.810861 4.00297773,107.707 L4.00297773,49 L8.00297773,49 L8.00297773,107.707 Z M12.0029777,98 L12.0029777,94 L116.002978,94 L116.002978,98 L12.0029777,98 Z M123.920978,108 L120.084978,108 C120.027504,107.91339 119.99881,107.810861 120.002978,107.707 L120.002978,49 L124.002978,49 L124.002978,107.707 C124.007145,107.810861 123.978451,107.91339 123.920978,108 Z" id="Shape"></path>
        </g>
    </g>
</svg>