<?xml version="1.0" encoding="UTF-8"?>
<svg width="38px" height="60px" viewBox="0 0 38 60" version="1.1" xmlns="http://www.w3.org/2000/svg" xmlns:xlink="http://www.w3.org/1999/xlink">
    <title>REFRIGERATOR</title>
    <g id="Page-1" stroke="none" strokeWidth="1" fill="none" fillRule="evenodd">
        <g id="REFRIGERATOR" fill="#181818" fillRule="nonzero">
            <path d="M0,5 L0,59 C0,59.5522847 0.44771525,60 1,60 L37,60 C37.5522847,60 38,59.5522847 38,59 L38,5 C37.9966939,2.23994685 35.7600532,0.00330611633 33,4.4408921e-16 L5,4.4408921e-16 C2.23994685,0.00330611633 0.00330611633,2.23994685 0,5 Z M36,35 L34,35 L34,29 L36,29 L36,35 Z M36,19 L34,19 L34,13 L36,13 L36,19 Z M2,5 C2,3.34314575 3.34314575,2 5,2 L33,2 C34.6568542,2 36,3.34314575 36,5 L36,11 L33,11 C32.4477153,11 32,11.4477153 32,12 L32,20 C32,20.5522847 32.4477153,21 33,21 L36,21 L36,23 L2,23 L2,5 Z M2,25 L36,25 L36,27 L33,27 C32.4477153,27 32,27.4477153 32,28 L32,36 C32,36.5522847 32.4477153,37 33,37 L36,37 L36,58 L2,58 L2,25 Z" id="Shape"></path>
        </g>
    </g>
</svg>