<?xml version="1.0" encoding="UTF-8"?>
<svg width="48px" height="60px" viewBox="0 0 48 60" version="1.1" xmlns="http://www.w3.org/2000/svg" xmlns:xlink="http://www.w3.org/1999/xlink">
    <title>smart-blind-window-2973298</title>
    <g id="Page-1" stroke="none" strokeWidth="1" fill="none" fillRule="evenodd">
        <g id="smart-blind-window-2973298" fill="#181818" fillRule="nonzero">
            <path d="M45,0 L3,0 C1.34314575,0 0,1.34314575 0,3 C0,4.65685425 1.34314575,6 3,6 L4.523,6 L3.07,9.628 C2.9500352,9.93642978 2.98927212,10.2841152 3.17495798,10.5580518 C3.36064384,10.8319884 3.66907302,10.9972039 4,11 L4.523,11 L3.07,14.628 C2.9500352,14.9364298 2.98927212,15.2841152 3.17495798,15.5580518 C3.36064384,15.8319884 3.66907302,15.9972039 4,16 L4.523,16 L3.07,19.628 C2.9500352,19.9364298 2.98927212,20.2841152 3.17495798,20.5580518 C3.36064384,20.8319884 3.66907302,20.9972039 4,21 L4.523,21 L3.07,24.628 C2.9500352,24.9364298 2.98927212,25.2841152 3.17495798,25.5580518 C3.36064384,25.8319884 3.66907302,25.9972039 4,26 L4.523,26 L3.07,29.628 C2.9500352,29.9364298 2.98927212,30.2841152 3.17495798,30.5580518 C3.36064384,30.8319884 3.66907302,30.9972039 4,31 L4.523,31 L3.07,34.628 C2.9500352,34.9364298 2.98927212,35.2841152 3.17495798,35.5580518 C3.36064384,35.8319884 3.66907302,35.9972039 4,36 L4.523,36 L3.07,39.628 C2.9500352,39.9364298 2.98927212,40.2841152 3.17495798,40.5580518 C3.36064384,40.8319884 3.66907302,40.9972039 4,41 L6,41 L6,54 C4.34314575,54 3,55.3431458 3,57 C3,58.6568542 4.34314575,60 6,60 L42,60 C43.6568542,60 45,58.6568542 45,57 C45,55.3431458 43.6568542,54 42,54 L42,41 L44,41 C44.3307496,40.996878 44.6388765,40.831529 44.8243276,40.5576442 C45.0097788,40.2837594 45.0489045,39.936266 44.929,39.628 L43.477,36 L44,36 C44.3307496,35.996878 44.6388765,35.831529 44.8243276,35.5576442 C45.0097788,35.2837594 45.0489045,34.936266 44.929,34.628 L43.477,31 L44,31 C44.3307496,30.996878 44.6388765,30.831529 44.8243276,30.5576442 C45.0097788,30.2837594 45.0489045,29.936266 44.929,29.628 L43.477,26 L44,26 C44.3307496,25.996878 44.6388765,25.831529 44.8243276,25.5576442 C45.0097788,25.2837594 45.0489045,24.936266 44.929,24.628 L43.477,21 L44,21 C44.3307496,20.996878 44.6388765,20.831529 44.8243276,20.5576442 C45.0097788,20.2837594 45.0489045,19.936266 44.929,19.628 L43.477,16 L44,16 C44.3307496,15.996878 44.6388765,15.831529 44.8243276,15.5576442 C45.0097788,15.2837594 45.0489045,14.936266 44.929,14.628 L43.477,11 L44,11 C44.3307496,10.996878 44.6388765,10.831529 44.8243276,10.5576442 C45.0097788,10.2837594 45.0489045,9.93626602 44.929,9.628 L43.477,6 L45,6 C46.6568542,6 48,4.65685425 48,3 C48,1.34314575 46.6568542,0 45,0 Z M15,39 L15,36 L33,36 L33,39 L15,39 Z M15,34 L15,31 L33,31 L33,34 L15,34 Z M15,29 L15,26 L33,26 L33,29 L15,29 Z M15,24 L15,21 L33,21 L33,24 L15,24 Z M15,19 L15,16 L33,16 L33,19 L15,19 Z M15,14 L15,11 L33,11 L33,14 L15,14 Z M15,9 L15,6 L33,6 L33,9 L15,9 Z M13,9 L5.477,9 L6.677,6 L13,6 L13,9 Z M13,11 L13,14 L5.477,14 L6.677,11 L13,11 Z M13,16 L13,19 L5.477,19 L6.677,16 L13,16 Z M13,21 L13,24 L5.477,24 L6.677,21 L13,21 Z M13,26 L13,29 L5.477,29 L6.677,26 L13,26 Z M13,31 L13,34 L5.477,34 L6.677,31 L13,31 Z M5.477,39 L6.677,36 L13,36 L13,39 L5.477,39 Z M43,57 C43,57.5522847 42.5522847,58 42,58 L6,58 C5.44771525,58 5,57.5522847 5,57 C5,56.4477153 5.44771525,56 6,56 L42,56 C42.5522847,56 43,56.4477153 43,57 Z M40,54 L8,54 L8,41 L22.235,41 L18.504,43.132 C18.0389957,43.4125182 17.8828676,44.0128858 18.1523032,44.4843981 C18.4217389,44.9559105 19.0182437,45.1262022 19.496,44.868 L26.266,41 L32.614,41 L18.457,50.16 C17.9930808,50.4598906 17.8601094,51.0790808 18.16,51.543 C18.4598906,52.0069192 19.0790808,52.1398906 19.543,51.84 L36.295,41 L40,41 L40,54 Z M42.523,39 L35,39 L35,36 L41.323,36 L42.523,39 Z M42.523,34 L35,34 L35,31 L41.323,31 L42.523,34 Z M42.523,29 L35,29 L35,26 L41.323,26 L42.523,29 Z M42.523,24 L35,24 L35,21 L41.323,21 L42.523,24 Z M42.523,19 L35,19 L35,16 L41.323,16 L42.523,19 Z M42.523,14 L35,14 L35,11 L41.323,11 L42.523,14 Z M42.523,9 L35,9 L35,6 L41.323,6 L42.523,9 Z M45,4 L3,4 C2.44771525,4 2,3.55228475 2,3 C2,2.44771525 2.44771525,2 3,2 L45,2 C45.5522847,2 46,2.44771525 46,3 C46,3.55228475 45.5522847,4 45,4 Z" id="Shape"></path>
        </g>
    </g>
</svg>