
<svg width="23px" height="51px" viewBox="0 0 23 51" version="1.1" xmlns="http://www.w3.org/2000/svg" xmlns:xlink="http://www.w3.org/1999/xlink">
    <g id="Page-1" stroke="none" stroke-width="1" fill="none" fill-rule="evenodd">
        <g id="SHAMPOO" transform="translate(1.000000, 1.000000)" stroke="#181818">
            <path d="M18.5109287,13 C19.2170801,13 19.8899329,13.3005627 20.3619716,13.8263236 C20.8340103,14.3520846 21.0608273,15.0537768 20.9859535,15.7567048 L17.5658657,47.8291864 C17.5658657,49.3902712 4.56953192,49.3902712 4.56953192,47.8291864 L0.0247896665,15.8431588 C-0.0767122273,15.1282488 0.136489683,14.4044087 0.60921043,13.8589969 C1.08193117,13.313585 1.76770226,13 2.48901938,13 L18.5109287,13 Z" id="Shape"></path>
            <rect id="Rectangle" x="6.5" y="4.5" width="8" height="8"></rect>
            <rect id="Rectangle" x="6.5" y="4.5" width="8" height="3"></rect>
            <path d="M16.4076846,4 L4.5923154,4 C3.43676151,4 2.5,3.1045695 2.5,2 L2.5,2 C2.5,0.8954305 3.43676151,0 4.5923154,0 L16.4076846,0 C17.5632384,0 18.5,0.8954305 18.5,2 L18.5,2 C18.5,3.1045695 17.5632384,4 16.4076846,4 Z" id="Shape-path"></path>
        </g>
    </g>
</svg>