<?xml version="1.0" encoding="UTF-8"?>
<svg width="73px" height="73px" viewBox="0 0 73 73" version="1.1" xmlns="http://www.w3.org/2000/svg" xmlns:xlink="http://www.w3.org/1999/xlink">
    <title>Shape</title>
    <g id="Page-1" stroke="none" strokeWidth="1" fill="none" fillRule="evenodd">
        <g id="elevator-(1)" fill="#181818" fillRule="nonzero">
            <path d="M63.14,18.0075 L63.14,24.7735 L67.65,24.7735 L67.65,27.0275 L63.14,27.0275 L60.885,27.0275 L54.12,27.0275 L54.12,33.7925 L58.63,33.7925 L58.63,36.0475 L54.12,36.0475 L51.865,36.0475 L45.1,36.0475 L45.1,42.8115 L49.61,42.8115 L49.61,45.0665 L45.1,45.0665 L42.845,45.0665 L36.08,45.0665 L36.08,51.8315 L40.59,51.8315 L40.59,54.0865 L36.08,54.0865 L33.825,54.0865 L27.06,54.0865 L27.06,60.8515 L31.57,60.8515 L31.57,63.1065 L27.06,63.1065 L24.805,63.1065 L18.04,63.1065 L18.04,72.1265 L-1.77635684e-15,72.1265 L-1.77635684e-15,69.8725 L15.785,69.8725 L15.785,60.8515 L24.805,60.8515 L24.805,51.8315 L33.825,51.8315 L33.825,42.8115 L42.845,42.8115 L42.845,33.7915 L51.865,33.7915 L51.865,24.7715 L60.885,24.7715 L60.885,15.7505 L72.16,15.7505 L72.16,18.0055 L63.14,18.0055 L63.14,18.0075 Z M5.638,38.3025 L5.638,36.0475 C5.638,35.1985 6.114,34.4675 6.808,34.0825 L7.726,16.6425 C7.851,14.2465 9.829,12.3695 12.229,12.3695 L23.85,12.3695 C26.25,12.3695 28.228,14.2465 28.353,16.6435 L28.889,26.8155 L54.747,0.9585 C56.024,-0.3195 58.252,-0.3195 59.531,0.9585 C60.169,1.5965 60.521,2.4465 60.521,3.3495 C60.521,4.2535 60.169,5.1025 59.53,5.7415 L30.208,35.0645 C30.354,35.3625 30.443,35.6935 30.443,36.0475 L30.443,38.3025 C30.443,39.5465 29.432,40.5575 28.188,40.5575 L24.806,40.5575 L24.806,45.0675 L20.206,45.0675 L12.904,52.3695 C12.266,53.0085 11.416,53.3605 10.513,53.3605 C9.609,53.3605 8.76,53.0085 8.121,52.3695 C6.803,51.0505 6.803,48.9045 8.121,47.5865 L11.277,44.4305 L11.277,40.5575 L7.895,40.5575 C6.649,40.5575 5.638,39.5465 5.638,38.3025 Z M9.978,16.7615 L9.081,33.7925 L21.913,33.7925 L23.507,33.7925 L25.101,33.7925 L26.998,33.7925 L26.903,31.9905 L26.823,30.4755 L26.744,28.9605 L26.102,16.7605 C26.039,15.5625 25.05,14.6235 23.85,14.6235 L12.229,14.6235 C11.029,14.6245 10.04,15.5635 9.978,16.7615 Z M57.139,2.2225 C56.838,2.2225 56.555,2.3405 56.343,2.5525 L29.049,29.8445 L29.209,32.8735 L57.937,4.1465 C58.15,3.9335 58.267,3.6505 58.267,3.3495 C58.267,3.0485 58.15,2.7655 57.937,2.5535 C57.723,2.3405 57.44,2.2225 57.139,2.2225 Z M28.188,37.0845 L28.187,36.0485 L27.63,36.0485 L26.035,36.0485 L22.847,36.0485 L21.253,36.0485 L19.659,36.0485 L7.893,36.0485 L7.893,38.3035 L11.275,38.3035 L17.403,38.3035 L18.997,38.3035 L20.592,38.3035 L23.78,38.3035 L24.805,38.3035 L25.375,38.3035 L26.969,38.3035 L28.188,38.3035 L28.188,37.0845 Z M22.55,42.7225 L22.55,41.1285 L22.55,40.5575 L21.525,40.5575 L18.337,40.5575 L16.743,40.5575 L15.149,40.5575 L13.53,40.5575 L13.53,42.1755 L13.53,42.8125 L14.487,42.8125 L16.082,42.8125 L19.27,42.8125 L20.865,42.8125 L22.459,42.8125 L22.549,42.8125 L22.549,42.7225 L22.55,42.7225 Z M11.307,50.7755 L17.015,45.0675 L13.827,45.0675 L9.713,49.1805 C9.274,49.6205 9.274,50.3355 9.713,50.7755 C10.14,51.2015 10.882,51.2015 11.307,50.7755 Z M23.677,29.2825 L12.403,29.2825 L12.403,31.5375 L23.678,31.5375 L23.678,29.2825 L23.677,29.2825 Z" id="Shape"></path>
        </g>
    </g>
</svg>