<svg width="26px" height="23px" viewBox="0 0 26 23" version="1.1" xmlns="http://www.w3.org/2000/svg" xmlns:xlink="http://www.w3.org/1999/xlink">
    <g id="Page-1" stroke="none" stroke-width="1" fill="none" fill-rule="evenodd">
        <g id="stove.b382c577" transform="translate(1.000000, 1.000000)" stroke="#181818">
            <path d="M17.5994,8.26742346 L20.4994,4.36742346 C20.4994,4.36742346 24.5994,2.06742346 23.9004,0.367423461 C23.7994,0.0674234614 22.9994,-0.232576539 22.2994,0.267423461 C21.7004,0.667423461 19.4994,2.16742346 18.5994,2.96742346 C17.7004,3.66742346 14.4994,6.66742346 14.4994,6.66742346" id="Stroke-1"></path>
            <path d="M9.7,5.96762346 C15.057,5.96762346 19.4,8.74362346 19.4,12.1676235 C19.4,15.5916235 15.057,18.3676235 9.7,18.3676235 C4.343,18.3676235 0,15.5916235 0,12.1676235 C0,8.74362346 4.343,5.96762346 9.7,5.96762346 Z" id="Stroke-3"></path>
            <path d="M0.9998,14.2674235 C0.9998,11.1674235 4.9998,8.76742346 9.8998,8.76742346 C14.7998,8.76742346 18.7998,11.2674235 18.7998,14.2674235" id="Stroke-5"></path>
            <path d="M0.2,12.3680235 L0.2,14.0670235 C0.2,17.4680235 4.5,20.7670235 9.9,20.7670235 C15.3,20.7670235 19.5,17.4680235 19.5,13.9680235 L19.5,12.2670235" id="Stroke-7"></path>
            <path d="M23.2996,0.667823461 C23.1996,0.767823461 23.0996,0.867823461 22.9996,0.967823461 C22.6996,1.16782346 22.4006,1.06782346 22.2996,0.967823461" id="Stroke-9"></path>
        </g>
    </g>
</svg>