<svg xmlns="http://www.w3.org/2000/svg" width="24" height="24">
<g fill="#181818">
<path d="M15.7 16.3H5c-.1 0-.3-.1-.4-.2l-2.9-4.8c-.1-.2-.1-.3 0-.4.1-.1.2-.2.4-.2h16.5c.2 0 .3.1.4.2.1.1.1.3 0 .4l-3 4.8c0 .1-.2.2-.3.2zm-10.4-.8h10.2l2.4-3.9h-15l2.4 3.9z"/><path d="M15.7 16.3c-.1 0-.1 0-.2-.1-.2-.1-.3-.4-.1-.6l4.9-7.8c.1-.2.4-.3.6-.1.1.1.1.4 0 .6L16 16.1c0 .1-.2.2-.3.2zM9.5 11.6H2.1c-.2 0-.4-.2-.4-.4V9.1c0-3.5 2.8-6.3 6.3-6.3h1.5c.2 0 .4.2.4.4v8c0 .2-.2.4-.4.4zm-7-.9H9V3.6H8C5 3.6 2.5 6 2.5 9v1.7zM5.7 21.3c-1.3 0-2.3-1-2.3-2.3s1-2.3 2.3-2.3C7 16.8 8 17.8 8 19s-1 2.3-2.3 2.3zm0-3.7c-.8 0-1.4.6-1.4 1.4 0 .8.6 1.4 1.4 1.4.8 0 1.4-.6 1.4-1.4 0-.7-.6-1.4-1.4-1.4z"/><path d="M5.7 18.4c-.3 0-.6.3-.6.6s.3.6.6.6.6-.3.6-.6-.3-.6-.6-.6zM15 21.3c-1.2 0-2.2-1-2.2-2.3s1-2.3 2.2-2.3c1.3 0 2.3 1 2.3 2.3s-1.1 2.3-2.3 2.3zm0-3.7c-.8 0-1.4.6-1.4 1.4 0 .8.6 1.4 1.4 1.4.8 0 1.4-.6 1.4-1.4 0-.7-.6-1.4-1.4-1.4z"/><path d="M15 18.4c-.3 0-.6.3-.6.6s.3.6.6.6c.4 0 .6-.3.6-.6s-.3-.6-.6-.6zM11.7 19.5H9c-.2 0-.4-.2-.4-.4s.2-.4.4-.4h2.7c.2 0 .4.2.4.4s-.2.4-.4.4zM21.7 8.3h-1.2c-.2 0-.4-.2-.4-.4s.2-.4.4-.4h1.2c.2 0 .4.2.4.4s-.2.4-.4.4zM9.5 11.6c-.1 0-.3-.1-.4-.2L4.6 4.2c-.1-.2-.1-.5.1-.6.2-.1.5-.1.6.1l4.6 7.1c.1.2 0 .5-.1.6-.1.1-.2.2-.3.2z"/><path d="M9.5 11.6s-.1 0-.2-.1L2.1 7.9c-.2-.1-.3-.3-.2-.5.1-.3.4-.3.6-.2l7.2 3.6c.2.1.3.4.2.6-.1.1-.2.2-.4.2z"/>
</g>
</svg>