<?xml version="1.0" encoding="UTF-8"?>
<svg width="64px" height="64px" viewBox="0 0 64 64" version="1.1" xmlns="http://www.w3.org/2000/svg" xmlns:xlink="http://www.w3.org/1999/xlink">
    <title>BEACH_ESSENTIALS</title>
    <g id="Page-1" stroke="none" strokeWidth="1" fill="none" fillRule="evenodd">
        <g id="BEACH_ESSENTIALS" transform="translate(0.000000, 0.000000)" fill="#181818" fillRule="nonzero">
            <path d="M32,0 C27.6,0 23.4,0.9 19.6,2.5 C19.6,2.5 19.5,2.5 19.5,2.5 C8,7.5 0,18.8 0,32 C0,36.4 0.9,40.6 2.5,44.5 C2.5,44.5 2.5,44.5 2.5,44.5 C2.5,44.5 2.5,44.5 2.5,44.5 C5.7,52.1 11.8,58.2 19.4,61.4 C19.4,61.4 19.4,61.4 19.5,61.4 C19.5,61.4 19.5,61.4 19.6,61.4 C23.4,63 27.6,63.9 32,63.9 C49.6,63.9 64,49.5 64,31.9 C64,14.3 49.6,0 32,0 Z M60,42.9 L49.2,38.7 C50,36.6 50.4,34.4 50.4,32.1 C50.4,29.8 49.9,27.5 49.2,25.5 L60,21.1 C61.3,24.5 62,28.1 62,32 C62.1,35.8 61.3,39.5 60,42.9 Z M32,48.6 C22.9,48.6 15.4,41.2 15.4,32 C15.4,22.8 22.9,15.4 32,15.4 C41.1,15.4 48.6,22.8 48.6,32 C48.6,41.2 41.1,48.6 32,48.6 Z M59.3,19.4 L48.5,23.7 C46.7,20.2 43.9,17.4 40.4,15.6 L44.7,4.8 C51.1,7.7 56.3,12.9 59.3,19.4 Z M42.9,4 L38.6,14.8 C36.5,14 34.3,13.6 32,13.6 C29.7,13.6 27.5,14.1 25.4,14.8 L21.1,4 C24.5,2.7 28.1,2 32,2 C35.8,1.9 39.5,2.7 42.9,4 Z M19.4,4.7 L23.7,15.5 C20.2,17.3 17.4,20.1 15.6,23.6 L4.7,19.4 C7.7,12.9 12.9,7.7 19.4,4.7 Z M4,21.1 L14.8,25.4 C14,27.5 13.6,29.7 13.6,32 C13.6,34.3 14.1,36.5 14.8,38.6 L4,42.9 C2.7,39.5 2,35.9 2,32 C1.9,28.2 2.7,24.5 4,21.1 Z M4.7,44.6 L15.5,40.3 C17.3,43.8 20.1,46.6 23.6,48.4 L19.3,59.2 C12.9,56.3 7.7,51.1 4.7,44.6 Z M21.1,60 L25.4,49.2 C27.5,50 29.7,50.4 32,50.4 C34.3,50.4 36.5,49.9 38.6,49.2 L42.9,60 C39.5,61.3 35.9,62 32,62 C28.2,62.1 24.5,61.3 21.1,60 Z M44.6,59.3 L40.3,48.5 C43.8,46.7 46.6,43.9 48.4,40.4 L59.2,44.7 C56.3,51.1 51.1,56.3 44.6,59.3 Z" id="Shape"></path>
        </g>
    </g>
</svg>