<svg width="38px" height="23px" viewBox="0 0 38 23" version="1.1" xmlns="http://www.w3.org/2000/svg" xmlns:xlink="http://www.w3.org/1999/xlink">
    <g id="Page-1" stroke="none" stroke-width="1" fill="none" fill-rule="evenodd">
        <g id="BED_LINENS" transform="translate(1.000000, 1.000000)" stroke="#181818">
            <path d="M36,12.5048111 L36,17 L0,17 L0,1.27076768 C0,0.568942069 0.579262131,0 1.29381818,0 C2.00837423,0 2.58763636,0.568942069 2.58763636,1.27076768 L2.58763636,12.5048111 L36,12.5048111 Z" id="Path"></path>
            <path d="M3,9.25052484 L35.7758609,9.25052484 C35.8996495,9.25052484 36,9.34451686 36,9.46046186 L36,12 L3,12 L3,9.25052484 Z M4.38368539,7 L14.7986823,7 C14.8985385,7 14.9794879,7.07582022 14.9794879,7.1693492 L14.9794879,9.25122463 L4.20287985,9.25122463 L4.20287985,7.16864941 C4.20329128,7.07539384 4.28412029,7 4.38368539,7 L4.38368539,7 Z" id="Shape"></path>
            <polygon id="Path" points="5.20721477 21 3 21 3 17 7 17"></polygon>
            <polygon id="Path" points="31.7927852 21 34 21 34 17 30 17"></polygon>
        </g>
    </g>
</svg>