<?xml version="1.0" encoding="UTF-8"?>
<svg width="114px" height="128px" viewBox="0 0 114 128" version="1.1" xmlns="http://www.w3.org/2000/svg" xmlns:xlink="http://www.w3.org/1999/xlink">
    <title>CHILDREN_BOOKS_AND_TOYS</title>
    <g id="Page-1" stroke="none" strokeWidth="1" fill="none" fillRule="evenodd">
        <g id="CHILDREN_BOOKS_AND_TOYS" fill="#181818" fillRule="nonzero">
            <path d="M49.8638224,32.4393075 L48.8468224,38.6793075 C48.7238213,39.4350126 49.0430518,40.1946198 49.6689638,40.6355887 C50.2948758,41.0765576 51.1176103,41.1214902 51.7878224,40.7513075 L57.0008224,37.8713075 L62.2138224,40.7513075 C62.8840344,41.1214902 63.706769,41.0765576 64.332681,40.6355887 C64.958593,40.1946198 65.2778234,39.4350126 65.1548224,38.6793075 L64.1378224,32.4393075 L68.4328224,28.0373075 C68.95648,27.5007009 69.1360203,26.716279 68.8979092,26.0053169 C68.659798,25.2943549 68.0440367,24.7762907 67.3028224,24.6633075 L61.4478224,23.7703075 L58.8118224,18.1513075 C58.4825793,17.4487455 57.7767053,17 57.0008224,17 C56.2249394,17 55.5190654,17.4487455 55.1898224,18.1513075 L52.5538224,23.7703075 L46.6988224,24.6633075 C45.957608,24.7762907 45.3418468,25.2943549 45.1037356,26.0053169 C44.8656244,26.716279 45.0451647,27.5007009 45.5688224,28.0373075 L49.8638224,32.4393075 Z M54.2128224,27.5623075 C54.8720144,27.4611335 55.4376846,27.0386615 55.7218224,26.4353075 L57.0008224,23.7093075 L58.2808224,26.4353075 C58.5645117,27.0387828 59.1297917,27.4616183 59.7888224,27.5633075 L62.8508224,28.0303075 L60.5688224,30.3683075 C60.1252814,30.8226377 59.924089,31.4607371 60.0268224,32.0873075 L60.5448224,35.2593075 L57.9688224,33.8353075 C57.3665847,33.5017743 56.63506,33.5017743 56.0328224,33.8353075 L53.4568224,35.2593075 L53.9748224,32.0873075 C54.0775558,31.4607371 53.8763633,30.8226377 53.4328224,30.3683075 L51.1508224,28.0313075 L54.2128224,27.5623075 Z M96.3638224,14.1623075 L95.4638224,19.6793075 C95.3405344,20.4353079 95.6598679,21.1953174 96.2861265,21.6363805 C96.9123851,22.0774436 97.7355475,22.1220744 98.4058224,21.7513075 L103.000822,19.2113075 L107.595822,21.7513075 C108.266034,22.1214902 109.088769,22.0765576 109.714681,21.6355887 C110.340593,21.1946198 110.659823,20.4350126 110.536822,19.6793075 L109.636822,14.1623075 L113.432822,10.2723075 C113.955893,9.73564981 114.13506,8.95160507 113.897004,8.24101805 C113.658947,7.53043104 113.043619,7.01255253 112.302822,6.89930748 L107.139822,6.11030748 L104.811822,1.15130748 C104.482579,0.448745465 103.776705,3.55271368e-15 103.000822,3.55271368e-15 C102.224939,3.55271368e-15 101.519065,0.448745465 101.189822,1.15130748 L98.8618224,6.11130748 L93.6988224,6.89930748 C92.9580254,7.01255253 92.3426973,7.53043104 92.1046412,8.24101805 C91.8665851,8.95160507 92.0457515,9.73564981 92.5688224,10.2723075 L96.3638224,14.1623075 Z M100.521822,9.90330748 C101.180853,9.8016183 101.746133,9.37878281 102.029822,8.77530748 L103.000822,6.70830748 L103.970822,8.77530748 C104.254895,9.37931253 104.821046,9.80223834 105.480822,9.90330748 L107.850822,10.2663075 L106.068822,12.0923075 C105.625281,12.5466377 105.424089,13.1847371 105.526822,13.8113075 L105.926822,16.2583075 L103.968822,15.1763075 C103.366585,14.8427743 102.63506,14.8427743 102.032822,15.1763075 L100.074822,16.2583075 L100.474822,13.8113075 C100.577889,13.1844103 100.376672,12.5458624 99.9328224,12.0913075 L98.1498224,10.2663075 L100.521822,9.90330748 Z M4.36382237,14.1633075 L3.46382237,19.6793075 C3.34053444,20.4353079 3.65986792,21.1953174 4.28612649,21.6363805 C4.91238505,22.0774436 5.7355475,22.1220744 6.40582237,21.7513075 L11.0008224,19.2113075 L15.5958224,21.7513075 C16.2660344,22.1214902 17.088769,22.0765576 17.714681,21.6355887 C18.340593,21.1946198 18.6598234,20.4350126 18.5368224,19.6793075 L17.6368224,14.1623075 L21.4328224,10.2723075 C21.9558933,9.73564981 22.1350597,8.95160507 21.8970035,8.24101805 C21.6589474,7.53043104 21.0436194,7.01255253 20.3028224,6.89930748 L15.1398224,6.11030748 L12.8108224,1.15130748 C12.4815793,0.448745465 11.7757053,3.55271368e-15 10.9998224,3.55271368e-15 C10.2239394,3.55271368e-15 9.5180654,0.448745465 9.18882237,1.15130748 L6.86082237,6.11130748 L1.69782237,6.89930748 C0.957025376,7.01255253 0.341697319,7.53043104 0.103641189,8.24101805 C-0.134414941,8.95160507 0.0447514592,9.73564981 0.567822368,10.2723075 L4.36382237,14.1633075 Z M8.52182237,9.90330748 C9.18085302,9.8016183 9.74613309,9.37878281 10.0298224,8.77530748 L11.0008224,6.70830748 L11.9708224,8.77530748 C12.2548955,9.37931253 12.8210461,9.80223834 13.4808224,9.90330748 L15.8508224,10.2663075 L14.0688224,12.0923075 C13.6252814,12.5466377 13.424089,13.1847371 13.5268224,13.8113075 L13.9268224,16.2583075 L11.9688224,15.1763075 C11.3665847,14.8427743 10.63506,14.8427743 10.0328224,15.1763075 L8.07482237,16.2583075 L8.47482237,13.8113075 C8.57788888,13.1844103 8.37667205,12.5458624 7.93282237,12.0913075 L6.14982237,10.2663075 L8.52182237,9.90330748 Z" id="Shape"></path>
            <path d="M108.820822,32.0012994 C108.090365,32.0024013 107.36834,32.1574375 106.701822,32.4563075 L58.2708224,53.9863075 C57.2683605,54.4322892 56.1264612,54.4456722 55.1138224,54.0233075 L7.18882237,34.0303075 C5.59445544,33.3576282 3.76939869,33.5262036 2.32522271,34.4795446 C0.881046733,35.4328856 0.00881981514,37.0448626 0.000822368001,38.7753075 L0.000822368001,102.079307 C0.00453654113,104.182804 1.28786553,106.072358 3.24182237,106.851307 L55.2518224,127.714307 C56.1824649,128.087811 57.2196436,128.097093 58.1568224,127.740307 L110.674822,107.729307 C112.673567,106.972952 113.997171,105.060371 114.000822,102.923307 L114.000822,37.1543075 C113.990898,34.3019591 111.673184,31.9963257 108.820822,32.0012994 Z M110.000822,102.923307 C109.99889,103.40116 109.699646,103.827284 109.250822,103.991307 L59.0008224,123.141307 L59.0008224,103.546307 L57.0008224,102.440307 L55.0008224,103.546307 L55.0008224,123.304307 L4.73082237,103.139307 C4.29295788,102.969337 4.00347818,102.548997 4.00082237,102.079307 L4.00082237,38.7753075 C4.01283855,38.1339734 4.53737988,37.6210094 5.17882237,37.6233075 C5.34055989,37.6242961 5.50042844,37.6579705 5.64882237,37.7223075 L53.5728224,57.7153075 C54.0340048,57.9063369 54.5121023,58.0536499 55.0008224,58.1553075 L55.0008224,73.3593075 C56.2914408,72.8820101 57.7102039,72.8820101 59.0008224,73.3593075 L59.0008224,58.0053075 L58.8778224,58.0053075 C59.2246055,57.9073334 59.5643782,57.7860576 59.8948224,57.6423075 L108.326822,36.1113075 C108.481757,36.0398216 108.650194,36.0023153 108.820822,36.0012957 C109.463206,35.9984614 109.988801,36.5120303 110.000822,37.1543075 L110.000822,102.923307 Z" id="Shape"></path>
            <path d="M67.3028224,84.6633075 L61.4478224,83.7703075 L58.8118224,78.1513075 C58.4825793,77.4487455 57.7767053,77 57.0008224,77 C56.2249394,77 55.5190654,77.4487455 55.1898224,78.1513075 L52.5538224,83.7703075 L46.6988224,84.6633075 C45.957608,84.7762907 45.3418468,85.2943549 45.1037356,86.0053169 C44.8656244,86.716279 45.0451647,87.5007009 45.5688224,88.0373075 L49.8638224,92.4383075 L48.8468224,98.6783075 C48.7233623,99.4341787 49.0424069,100.194178 49.6684131,100.635426 C50.2944193,101.076674 51.1174401,101.121674 51.7878224,100.751307 L57.0008224,97.8713075 L62.2138224,100.751307 C62.8840344,101.12149 63.706769,101.076558 64.332681,100.635589 C64.958593,100.19462 65.2778234,99.4350126 65.1548224,98.6793075 L64.1378224,92.4393075 L68.4328224,88.0373075 C68.95648,87.5007009 69.1360203,86.716279 68.8979092,86.0053169 C68.659798,85.2943549 68.0440367,84.7762907 67.3028224,84.6633075 Z M60.5688224,90.3683075 C60.1252814,90.8226377 59.924089,91.4607371 60.0268224,92.0873075 L60.5448224,95.2593075 L57.9688224,93.8353075 C57.3665847,93.5017743 56.63506,93.5017743 56.0328224,93.8353075 L53.4568224,95.2593075 L53.9748224,92.0873075 C54.0775558,91.4607371 53.8763633,90.8226377 53.4328224,90.3683075 L51.1508224,88.0313075 L54.2128224,87.5643075 C54.8722258,87.4629282 55.4379411,87.0400476 55.7218224,86.4363075 L57.0008224,83.7093075 L58.2808224,86.4353075 C58.5645117,87.0387828 59.1297917,87.4616183 59.7888224,87.5633075 L62.8508224,88.0303075 L60.5688224,90.3683075 Z" id="Shape"></path>
        </g>
    </g>
</svg>