<?xml version="1.0" encoding="UTF-8"?>
<svg width="60px" height="60px" viewBox="0 0 60 60" version="1.1" xmlns="http://www.w3.org/2000/svg" xmlns:xlink="http://www.w3.org/1999/xlink">
    <title>coffee-maker-2081866</title>
    <g id="Page-1" stroke="none" strokeWidth="1" fill="none" fillRule="evenodd">
        <g id="coffee-maker-2081866" fill="#181818" fillRule="nonzero">
            <path d="M59,0 L1,0 C0.595603891,0 0.231065739,0.2437275 0.0763218112,0.617345442 C-0.0784221167,0.990963384 0.00709187369,1.42100575 0.292999789,1.707 L6.29299979,7.707 C6.48049252,7.89454937 6.73480498,7.99994336 7,8 L13.7639998,8 L21.5529998,11.9 C21.692256,11.9674687 21.8452696,12.0016999 22,12 L23.5,12 L26.1999998,15.6 C26.3888542,15.8518058 26.6852425,16 27,16 L15,16 L15,15 C15,14.4477153 14.5522845,14 14,14 L6,14 C4.34314554,14 3,15.3431458 3,17 C3,18.6568542 4.34314554,20 6,20 L14,20 C14.5522845,20 15,19.5522847 15,19 L15,18 L27.1839998,18 C27.6688521,19.3765475 29.0758439,20.2026937 30.5141778,19.9553873 C31.9525117,19.7080809 33.0027652,18.4594373 33,17 L33,16 C33.3147571,16 33.6111454,15.8518058 33.7999998,15.6 L36.5,12 L38,12 C38.1551271,12.0001447 38.3081609,11.9641972 38.4469998,11.895 L46.2359998,8 L50,8 L50,50 L39.6839998,50 C42.8110059,48.0391842 44.9537942,44.8382783 45.5749998,41.2 L47.9329998,27.487 C47.9575984,27.3860748 47.9746455,27.2834576 47.9839998,27.18 L47.9839998,27.165 L47.9839998,27.165 C47.9889998,27.11 47.9989998,27.057 47.9989998,27.001 C47.9989998,23.054 36.6849998,22.001 29.9989998,22.001 C23.3129998,22.001 11.9989998,23.054 11.9989998,27.001 C11.9989853,27.2447429 12.0437271,27.4864168 12.1309998,27.714 L12.1919998,28.001 L11,28.001 C7.13583413,28.0054086 4.00440843,31.1368343 4,35.001 C4.00991925,43.280997 10.7200021,49.9906326 19,50 L5,50 C2.23857612,50 0,52.2385763 0,55 C0,57.7614237 2.23857612,60 5,60 L59,60 C59.5522845,60 60,59.5522847 60,59 L60,1 C60,0.44771525 59.5522845,0 59,0 Z M12.9999998,18 L5.99999979,18 C5.44771504,18 4.99999979,17.5522847 4.99999979,17 C4.99999979,16.4477153 5.44771504,16 5.99999979,16 L12.9999998,16 L12.9999998,18 Z M30.9999998,17 C30.9999998,17.5522847 30.5522845,18 29.9999998,18 C29.447715,18 28.9999998,17.5522847 28.9999998,17 L28.9999998,16 L30.9999998,16 L30.9999998,17 Z M32.4999998,14 L27.4999998,14 L25.9999998,12 L33.9999998,12 L32.4999998,14 Z M37.7639998,10 L22.2359998,10 L18.2359998,8 L41.7639998,8 L37.7639998,10 Z M29.9999998,24 C39.9259998,24 45.7289998,25.958 45.9899998,26.974 L45.9789998,27.038 C45.6439998,28.069 39.8589998,30 29.9999998,30 C20.2819998,30 14.5269998,28.125 14.0439998,27.083 L14.0169998,26.967 C14.3359998,25.937 20.1259998,24 29.9999998,24 Z M5.99999979,35 C6.00495329,32.2406307 8.24063045,30.0049535 10.9999998,30 L12.6229998,30 L15.1419998,41.727 C15.637359,44.0759434 16.7805085,46.2392673 18.4419998,47.972 C11.4919288,47.6734117 6.00857198,41.9564767 5.99999979,35 Z M17.0999998,41.31 L14.6299998,29.819 C18.3779998,31.482 25.3199998,32 29.9999998,32 C34.7389998,32 41.7999998,31.469 45.5119998,29.755 L43.5999998,40.86 C42.7025786,46.1444932 38.1201458,50.0082788 32.7599998,50.0000133 L27.8499998,50.0000133 C22.6668392,49.9977781 18.1884631,46.3775839 17.0999998,41.31 Z M57.9999998,58 L4.99999979,58 C3.34314554,58 1.99999979,56.6568542 1.99999979,55 C1.99999979,53.3431458 3.34314554,52 4.99999979,52 L57.9999998,52 L57.9999998,58 Z M57.9999998,50 L51.9999998,50 L51.9999998,8 L57.9999998,8 L57.9999998,50 Z M57.9999998,6 L7.41399979,6 L3.41399979,2 L57.9999998,2 L57.9999998,6 Z" id="Shape"></path>
        </g>
    </g>
</svg>