<?xml version="1.0" encoding="UTF-8"?>
<svg width="64px" height="63px" viewBox="0 0 64 63" version="1.1" xmlns="http://www.w3.org/2000/svg" xmlns:xlink="http://www.w3.org/1999/xlink">
    <title>DISHES_AND_SILVERWARE</title>
    <g id="Page-1" stroke="none" strokeWidth="1" fill="none" fillRule="evenodd">
        <g id="DISHES_AND_SILVERWARE" transform="translate(0.000000, -0.000000)" fill="#181818" fillRule="nonzero">
            <path d="M59.283,62.376 C57.9258375,62.376 56.634485,61.7911932 55.7388641,60.7715103 C54.8432432,59.7518273 54.4301049,58.3958461 54.605,57.05 L56.966,38.918 C53.780918,36.8690255 51.8549804,33.3422206 51.853,29.555 L51.853,21.198 C51.853,9.423 57.545,4.66 62.503,1.824 C62.8125236,1.64812902 63.1921212,1.64969404 63.5001841,1.82811122 C63.808247,2.0065284 63.9985117,2.33500391 64,2.691 L64,57.66 C64,60.26 61.884,62.376 59.283,62.376 L59.283,62.376 Z M62,4.471 C57.76,7.243 53.853,11.632 53.853,21.197 L53.853,29.555 C53.8546409,32.8623399 55.6434404,35.9106042 58.53,37.525 C58.8874987,37.7246211 59.0871853,38.1220133 59.034,38.528 L56.588,57.308 C56.4880025,58.0831635 56.7262917,58.8638846 57.2421074,59.4510916 C57.7579232,60.0382986 58.5014136,60.3752396 59.283,60.376 C60.7824825,60.3743478 61.9977958,59.1594817 62,57.66 L62,4.471 L62,4.471 Z" id="Shape"></path>
            <path d="M54.932,11.8600015 C54.6343413,11.8605163 54.3519884,11.7281405 54.162,11.499 C49.1948233,5.49212911 41.8025607,2.02010577 34.008,2.033 C27.4342793,2.02761373 21.0999973,4.49991184 16.268,8.957 C16.0048739,9.19886882 15.6326999,9.28198871 15.2916723,9.17504922 C14.9506447,9.06810973 14.6925737,8.78735751 14.6146723,8.43854921 C14.5367708,8.08974091 14.6508739,7.7258688 14.914,7.484 C20.115256,2.68763581 26.9328223,0.0272353502 34.008,0.0329619913 C42.3978465,0.0192145446 50.3547574,3.75596243 55.702,10.221 C55.9498572,10.5193619 56.0028197,10.934142 55.8378874,11.2852122 C55.6729551,11.6362824 55.3198826,11.8603078 54.932,11.8600015 L54.932,11.8600015 Z M34.008,56.423 C24.8935874,56.4178467 16.3435693,52.0081785 11.055,44.585 C10.8381188,44.294193 10.7957418,43.908735 10.9442643,43.5777558 C11.0927867,43.2467765 11.4089122,43.0221917 11.770335,42.9908908 C12.1317578,42.9595899 12.481787,43.1264827 12.685,43.427 C17.5984893,50.3222938 25.541157,54.4182265 34.008,54.423 C43.382,54.423 52.094,49.366 56.747,41.224 C56.9195461,40.9047347 57.2515188,40.7040085 57.6143996,40.6994533 C57.9772804,40.6950511 58.314106,40.8875228 58.4944792,41.2024324 C58.6748524,41.5173419 58.670459,41.9052563 58.483,42.216 C53.476,50.98 44.098,56.423 34.008,56.423 L34.008,56.423 Z" id="Shape"></path>
            <path d="M34.005,43.376 C25.651,43.376 18.855,36.579 18.855,28.226 C18.855,19.873 25.651,13.075 34.005,13.075 C42.359,13.075 49.155,19.872 49.155,28.225 C49.155,36.578 42.359,43.375 34.005,43.375 L34.005,43.376 Z M34.005,15.075 C26.754,15.075 20.855,20.975 20.855,28.225 C20.855,35.475 26.754,41.375 34.005,41.375 C41.256,41.375 47.155,35.476 47.155,28.225 C47.155,20.974 41.255,15.075 34.005,15.075 Z M8.297,21.171 C3.722,21.171 0,17.45 0,12.875 L0,1 C0,0.44771525 0.44771525,3.55271368e-15 1,3.55271368e-15 C1.55228475,3.55271368e-15 2,0.44771525 2,1 L2,12.875 C2,16.346 4.825,19.171 8.297,19.171 C11.769,19.171 14.594,16.346 14.594,12.875 L14.594,1 C14.594,0.44771525 15.0417153,3.55271368e-15 15.594,3.55271368e-15 C16.1462847,3.55271368e-15 16.594,0.44771525 16.594,1 L16.594,12.875 C16.594,17.45 12.872,21.171 8.297,21.171 L8.297,21.171 Z" id="Shape"></path>
            <path d="M8.297,13.994 C7.74471525,13.994 7.297,13.5462847 7.297,12.994 L7.297,1 C7.297,0.44771525 7.74471525,0 8.297,0 C8.84928475,0 9.297,0.44771525 9.297,1 L9.297,12.994 C9.297,13.5462847 8.84928475,13.994 8.297,13.994 L8.297,13.994 Z M8.3,62.3750462 C6.87949823,62.3805011 5.52000459,61.7981195 4.544,60.766 C3.55984006,59.7419229 3.04299891,58.3564412 3.116,56.938 L4.894,19.668 C4.921,19.117 5.389,18.707 5.941,18.716 C6.2059656,18.7286906 6.45503213,18.8461392 6.63338757,19.042499 C6.811743,19.2388587 6.90477139,19.4980383 6.892,19.763 L5.114,57.033 C5.072,57.913 5.384,58.749 5.991,59.386 C7.207,60.662 9.393,60.66 10.608,59.386 C11.2130611,58.756234 11.530514,57.9041425 11.485,57.032 L9.697,19.763 C9.67039573,19.2116088 10.0956261,18.7429602 10.647,18.716 C11.185,18.676 11.668,19.116 11.695,19.667 L13.483,56.936 C13.5568279,58.3549768 13.0403155,59.7412715 12.056,60.766 C11.0798971,61.7985741 9.71989755,62.3810173 8.299,62.3750462 L8.3,62.3750462 Z" id="Shape"></path>
        </g>
    </g>
</svg>