<?xml version="1.0" encoding="UTF-8"?>
<svg width="21px" height="21px" viewBox="0 0 21 21" version="1.1" xmlns="http://www.w3.org/2000/svg" xmlns:xlink="http://www.w3.org/1999/xlink">
    <title>FREE-PARKING</title>
    <g id="Page-1" stroke="none" stroke-width="1" fill="none" fill-rule="evenodd">
        <g id="FREE-PARKING">
            <path d="M10.5,0.5 C13.2614286,0.5 15.7614287,1.61928549 17.5710716,3.42892839 C19.3807145,5.23857129 20.5,7.73857143 20.5,10.5 C20.5,13.2614286 19.3807145,15.7614287 17.5710716,17.5710716 C15.7614287,19.3807145 13.2614286,20.5 10.5,20.5 C7.73857143,20.5 5.23857129,19.3807145 3.42892839,17.5710716 C1.61928549,15.7614287 0.5,13.2614286 0.5,10.5 C0.5,7.73857143 1.61928549,5.23857129 3.42892839,3.42892839 C5.23857129,1.61928549 7.73857143,0.5 10.5,0.5 Z" id="Stroke-1" stroke="#181818"></path>
            <path d="M14.1077,8.2292 C14.1077,8.8962 13.8897,9.4562 13.4607,9.8942 C13.0317,10.3312 12.3727,10.5522 11.5027,10.5522 L8.7337,10.5522 L8.7337,5.8832 L11.5027,5.8832 C12.3727,5.8832 13.0307,6.1072 13.4607,6.5492 C13.8897,6.9922 14.1077,7.5572 14.1077,8.2292 M14.2437,5.8132 C13.5957,5.2092 12.6747,4.9022 11.5027,4.9022 L7.6187,4.9022 L7.6187,16.0972 L8.7337,16.0972 L8.7337,11.5332 L11.5027,11.5332 C12.6747,11.5332 13.5967,11.2302 14.2427,10.6302 C14.8927,10.0282 15.2217,9.2162 15.2217,8.2142 C15.2217,7.2272 14.8927,6.4202 14.2437,5.8132" id="Fill-3" fill="#181818" fill-rule="nonzero"></path>
        </g>
    </g>
</svg>