<?xml version="1.0" encoding="UTF-8"?>
<svg width="78px" height="128px" viewBox="0 0 78 128" version="1.1" xmlns="http://www.w3.org/2000/svg" xmlns:xlink="http://www.w3.org/1999/xlink">
    <title>eating-chair-1430000</title>
    <g id="Page-1" stroke="none" strokeWidth="1" fill="none" fillRule="evenodd">
        <g id="eating-chair-1430000" transform="translate(0.000000, 0.000000)" fill="#181818" fillRule="nonzero">
            <path d="M77.95009,123.378 L70.59309,77 L72.00009,77 C74.208315,76.9977951 75.997885,75.208225 76.00009,73 L76.00009,65.646 C75.9981643,64.8448827 75.6775899,64.077447 75.10909,63.513 L67.85909,56.344 L63.30009,5.571 C63.0454413,2.44711959 60.4521687,0.0320206793 57.31809,0 L20.68009,0 C17.5522827,0.0319720974 14.9625478,2.43889198 14.70209,5.556 L10.14009,56.344 L2.89008997,63.514 C2.32238812,64.0784918 2.00223606,64.8454178 2.00008997,65.646 L2.00008997,73 C2.0028448,75.2079969 3.79209307,76.9972452 6.00008997,77 L7.40808997,77 L0.0490899688,123.378 C-0.133399433,124.528586 0.198162668,125.701299 0.956089969,126.586 C1.72426785,127.484724 2.84780423,128.001536 4.03008997,128.000106 L9.05808997,128.000106 C11.0383835,128.014316 12.7313622,126.578133 13.04009,124.622 L16.31309,104 L61.68609,104 L64.95909,124.622 C65.2677617,126.577755 66.9601745,128.013819 68.94009,128.000106 L73.96809,128.000106 C75.1512945,128.002143 76.2758141,127.48485 77.04409,126.585 C77.8018527,125.700607 78.1334124,124.528267 77.95109,123.378 L77.95009,123.378 Z M18.68809,5.898 C18.7626749,4.84601717 19.6257325,4.02368618 20.68009,4 L57.32009,4 C58.3800097,4.024722 59.2454595,4.85501566 59.31409,5.913 L63.72309,55 L14.27609,55 L18.68809,5.898 Z M13.14309,59 L64.85609,59 L70.92409,65 L7.07508997,65 L13.14309,59 Z M6.00008997,73 L6.00008997,69 L72.00009,69 L72.00009,73 L6.00008997,73 Z M59.78209,92 L18.21609,92 L20.59609,77 L57.40209,77 L59.78209,92 Z M9.09008997,123.995 L4.00008997,124.005 L11.45709,77 L16.54709,77 L9.09008997,123.995 Z M16.94709,100 L17.58209,96 L60.41709,96 L61.05209,100 L16.94709,100 Z M68.90709,123.988 L61.45409,77 L66.53709,77 L73.96909,124 L68.90709,123.988 Z" id="Shape"></path>
            <path d="M39.00009,21.329 C35.6584186,19.2042745 31.291452,19.6732161 28.47709,22.459 C26.8919466,24.0326474 26.0004495,26.1738828 26.0004495,28.4075 C26.0004495,30.6411172 26.8919466,32.7823526 28.47709,34.356 L37.58909,43.418 C38.3691649,44.1934472 39.6290151,44.1934472 40.40909,43.418 L49.52209,34.356 C51.1077291,32.7826172 51.9995695,30.6412827 51.9995695,28.4075 C51.9995695,26.1737173 51.1077291,24.0323828 49.52209,22.459 C46.7080548,19.6733772 42.3414506,19.20443 39.00009,21.329 Z M46.70209,31.521 L39.00009,39.18 L31.29709,31.52 C30.4669814,30.6969747 30.0000311,29.5764529 30.0000311,28.4075 C30.0000311,27.2385471 30.4669814,26.1180253 31.29709,25.295 C33.0399717,23.5705834 35.8462082,23.5705834 37.58909,25.295 C38.3689391,26.0709944 39.6292408,26.0709944 40.40909,25.295 C42.1514197,23.568294 44.9597602,23.568294 46.70209,25.295 C47.533004,26.1177984 48.000495,27.2386346 48.000495,28.408 C48.000495,29.5773654 47.533004,30.6982016 46.70209,31.521 L46.70209,31.521 Z" id="Shape"></path>
            <circle id="Oval" cx="24.00009" cy="12" r="2"></circle>
            <circle id="Oval" cx="21.00009" cy="47" r="2"></circle>
            <circle id="Oval" cx="54.00009" cy="12" r="2"></circle>
            <circle id="Oval" cx="57.00009" cy="47" r="2"></circle>
        </g>
    </g>
</svg>