<?xml version="1.0" encoding="UTF-8"?>
<svg width="60px" height="52px" viewBox="0 0 60 52" version="1.1" xmlns="http://www.w3.org/2000/svg" xmlns:xlink="http://www.w3.org/1999/xlink">
    <title>HOT_WATER</title>
    <g id="Page-1" stroke="none" strokeWidth="1" fill="none" fillRule="evenodd">
        <g id="HOT_WATER" transform="translate(0.000000, -0.000000)" fill="#181818" fillRule="nonzero">
            <path d="M58.9999898,27 L52.0819898,27 C49.8622236,26.9901304 47.7422629,27.9214741 46.2479898,29.563 C44.2496552,31.6956836 41.0011287,32.0681046 38.5719898,30.443 L36.8999898,29.305 C36.6687384,27.2758813 36.0219638,25.3161542 34.9999898,23.548 L34.9999898,13 C34.9917238,5.82372494 29.1762649,0.00826601904 21.9999898,0 L15.9999898,0 C8.82371474,0.00826601904 3.00825582,5.82372494 2.9999898,13 L2.9999898,23.548 C1.69058196,25.8133075 1.00078739,28.383482 0.999989799,31 L0.999989799,46.78 C0.0728455758,47.6066257 -0.246429651,48.9205086 0.197982478,50.0804243 C0.642394607,51.2403399 1.75786014,52.0045137 2.9999898,52.0000199 L34.9999898,52.0000199 C36.2421195,52.0045137 37.357585,51.2403399 37.8019971,50.0804243 C38.2464092,48.9205086 37.927134,47.6066257 36.9999898,46.78 L36.9999898,40.55 L40.3079898,40.943 C40.625249,40.9808875 40.9444764,40.999921 41.2639898,41 C43.4797834,41.0100431 45.5959245,40.0800749 47.0869898,38.441 L48.7369898,36.608 C49.8514249,35.3886593 51.430123,34.6983195 53.0819898,34.708 L57.9999898,34.708 C58.3726641,34.7077931 58.7143048,34.5003679 58.8864112,34.1698144 C59.0585175,33.839261 59.0325323,33.4404273 58.8189898,33.135 L57.3129898,30.983 L59.6889898,28.721 C59.9827019,28.4387269 60.0758324,28.0065045 59.9244278,27.6283226 C59.7730232,27.2501407 59.40735,27.0015997 58.9999898,27 Z M4.9999898,13 C5.0071533,6.92783745 9.92782725,2.0071635 15.9999898,2 L21.9999898,2 C28.0721524,2.0071635 32.9928263,6.92783745 32.9999898,13 L32.9999898,20.836 C30.8671631,18.5168922 28.0571933,16.9295917 24.9699898,16.3 C24.8296397,13.9545185 23.5278949,11.8338374 21.4999898,10.647 C22.3277381,9.39420157 22.1017696,7.72238734 20.9711338,6.73429125 C19.840498,5.74619516 18.1534816,5.74619516 17.0228458,6.73429125 C15.89221,7.72238734 15.6662415,9.39420157 16.4939898,10.647 C14.4683877,11.8352758 13.169049,13.9557035 13.0299898,16.3 C9.94278634,16.9295917 7.13281653,18.5168922 4.9999898,20.836 L4.9999898,13 Z M18.9999898,12 C20.9319898,12 22.5479898,13.721 22.9199898,16 L15.0799898,16 C15.4519898,13.721 17.0679898,12 18.9999898,12 Z M17.9999898,9 C17.9999898,8.44771525 18.447705,8 18.9999898,8 C19.5522745,8 19.9999898,8.44771525 19.9999898,9 C19.9999898,9.55228475 19.5522745,10 18.9999898,10 C18.447705,10 17.9999898,9.55228475 17.9999898,9 Z M15.9999898,17.9999957 L21.9999898,17.9999957 C23.3084896,17.9989339 24.6095952,18.1961733 25.8589898,18.585 C21.8531713,21.8049427 16.1468083,21.8049427 12.1409898,18.585 C13.3903844,18.1961733 14.69149,17.9989339 15.9999898,17.9999957 Z M2.9999898,31 C3.00651695,26.1238969 5.74014487,21.661146 10.0809898,19.44 C15.0797694,24.1864396 22.9202102,24.1864396 27.9189898,19.44 C32.2598347,21.661146 34.9934626,26.1238969 34.9999898,31 L34.9999898,46 L2.9999898,46 L2.9999898,31 Z M34.9999898,50 L2.9999898,50 C2.44770505,50 1.9999898,49.5522847 1.9999898,49 C1.9999898,48.4477153 2.44770505,48 2.9999898,48 L34.9999898,48 C35.5522745,48 35.9999898,48.4477153 35.9999898,49 C35.9999898,49.5522847 35.5522745,50 34.9999898,50 Z M55.1809898,31.43 L56.0809898,32.712 L53.0809898,32.712 C50.8628845,32.7019564 48.744276,33.6317316 47.2499898,35.271 L45.5999898,37.1 C44.3151153,38.5020254 42.4295215,39.1929499 40.5429898,38.953 L36.9999898,38.536 L36.9999898,31.793 L37.4469898,32.093 C40.6971242,34.3117132 45.0846124,33.8000528 47.7369898,30.893 C48.8526721,29.6762479 50.4312018,28.9885248 52.0819898,29 L56.4999898,29 L55.3109898,30.132 C54.9525697,30.4729545 54.8973065,31.0247362 55.1809898,31.43 Z" id="Shape"></path>
        </g>
    </g>
</svg>