<?xml version="1.0" encoding="UTF-8"?>
<svg width="57px" height="60px" viewBox="0 0 57 60" version="1.1" xmlns="http://www.w3.org/2000/svg" xmlns:xlink="http://www.w3.org/1999/xlink">
    <title>INTERNET</title>
    <g id="Page-1" stroke="none" strokeWidth="1" fill="none" fillRule="evenodd">
        <g id="INTERNET" fill="#181818" fillRule="nonzero">
            <path d="M55.439214,20.188 L48.409214,15.668 L48.409214,6.817 C49.6048509,6.39587031 50.4058732,5.26763039 50.409214,4 L50.409214,3 C50.4075603,1.34383121 49.0653828,0.00165368949 47.409214,0 L40.409214,0 C38.7530452,0.00165368949 37.4108677,1.34383121 37.409214,3 L37.409214,4 C37.4129773,5.26726301 38.213922,6.39499315 39.409214,6.816 L39.409214,9.883 L30.031214,3.854 C29.0423858,3.22145316 27.7760422,3.22145316 26.787214,3.854 L1.37921397,20.188 C0.0890001346,21.0152913 -0.368792159,22.6829324 0.318213972,24.053 L1.52121397,26.458 C1.90571164,27.2147494 2.59111381,27.7745957 3.40938738,28.000287 C4.22766094,28.2259782 5.10314789,28.096647 5.82121397,27.644 L8.40921397,25.987 L8.40921397,54 C6.75235972,54 5.40921397,55.3431458 5.40921397,57 C5.40921397,58.6568542 6.75235972,60 8.40921397,60 L48.409214,60 C50.0660682,60 51.409214,58.6568542 51.409214,57 C51.409214,55.3431458 50.0660682,54 48.409214,54 L48.409214,25.987 L50.997214,27.644 C51.7151537,28.0967186 52.5905405,28.2261992 53.4087967,28.000703 C54.2270528,27.7752069 54.9125344,27.21558 55.297214,26.459 L56.500214,24.053 C57.1872201,22.6829324 56.7294278,21.0152913 55.439214,20.188 L55.439214,20.188 Z M39.409214,3 C39.4097652,2.44794374 39.8571577,2.00055123 40.409214,2 L47.409214,2 C47.9612702,2.00055123 48.4086627,2.44794374 48.409214,3 L48.409214,4 C48.4086627,4.55205626 47.9612702,4.99944877 47.409214,5 L40.409214,5 C39.8571577,4.99944877 39.4097652,4.55205626 39.409214,4 L39.409214,3 Z M41.409214,7 L46.409214,7 L46.409214,14.383 L41.409214,11.169 L41.409214,7 Z M49.409214,57 C49.4086627,57.5520563 48.9612702,57.9994488 48.409214,58 L8.40921397,58 C7.85692922,58 7.40921397,57.5522847 7.40921397,57 C7.40921397,56.4477153 7.85692922,56 8.40921397,56 L48.409214,56 C48.9612702,56.0005512 49.4086627,56.4479437 49.409214,57 Z M46.409214,24.707 L46.409214,54 L10.409214,54 L10.409214,24.707 L28.409214,13.187 L46.409214,24.707 Z M54.712214,23.159 L53.509214,25.564 C53.3816723,25.8167876 53.1532285,26.0038927 52.8802681,26.079133 C52.6073077,26.1543733 52.3152616,26.1107389 52.076214,25.959 L28.948214,11.158 C28.6196382,10.947741 28.1987898,10.947741 27.870214,11.158 L4.74321397,25.959 C4.50409114,26.111087 4.21179023,26.1549198 3.93857526,26.0796618 C3.66536029,26.0044038 3.43673237,25.8170795 3.30921397,25.564 L2.10621397,23.159 C1.87715015,22.7023441 2.02993755,22.1464397 2.46021397,21.871 L27.868214,5.537 C28.1980301,5.32603306 28.6203978,5.32603306 28.950214,5.537 L54.358214,21.87 C54.7884904,22.1454397 54.9412778,22.7013441 54.712214,23.158 L54.712214,23.159 Z M28.409214,49.916 C26.4762173,49.916 24.909214,48.3489966 24.909214,46.416 C24.909214,44.4830034 26.4762173,42.916 28.409214,42.916 C30.3422106,42.916 31.909214,44.4830034 31.909214,46.416 C31.909214,48.3489966 30.3422106,49.916 28.409214,49.916 L28.409214,49.916 Z M28.409214,44.869 C27.5548295,44.869 26.862214,45.5616155 26.862214,46.416 C26.862214,47.2703845 27.5548295,47.963 28.409214,47.963 C29.2635985,47.963 29.956214,47.2703845 29.956214,46.416 C29.956214,45.5616155 29.2635985,44.869 28.409214,44.869 L28.409214,44.869 Z M40.702214,32.783 C33.9429526,26.0151596 23.0150486,25.8872388 16.099214,32.495 C15.6990837,32.8760765 15.0657904,32.8606303 14.684714,32.4605 C14.3036375,32.0603697 14.3190837,31.4270765 14.719214,31.046 C22.4214674,23.6895163 34.5895374,23.8329731 42.116214,31.369 C42.4951862,31.7613789 42.4897663,32.3850848 42.1040325,32.7708186 C41.7182987,33.1565524 41.0945929,33.1619722 40.702214,32.783 L40.702214,32.783 Z M38.402214,35.131 C38.7811862,35.5233789 38.7757663,36.1470848 38.3900325,36.5328186 C38.0042987,36.9185524 37.3805929,36.9239722 36.988214,36.545 C32.2697518,31.8208227 24.6414125,31.7319868 19.814214,36.345 C19.4140837,36.7260765 18.7807904,36.7106303 18.399714,36.3105 C18.0186375,35.9103697 18.0340837,35.2770765 18.434214,34.896 C24.0478314,29.5342644 32.9163366,29.6386363 38.402214,35.131 Z M34.688214,38.894 C35.0671862,39.2863789 35.0617663,39.9100848 34.6760325,40.2958186 C34.2902987,40.6815524 33.6665929,40.6869722 33.274214,40.308 C30.59698,37.6262707 26.2674438,37.5756276 23.528214,40.194 C23.1283598,40.5750765 22.4952905,40.5598541 22.114214,40.16 C21.7331375,39.7601458 21.7483598,39.1270765 22.148214,38.746 C25.6735929,35.3786321 31.2432909,35.444367 34.688214,38.894 L34.688214,38.894 Z" id="Shape"></path>
        </g>
    </g>
</svg>