<?xml version="1.0" encoding="UTF-8"?>
<svg width="60px" height="60px" viewBox="0 0 60 60" version="1.1" xmlns="http://www.w3.org/2000/svg" xmlns:xlink="http://www.w3.org/1999/xlink">
    <title>KITCHEN</title>
    <g id="Page-1" stroke="none" strokeWidth="1" fill="none" fillRule="evenodd">
        <g id="KITCHEN" transform="translate(-0.000000, 0.000000)" fill="#181818" fillRule="nonzero">
            <path d="M54.9861614,0 L4.98616142,0 C2.60367818,0.00682698268 0.556948556,1.69373947 0.0952653159,4.03107162 C-0.366417924,6.36840377 0.885204586,8.70682567 3.08616142,9.619 L3.44216142,11.575 C4.46934328,17.2406325 4.98608183,22.9870061 4.98616142,28.745 C4.98529791,36.1461864 4.12894841,43.5224696 2.43416142,50.727 L2.16916142,51.855 C1.81937946,53.3418428 2.16840388,54.9070132 3.11675,56.1043805 C4.06509612,57.3017479 5.50872928,57.9999596 7.03616142,58 L9.98616142,58 L9.98616142,59 C9.98616142,59.5522847 10.4338767,60 10.9861614,60 L16.9861614,60 C17.5384462,60 17.9861614,59.5522847 17.9861614,59 L17.9861614,58 L43.9861614,58 L43.9861614,59 C43.9861614,59.5522847 44.4338767,60 44.9861614,60 L50.9861614,60 C51.5384462,60 51.9861614,59.5522847 51.9861614,59 L51.9861614,58 L54.4861614,58 C56.9714428,58 58.9861614,55.9852814 58.9861614,53.5 C58.9861614,51.0147186 56.9714428,49 54.4861614,49 L45.4371614,49 C50.1000208,46.3312774 52.9795156,41.37255 52.9861614,36 L52.9861614,24 C52.9861614,23.4477153 52.5384462,23 51.9861614,23 L46.9861614,23 L46.9861614,25 L50.9861614,25 L50.9861614,36 C50.9778954,43.1762751 45.1624365,48.991734 37.9861614,49 L33.9861614,49 C26.8098864,48.991734 20.9944274,43.1762751 20.9861614,36 L20.9861614,25 L25.9861614,25 L25.9861614,23 L19.9861614,23 C19.4338767,23 18.9861614,23.4477153 18.9861614,24 L18.9861614,36 C18.9928072,41.37255 21.872302,46.3312774 26.5351614,49 L23.0091614,49 C20.470075,49.0001518 18.0490545,47.9277763 16.3429958,46.0472647 C14.6369372,44.1667531 13.8045879,41.6530856 14.0511614,39.126 L16.8931614,10 L19.7501614,10 L27.5391614,13.9 C27.6784176,13.9674687 27.8314313,14.0016999 27.9861614,14 L29.4861614,14 L32.1861614,17.6 C32.3750158,17.8518058 32.6714041,18 32.9861614,18 L34.9861614,18 L34.9861614,20.565 L29.6481614,25.541 C27.9528701,27.0765032 26.9858068,29.2571909 26.9858068,31.5445 C26.9858068,33.8318091 27.9528701,36.0124968 29.6481614,37.548 C31.3184339,39.0800677 33.4929304,39.9458098 35.7591614,39.981 C35.8351614,39.981 35.9091614,40 35.9861614,40 C36.0631614,40 36.1371614,39.986 36.2131614,39.981 C38.4793925,39.9458098 40.6538889,39.0800677 42.3241614,37.548 C44.0194528,36.0124968 44.986516,33.8318091 44.986516,31.5445 C44.986516,29.2571909 44.0194528,27.0765032 42.3241614,25.541 L36.9861614,20.565 L36.9861614,18 L38.9861614,18 C39.3009187,18 39.597307,17.8518058 39.7861614,17.6 L42.4861614,14 L43.9861614,14 C44.1412887,14.0001447 44.2943225,13.9641972 44.4331614,13.895 L52.2221614,10 L54.9861614,10 C57.7475852,10 59.9861614,7.76142375 59.9861614,5 C59.9861614,2.23857625 57.7475852,0 54.9861614,0 Z M32.1161614,36.925 C31.7206902,36.6826191 31.350507,36.4012128 31.0111614,36.085 C29.7211691,34.9279559 28.9841602,33.2768679 28.9841602,31.544 C28.9841602,29.8111321 29.7211691,28.1600441 31.0111614,27.003 L32.2571614,25.842 C30.6174277,29.3439016 30.5660477,33.3825165 32.1161614,36.925 L32.1161614,36.925 Z M34.9861614,37.576 C34.5963356,37.2280685 34.2751304,36.8101965 34.0391614,36.344 C32.6428463,33.29632 32.6428463,29.79168 34.0391614,26.744 L34.9861614,24.979 L34.9861614,37.576 Z M12.0611614,38.932 C11.7598719,42.0205083 12.7771303,45.0925994 14.8621578,47.390929 C16.9471854,49.6892586 19.9059923,51 23.0091614,51 L54.4861614,51 C55.8668733,51 56.9861614,52.1192881 56.9861614,53.5 C56.9861614,54.8807119 55.8668733,56 54.4861614,56 L7.03616142,56 C6.11973722,56 5.25361442,55.5809618 4.68465248,54.8625499 C4.11569053,54.1441381 3.90630027,53.2050715 4.11616142,52.313 L4.38616142,51.185 C6.11389425,43.8300492 6.98634192,36.3001547 6.98616142,28.745 C6.98487535,22.8671198 6.4557504,17.0012292 5.40516142,11.218 L5.18616142,10 L14.8861614,10 L12.0611614,38.932 Z M40.9611614,27 C42.2511538,28.1570441 42.9881626,29.8081321 42.9881626,31.541 C42.9881626,33.2738679 42.2511538,34.9249559 40.9611614,36.082 C40.6218159,36.3982128 40.2516326,36.6796191 39.8561614,36.922 C41.4062751,33.3795165 41.3548951,29.3409016 39.7151614,25.839 L40.9611614,27 Z M37.9331614,26.742 C39.3294766,29.78968 39.3294766,33.29432 37.9331614,36.342 C37.6974031,36.8089112 37.3761864,37.2274766 36.9861614,37.576 L36.9861614,24.976 L37.9331614,26.742 Z M38.4861614,16 L33.4861614,16 L31.9861614,14 L39.9861614,14 L38.4861614,16 Z M43.7501614,12 L28.2221614,12 L24.2221614,10 L47.7501614,10 L43.7501614,12 Z M54.9861615,8 L4.98616147,8 C3.32930719,8 1.98616147,6.65685423 1.98616147,5 C1.98616147,3.34314577 3.32930719,2 4.98616147,2 L54.9861615,2 C56.6430157,2 57.9861615,3.34314577 57.9861615,5 C57.9861615,6.65685423 56.6430157,8 54.9861615,8 Z" id="Shape"></path>
            <rect id="Rectangle" x="37.9861614" y="3" width="6" height="4" rx="1"></rect>
            <circle id="Oval" cx="34.9861614" cy="5" r="1"></circle>
            <circle id="Oval" cx="30.9861614" cy="5" r="1"></circle>
            <circle id="Oval" cx="26.9861614" cy="5" r="1"></circle>
        </g>
    </g>
</svg>