<?xml version="1.0" encoding="UTF-8"?>
<svg width="60px" height="60px" viewBox="0 0 60 60" version="1.1" xmlns="http://www.w3.org/2000/svg" xmlns:xlink="http://www.w3.org/1999/xlink">
    <title>PATH_TO_ENTRANCE_LIT_AT_NIGHT</title>
    <g id="Page-1" stroke="none" strokeWidth="1" fill="none" fillRule="evenodd">
        <g id="PATH_TO_ENTRANCE_LIT_AT_NIGHT" transform="translate(-0.000000, -0.000000)" fill="#181818" fillRule="nonzero">
            <path d="M1.69337776e-05,55.515 C-0.00270032967,56.3270376 0.321701203,57.1059617 0.900034081,57.676 L2.36003408,59.113 C3.56532681,60.2938896 5.49374135,60.2938896 6.69903408,59.113 L7.44003408,58.381 L8.18003408,59.113 C9.38544896,60.2945429 11.3146192,60.2945429 12.5200341,59.113 L35.0870341,36.821 L35.1000341,36.833 C36.305449,38.0145429 38.2346192,38.0145429 39.4400341,36.833 L43.5080341,32.815 L54.7310341,32.815 C55.143292,32.8143302 55.5144457,32.5650853 55.6710604,32.1837339 C55.8276751,31.8023826 55.7388272,31.3642227 55.4460341,31.074 L46.6460341,22.38 C47.9933971,20.3659586 47.717491,17.6782893 45.9890341,15.98 L44.5340341,14.543 C42.7964424,12.8400596 40.1078731,12.5758626 38.0720341,13.908 L29.2540341,5.2 C28.9622974,4.91158374 28.5258413,4.8266874 28.1472647,4.98471909 C27.7686881,5.14275077 27.5221275,5.51276319 27.5220341,5.923 L27.5220341,17 L23.4580341,21.014 C22.8809682,21.5840194 22.5561771,22.3613729 22.5561771,23.1725 C22.5561771,23.9836271 22.8809682,24.7609806 23.4580341,25.331 L21.2680341,27.495 L20.5270341,26.763 C19.3216192,25.5814571 17.392449,25.5814571 16.1870341,26.763 L14.7280341,28.2 C14.14917,28.7700738 13.8232183,29.5485544 13.8232183,30.361 C13.8232183,31.1734456 14.14917,31.9519262 14.7280341,32.522 L15.4510341,33.236 L0.905034081,47.6 C0.326169972,48.1700738 1.69337776e-05,48.9485544 1.69337776e-05,49.761 C1.69337776e-05,50.5734456 0.326169972,51.3519262 0.905034081,51.922 L1.62703408,52.636 L0.905034081,53.35 C0.323870651,53.9201753 -0.00246105283,54.7008473 1.69337776e-05,55.515 Z M43.1000341,15.991 L44.5560341,17.428 C45.4833499,18.3382794 45.723129,19.7402821 45.1510341,20.907 L39.5700341,15.391 C40.7566194,14.8347795 42.1638596,15.0739704 43.1000341,15.991 Z M29.5560341,8.358 L37.2800341,15.989 L37.2800341,15.989 L44.5560341,23.176 L44.5560341,23.176 L52.2560341,30.776 L43.5080341,30.776 L29.5560341,17 L29.5560341,8.358 Z M24.8880341,22.458 L28.5390341,18.852 L41.6430341,31.8 L38.0090341,35.388 C37.5987809,35.7919514 36.9402873,35.7919514 36.5300341,35.388 L30.7090341,29.638 L25.6160341,24.608 L25.6160341,24.608 L24.8880341,23.889 C24.6962445,23.7009318 24.5881798,23.4436129 24.5881798,23.175 C24.5881798,22.9063871 24.6962445,22.6490682 24.8880341,22.461 L24.8880341,22.458 Z M16.1580341,29.645 L17.6120341,28.208 C18.023746,27.8047616 18.6823221,27.8047616 19.0940341,28.208 L19.8170341,28.921 L19.0060341,29.721 L16.9000341,31.805 L16.1600341,31.074 C15.9682445,30.8859318 15.8601798,30.6286129 15.8601798,30.36 C15.8601798,30.0913871 15.9682445,29.8340682 16.1600341,29.646 L16.1580341,29.645 Z M2.33503408,49.051 L24.9000341,26.759 L33.6390341,35.391 L11.0900341,57.666 C10.6790021,58.0689987 10.0210661,58.0689987 9.61003408,57.666 L8.15603408,56.23 L8.15603408,56.23 L3.79003408,51.916 L3.79003408,51.916 L2.33503408,50.479 C2.14324447,50.2909318 2.03517978,50.0336129 2.03517978,49.765 C2.03517978,49.4963871 2.14324447,49.2390682 2.33503408,49.051 Z M2.33503408,54.801 L3.07503408,54.07 L5.99303408,56.952 L5.26903408,57.666 C4.85834218,58.0688791 4.20072598,58.0688791 3.79003408,57.666 L2.33503408,56.229 C2.14324447,56.0409318 2.03517978,55.7836129 2.03517978,55.515 C2.03517978,55.2463871 2.14324447,54.9890682 2.33503408,54.801 Z" id="Shape"></path>
            <rect id="Rectangle" transform="translate(50.996323, 9.275703) rotate(-44.647000) translate(-50.996323, -9.275703) " x="47.9283226" y="8.25870274" width="6.136" height="2.034"></rect>
            <rect id="Rectangle" x="53.8270341" y="21.612" width="6.173" height="2.034"></rect>
            <rect id="Rectangle" x="36.0760341" y="0" width="2.034" height="6.098"></rect>
        </g>
    </g>
</svg>