<?xml version="1.0" encoding="UTF-8"?>
<svg width="40px" height="54px" viewBox="0 0 40 54" version="1.1" xmlns="http://www.w3.org/2000/svg" xmlns:xlink="http://www.w3.org/1999/xlink">
    <title>PATIO_OR_BALCONY</title>
    <g id="Page-1" stroke="none" strokeWidth="1" fill="none" fillRule="evenodd">
        <g id="PATIO_OR_BALCONY" fill="#181818">
            <path d="M36,50 L36,52 L4,52 L4,50 L36,50 Z M2,49 L2,53 C2,53.5522847 2.44771525,54 3,54 L37,54 C37.5522847,54 38,53.5522847 38,53 L38,49 C38,48.4477153 37.5522847,48 37,48 L3,48 C2.44771525,48 2,48.4477153 2,49 Z" id="Shape"></path>
            <path d="M37.9710842,40.9925574 L36.0298575,48.7574644 C35.8959088,49.2932593 36.2216695,49.8361938 36.7574644,49.9701425 C37.2932593,50.1040912 37.8361938,49.7783305 37.9701425,49.2425356 L39.9701425,41.2425356 C40.0099525,41.0832956 40.0099525,40.9167044 39.9701425,40.7574644 L37.9701425,32.7574644 C37.8361938,32.2216695 37.2932593,31.8959088 36.7574644,32.0298575 C36.2216695,32.1638062 35.8959088,32.7067407 36.0298575,33.2425356 L37.9710842,40.9925574 Z M2.02333643,41.0297599 C2.67227179,38.4340185 3.9701425,33.2425356 3.9701425,33.2425356 C4.10409123,32.7067407 3.77833053,32.1638062 3.24253563,32.0298575 C2.70674072,31.8959088 2.16380623,32.2216695 2.0298575,32.7574644 L0.0298574999,40.7574644 C-0.00995249995,40.9167044 -0.00995249995,41.0832956 0.0298574999,41.2425356 L2.0298575,49.2425356 C2.16380623,49.7783305 2.70674072,50.1040912 3.24253563,49.9701425 C3.77833053,49.8361938 4.10409123,49.2932593 3.9701425,48.7574644 C3.9701425,48.7574644 2.00560512,41.1006851 2.02333643,41.0297599 Z" id="Shape"></path>
            <path d="M39,32 L1,32 C0.44771525,32 0,32.4477153 0,33 C0,33.5522847 0.44771525,34 1,34 L39,34 C39.5522847,34 40,33.5522847 40,33 C40,32.4477153 39.5522847,32 39,32 L39,32 Z M4,2 L36,2 L36,29 C36,29.5522847 36.4477153,30 37,30 C37.5522847,30 38,29.5522847 38,29 L38,1 C38,0.44771525 37.5522847,0 37,0 L3,0 C2.44771525,0 2,0.44771525 2,1 L2,29 C2,29.5522847 2.44771525,30 3,30 C3.55228475,30 4,29.5522847 4,29 L4,2 Z" id="Shape"></path>
            <rect id="Rectangle" x="13" y="25" width="4" height="2" rx="1"></rect>
            <rect id="Rectangle" x="23" y="25" width="4" height="2" rx="1"></rect>
            <path d="M19,1 L19,29 C19,29.5522847 19.4477153,30 20,30 C20.5522847,30 21,29.5522847 21,29 L21,1 C21,0.44771525 20.5522847,0 20,0 C19.4477153,0 19,0.44771525 19,1 L19,1 Z" id="Path"></path>
            <path d="M3,13 L37,13 C37.5522847,13 38,12.5522847 38,12 C38,11.4477153 37.5522847,11 37,11 L3,11 C2.44771525,11 2,11.4477153 2,12 C2,12.5522847 2.44771525,13 3,13 L3,13 Z M8.00648217,41.0104004 C8.33508074,38.3816119 8.99227788,33.1240347 8.99227788,33.1240347 C9.06078037,32.5760148 8.67205467,32.0762246 8.12403473,32.0077221 C7.5760148,31.9392196 7.07622462,32.3279453 7.00772212,32.8759653 L6.00772212,40.8759653 C5.99742596,40.9583346 5.99742596,41.0416654 6.00772212,41.1240347 L7.00772212,49.1240347 C7.07622462,49.6720547 7.5760148,50.0607804 8.12403473,49.9922779 C8.67205467,49.9237754 9.06078037,49.4239852 8.99227788,48.8759653 C8.99227788,48.8759653 8.0017474,41.0482785 8.00648217,41.0104004 Z M14.0061638,41.012947 C14.3348685,38.3833096 14.9922779,33.1240347 14.9922779,33.1240347 C15.0607804,32.5760148 14.6720547,32.0762246 14.1240347,32.0077221 C13.5760148,31.9392196 13.0762246,32.3279453 13.0077221,32.8759653 L12.0077221,40.8759653 C11.997426,40.9583346 11.997426,41.0416654 12.0077221,41.1240347 L13.0077221,49.1240347 C13.0762246,49.6720547 13.5760148,50.0607804 14.1240347,49.9922779 C14.6720547,49.9237754 15.0607804,49.4239852 14.9922779,48.8759653 C14.9922779,48.8759653 14.0015352,41.0499762 14.0061638,41.012947 Z M21,49 L21,33 C21,32.4477153 20.5522847,32 20,32 C19.4477153,32 19,32.4477153 19,33 L19,49 C19,49.5522847 19.4477153,50 20,50 C20.5522847,50 21,49.5522847 21,49 L21,49 Z M27.9922779,41.1240347 C28.002574,41.0416654 28.002574,40.9583346 27.9922779,40.8759653 L26.9922779,32.8759653 C26.9237754,32.3279453 26.4239852,31.9392196 25.8759653,32.0077221 C25.3279453,32.0762246 24.9392196,32.5760148 25.0077221,33.1240347 C25.0077221,33.1240347 25.9972804,40.9594989 25.9920596,41.0012657 C25.6639471,43.6261656 25.0077221,48.8759653 25.0077221,48.8759653 C24.9392196,49.4239852 25.3279453,49.9237754 25.8759653,49.9922779 C26.4239852,50.0607804 26.9237754,49.6720547 26.9922779,49.1240347 L27.9922779,41.1240347 Z M33.9922779,41.1240347 C34.002574,41.0416654 34.002574,40.9583346 33.9922779,40.8759653 L32.9922779,32.8759653 C32.9237754,32.3279453 32.4239852,31.9392196 31.8759653,32.0077221 C31.3279453,32.0762246 30.9392196,32.5760148 31.0077221,33.1240347 C31.0077221,33.1240347 31.9976091,40.9568697 31.9925525,40.9973219 C31.6642757,43.6235364 31.0077221,48.8759653 31.0077221,48.8759653 C30.9392196,49.4239852 31.3279453,49.9237754 31.8759653,49.9922779 C32.4239852,50.0607804 32.9237754,49.6720547 32.9922779,49.1240347 L33.9922779,41.1240347 Z" id="Shape"></path>
        </g>
    </g>
</svg>