<svg width="23px" height="45px" viewBox="0 0 23 45" version="1.1" xmlns="http://www.w3.org/2000/svg" xmlns:xlink="http://www.w3.org/1999/xlink">
    <g id="Page-1" stroke="none" stroke-width="1" fill="none" fill-rule="evenodd">
        <g id="PRIVATE_ENTRANCE" transform="translate(1.000000, 1.000000)" stroke="#181818">
            <path d="M20.9991323,10.5005045 L20.9991323,40.6135217 C20.9972207,41.9307446 19.9299724,42.9980882 18.6128672,43 L2.38626503,43 C1.06915988,42.9980882 0.00191162153,41.9307446 0,40.6135217 L0,21.3342482 C0.00114397487,20.4550366 0.520644083,19.6592151 1.32502789,19.30444 C1.32502789,19.30444 17.3633321,17.0090817 17.3633321,10.5005045 C17.3210489,6.73975663 14.2606496,3.71330538 10.5,3.71330538 C6.73935047,3.71330538 3.6789511,6.73975663 3.63666791,10.5005045 C3.63666791,11.5904743 0.000867732738,11.5904743 0.000867732738,10.5005045 C0.000867732738,4.70123602 4.70168361,0 10.5004339,0 C16.2991841,0 21,4.70123602 21,10.5005045 L20.9991323,10.5005045 Z" id="Path"></path>
            <circle id="Oval" cx="10" cy="31" r="7"></circle>
            <rect id="Rectangle" x="6" y="29" width="8" height="2"></rect>
        </g>
    </g>
</svg>