<?xml version="1.0" encoding="UTF-8"?>
<svg width="42px" height="60px" viewBox="0 0 42 60" version="1.1" xmlns="http://www.w3.org/2000/svg" xmlns:xlink="http://www.w3.org/1999/xlink">
    <title>SMOKE_DETECTOR</title>
    <g id="Page-1" stroke="none" strokeWidth="1" fill="none" fillRule="evenodd">
        <g id="SMOKE_DETECTOR" fill="#181818" fillRule="nonzero">
            <path d="M37,6 L5,6 C4.44771525,6 4,5.55228475 4,5 C4,4.44771525 4.44771525,4 5,4 L37,4 C37.5522847,4 38,4.44771525 38,5 C38,5.55228475 37.5522847,6 37,6 Z M42,3 L42,7 C41.9983463,8.65616879 40.6561688,9.99834631 39,10 L36,10 L36,12 C36.9854588,11.8547045 37.9802309,12.1959249 38.6690234,12.9155114 C39.3578159,13.635098 39.6552299,14.6438336 39.467,15.622 L38.197,21.622 C37.8709582,23.0993907 36.5087409,24.1126383 35,24 L35,25 C35,26.6568542 33.6568542,28 32,28 L10,28 C8.34314575,28 7,26.6568542 7,25 L7,24 C5.49138726,24.1121968 4.12942785,23.0991409 3.803,21.622 L2.533,15.622 C2.34764361,14.6443378 2.64604018,13.6373572 3.33411745,12.9185179 C4.02219472,12.1996786 5.01517048,11.8575532 6,12 L6,10 L3,10 C1.34383121,9.99834631 0.00165368949,8.65616879 -1.77635684e-15,7 L-1.77635684e-15,3 C0.00165368949,1.34383121 1.34383121,0.00165368949 3,-2.22044605e-16 L39,-2.22044605e-16 C40.6561688,0.00165368949 41.9983463,1.34383121 42,3 Z M33,24 L9,24 L9,25 C9,25.5522847 9.44771525,26 10,26 L32,26 C32.5522847,26 33,25.5522847 33,25 L33,24 Z M5.468,14 C5.16708582,14.002245 4.88297818,14.1390799 4.6936271,14.3729613 C4.50427602,14.6068428 4.42956781,14.913208 4.49,15.208 L5.76,21.208 C5.85956539,21.6689077 6.26646347,21.9984203 6.738,22 L35.262,22 C35.7332957,21.9983289 36.1398564,21.6687526 36.239,21.208 L37.509,15.208 C37.5697819,14.9133274 37.495343,14.6069231 37.3061382,14.372983 C37.1169333,14.139043 36.8328682,14.0021792 36.532,14 L5.468,14 Z M34,10 L8,10 L8,12 L34,12 L34,10 Z M40,3 C40,2.44771525 39.5522847,2 39,2 L3,2 C2.44794374,2.00055123 2.00055123,2.44794374 2,3 L2,7 C2.00055123,7.55205626 2.44794374,7.99944877 3,8 L39,8 C39.5522847,8 40,7.55228475 40,7 L40,3 Z M24,18 C24,16.3431458 22.6568542,15 21,15 C19.3431458,15 18,16.3431458 18,18 C18,19.6568542 19.3431458,21 21,21 C22.6561688,20.9983463 23.9983463,19.6561688 24,18 Z M22,18 C22,18.5522847 21.5522847,19 21,19 C20.4477153,19 20,18.5522847 20,18 C20,17.4477153 20.4477153,17 21,17 C21.5520563,17.0005512 21.9994488,17.4479437 22,18 Z M26,16 L26,20 C26,20.5522847 26.4477153,21 27,21 C27.5522847,21 28,20.5522847 28,20 L28,16 C28,15.4477153 27.5522847,15 27,15 C26.4477153,15 26,15.4477153 26,16 Z M29,16 L29,20 C29,20.5522847 29.4477153,21 30,21 C30.5522847,21 31,20.5522847 31,20 L31,16 C31,15.4477153 30.5522847,15 30,15 C29.4477153,15 29,15.4477153 29,16 Z M14,16 L14,20 C14,20.5522847 14.4477153,21 15,21 C15.5522847,21 16,20.5522847 16,20 L16,16 C16,15.4477153 15.5522847,15 15,15 C14.4477153,15 14,15.4477153 14,16 Z M11,16 L11,20 C11,20.5522847 11.4477153,21 12,21 C12.5522847,21 13,20.5522847 13,20 L13,16 C13,15.4477153 12.5522847,15 12,15 C11.4477153,15 11,15.4477153 11,16 Z M13,41.593 C13.0167682,40.3368739 12.6012147,39.1131622 11.823,38.127 C10.7407318,36.7621813 10.7407318,34.8318187 11.823,33.467 C12.6011421,32.4804126 13.0166725,31.2564163 13,30 C13,29.4477153 12.5522847,29 12,29 C11.4477153,29 11,29.4477153 11,30 C11.0152279,30.85074 10.7230037,31.6784126 10.177,32.331 C8.63097736,34.3830632 8.63097736,37.2109368 10.177,39.263 C11.2599573,40.6283262 11.2599573,42.5596738 10.177,43.925 C8.63115327,45.978975 8.63115327,48.808025 10.177,50.862 C11.2599764,52.2299357 11.2599764,54.1630643 10.177,55.531 C9.39893008,56.518398 8.98343708,57.7429903 9,59 C9,59.5522847 9.44771525,60 10,60 C10.5522847,60 11,59.5522847 11,59 C10.9848571,58.1483648 11.2770279,57.3197784 11.823,56.666 C13.3691794,54.611395 13.3691794,51.781605 11.823,49.727 C10.7405051,48.3600178 10.7405051,46.4279822 11.823,45.061 C12.6011422,44.0740269 13.0166583,42.8497194 13,41.593 L13,41.593 Z M23,41.593 C23.0167682,40.3368739 22.6012147,39.1131622 21.823,38.127 C20.7407318,36.7621813 20.7407318,34.8318187 21.823,33.467 C22.6011421,32.4804126 23.0166725,31.2564163 23,30 C23,29.4477153 22.5522847,29 22,29 C21.4477153,29 21,29.4477153 21,30 C21.0152279,30.85074 20.7230037,31.6784126 20.177,32.331 C18.6309774,34.3830632 18.6309774,37.2109368 20.177,39.263 C21.2599573,40.6283262 21.2599573,42.5596738 20.177,43.925 C18.6311533,45.978975 18.6311533,48.808025 20.177,50.862 C21.2599764,52.2299357 21.2599764,54.1630643 20.177,55.531 C19.3989301,56.518398 18.9834371,57.7429903 19,59 C19,59.5522847 19.4477153,60 20,60 C20.5522847,60 21,59.5522847 21,59 C20.9848571,58.1483648 21.2770279,57.3197784 21.823,56.666 C23.3691794,54.611395 23.3691794,51.781605 21.823,49.727 C20.7405051,48.3600178 20.7405051,46.4279822 21.823,45.061 C22.6011422,44.0740269 23.0166583,42.8497194 23,41.593 L23,41.593 Z M33,41.593 C33.0167682,40.3368739 32.6012147,39.1131622 31.823,38.127 C30.7407318,36.7621813 30.7407318,34.8318187 31.823,33.467 C32.6011421,32.4804126 33.0166725,31.2564163 33,30 C33,29.4477153 32.5522847,29 32,29 C31.4477153,29 31,29.4477153 31,30 C31.0152279,30.85074 30.7230037,31.6784126 30.177,32.331 C28.6309774,34.3830632 28.6309774,37.2109368 30.177,39.263 C31.2599573,40.6283262 31.2599573,42.5596738 30.177,43.925 C28.6311533,45.978975 28.6311533,48.808025 30.177,50.862 C31.2599764,52.2299357 31.2599764,54.1630643 30.177,55.531 C29.3989301,56.518398 28.9834371,57.7429903 29,59 C29,59.5522847 29.4477153,60 30,60 C30.5522847,60 31,59.5522847 31,59 C30.9848571,58.1483648 31.2770279,57.3197784 31.823,56.666 C33.3691794,54.611395 33.3691794,51.781605 31.823,49.727 C30.7405051,48.3600178 30.7405051,46.4279822 31.823,45.061 C32.6011422,44.0740269 33.0166583,42.8497194 33,41.593 L33,41.593 Z" id="Shape"></path>
        </g>
    </g>
</svg>