<?xml version="1.0" encoding="UTF-8"?>
<svg width="60px" height="60px" viewBox="0 0 60 60" version="1.1" xmlns="http://www.w3.org/2000/svg" xmlns:xlink="http://www.w3.org/1999/xlink">
    <title>television-2081842</title>
    <g id="Page-1" stroke="none" strokeWidth="1" fill="none" fillRule="evenodd">
        <g id="television-2081842" transform="translate(0.000000, 0.000000)" fill="#181818" fillRule="nonzero">
            <path d="M57.0000015,17.813 L38.0000015,17.813 C37.9999752,16.0432671 37.4137856,14.3233792 36.3330031,12.922 L48.6780031,1.475 L47.3220031,0 L34.9220031,11.494 C32.0717439,9.23255063 28.047416,9.20367874 25.1650031,11.424 L15.7650031,0.094 L14.2320031,1.381 L23.7320031,12.833 C22.609349,14.2500492 21.998946,16.005134 22.0000015,17.813 L3.00000154,17.813 C1.3401997,17.8190629 -0.00166173192,19.1671864 1.54458899e-06,20.827 L1.54458899e-06,52.969 C-0.00166020168,54.6286503 1.3403611,55.976487 3.00000154,55.982 L3.00000154,56.987 C2.9983398,58.6466503 4.3403611,59.994487 6.00000154,60 L10.0000015,60 C11.6596451,59.994487 13.0016664,58.6466503 13.0000015,56.987 L13.0000015,55.982 L47.0000015,55.982 L47.0000015,56.987 C46.9983398,58.6466503 48.3403611,59.994487 50.0000015,60 L54.0000015,60 C55.6596451,59.994487 57.0016664,58.6466503 57.0000015,56.987 L57.0000015,55.982 C58.6596451,55.976487 60.0016664,54.6286503 60.0000015,52.969 L60.0000015,20.827 C60.0016679,19.1671864 58.6598065,17.8190629 57.0000015,17.813 Z M29.9999989,11.787 C33.3195164,11.7974764 36.0038802,14.4934724 35.9999989,17.813 L23.9999989,17.813 C23.996126,14.4934724 26.6804897,11.7974764 29.9999989,11.787 L29.9999989,11.787 Z M11.0000031,56.987 C11.0000031,57.5392847 10.5522878,57.987 10.0000031,57.987 L6.00000309,57.987 C5.44771834,57.987 5.00000309,57.5392847 5.00000309,56.987 L5.00000309,55.982 L11.0000031,55.982 L11.0000031,56.987 Z M55.0000031,56.987 C55.0000031,57.5392847 54.5522878,57.987 54.0000031,57.987 L50.0000031,57.987 C49.4477183,57.987 49.0000031,57.5392847 49.0000031,56.987 L49.0000031,55.982 L55.0000031,55.982 L55.0000031,56.987 Z M58.0000156,52.969 C58.0000156,53.5212847 57.5522878,53.969 57.0000031,53.969 L3.00000309,53.969 C2.44771834,53.969 1.99999057,53.5212847 1.99999057,52.969 L1.99999057,20.827 C1.99867267,20.5609183 2.10344188,20.3052779 2.29112266,20.1166588 C2.47880343,19.9280396 2.73391802,19.822 3.00000309,19.822 L57.0000031,19.822 C57.2660882,19.822 57.5212028,19.9280396 57.7088835,20.1166588 C57.8965643,20.3052779 58.0013335,20.5609183 58.0000156,20.827 L58.0000156,52.969 Z" id="Shape"></path>
            <path d="M43.0000031,21.831 L5.00000309,21.831 C4.44771834,21.831 4.00000309,22.2787153 4.00000309,22.831 L4.00000309,50.96 C4.00000309,51.5122847 4.44771834,51.96 5.00000309,51.96 L43.0000031,51.96 C43.5522878,51.96 44.0000031,51.5122847 44.0000031,50.96 L44.0000031,22.835 C44.0010667,22.5690911 43.8961796,22.3137084 43.7085279,22.125306 C43.5208761,21.9369036 43.2659141,21.831 43.0000031,21.831 Z M42.0000031,49.956 L6.00000309,49.956 L6.00000309,23.84 L42.0000031,23.84 L42.0000031,49.956 Z M53.0000031,21.8309673 C51.7796049,21.8253313 50.676238,22.5561721 50.205372,23.6820891 C49.7345061,24.8080062 49.9890873,26.1067498 50.8501807,26.9715747 C51.7112742,27.8363995 53.0089049,28.0965941 54.1368475,27.6306009 C55.26479,27.1646078 56.0003948,26.0644113 56.0000046,24.844 C56.0016664,23.1843497 54.6596451,21.836513 53.0000031,21.8309673 L53.0000031,21.8309673 Z M53.0000031,25.849 C52.4477183,25.849 52.0000031,25.4012847 52.0000031,24.849 C52.0000031,24.2967153 52.4477183,23.849 53.0000031,23.849 C53.5522878,23.849 54.0000031,24.2967153 54.0000031,24.849 C54.0000031,25.4012847 53.5522878,25.849 53.0000031,25.849 Z M53.0000031,29.8669718 C51.7801891,29.8617369 50.6775565,30.5924844 50.2071025,31.7179385 C49.7366485,32.8433926 49.9912093,34.141464 50.8518892,35.0058736 C51.7125691,35.8702831 53.0095278,36.1304543 54.1370055,35.6648711 C55.2644833,35.1992879 56.0000046,34.0998253 56.0000046,32.88 C56.0016664,31.2203497 54.6596451,29.872513 53.0000031,29.8669718 L53.0000031,29.8669718 Z M53.0000031,33.884 C52.4477183,33.884 52.0000031,33.4362847 52.0000031,32.884 C52.0000031,32.3317153 52.4477183,31.884 53.0000031,31.884 C53.5522878,31.884 54.0000031,32.3317153 54.0000031,32.884 C54.0000031,33.4362847 53.5522878,33.884 53.0000031,33.884 Z M53.0000031,37.8999673 C51.7796049,37.8943313 50.676238,38.6251721 50.205372,39.7510891 C49.7345061,40.8770062 49.9890873,42.1757498 50.8501807,43.0405747 C51.7112742,43.9053995 53.0089049,44.1655941 54.1368475,43.6996009 C55.26479,43.2336078 56.0003948,42.1334113 56.0000046,40.913 C56.0016664,39.2533497 54.6596451,37.905513 53.0000031,37.8999673 Z M53.0000031,41.9179999 C52.4483707,41.9179999 52.0009318,41.4712899 52.0000156,40.9196583 C51.9991022,40.3680267 52.4450571,39.919842 52.9966864,39.9179999 C53.5483157,39.9161691 53.9972449,40.3613745 54.0000031,40.913 C54.0018681,41.1794273 53.8973352,41.4355832 53.7095963,41.6246363 C53.5218574,41.8136893 53.2664369,41.92 53.0000031,41.92 L53.0000031,41.9179999 Z" id="Shape"></path>
            <ellipse id="Oval" cx="53.0000031" cy="48.951" rx="1" ry="1.004"></ellipse>
        </g>
    </g>
</svg>