<svg width="23px" height="28px" viewBox="0 0 23 28" version="1.1" xmlns="http://www.w3.org/2000/svg" xmlns:xlink="http://www.w3.org/1999/xlink">
    <g id="Page-1" stroke="none" stroke-width="1" fill="none" fill-rule="evenodd">
        <g id="WASHER" transform="translate(1.000000, 1.000000)" stroke="#181818">
            <path d="M20.672,24.915 C20.672,25.514 20.185,26 19.585,26 L1.22,26 C0.621,26 0.134,25.514 0.134,24.915 L0.134,1.086 C0.134,0.487 0.621,0 1.22,0 L19.585,0 C20.185,0 20.672,0.487 20.672,1.086 L20.672,24.915 L20.672,24.915 Z" id="Stroke-1"></path>
            <path d="M17.101,14.5177 L18.012,14.5177 C18.157,14.5177 18.273,14.6347 18.273,14.7787 L18.273,17.8857 C18.273,18.0297 18.157,18.1467 18.012,18.1467 L17.106,18.1467" id="Stroke-3"></path>
            <path d="M10.4033,23.2734 C14.2693,23.2734 17.4033,20.1654 17.4033,16.3324 C17.4033,12.4984 14.2693,9.3904 10.4033,9.3904 C6.5373,9.3904 3.4033,12.4984 3.4033,16.3324 C3.4033,20.1654 6.5373,23.2734 10.4033,23.2734 L10.4033,23.2734 Z" id="Stroke-5"></path>
            <path d="M10.4033,21.4259 C13.2383,21.4259 15.5363,19.1449 15.5363,16.3319 C15.5363,13.5189 13.2383,11.2379 10.4033,11.2379 C7.5683,11.2379 5.2703,13.5189 5.2703,16.3319 C5.2703,19.1449 7.5683,21.4259 10.4033,21.4259 L10.4033,21.4259 Z" id="Stroke-7"></path>
            <path d="M7.7194,16.2461 C7.7194,14.6511 9.0184,13.3591 10.6204,13.3591" id="Stroke-9"></path>
            <line x1="1.77635684e-15" y1="6.9865" x2="20.672" y2="6.9865" id="Stroke-11"></line>
            <polygon id="Stroke-13" points="1.8197 4.7855 7.3017 4.7855 7.3017 2.2195 1.8137 2.2195"></polygon>
            <path d="M17.3805,4.3755 C17.3805,4.1005 17.6055,3.8765 17.8805,3.8765 C18.1555,3.8765 18.3795,4.1005 18.3795,4.3755 C18.3795,4.6525 18.1555,4.8745 17.8805,4.8745 C17.6055,4.8745 17.3805,4.6525 17.3805,4.3755 L17.3805,4.3755 Z" id="Stroke-15"></path>
            <path d="M14.362,4.3755 C14.362,4.1005 14.586,3.8765 14.862,3.8765 C15.137,3.8765 15.361,4.1005 15.361,4.3755 C15.361,4.6525 15.137,4.8745 14.862,4.8745 C14.586,4.8745 14.362,4.6525 14.362,4.3755 L14.362,4.3755 Z" id="Stroke-17"></path>
        </g>
    </g>
</svg>