<?xml version="1.0" encoding="UTF-8"?>
<svg width="60px" height="58px" viewBox="0 0 60 58" version="1.1" xmlns="http://www.w3.org/2000/svg" xmlns:xlink="http://www.w3.org/1999/xlink">
    <title>WIRELESS_INTERNET</title>
    <g id="Page-1" stroke="none" strokeWidth="1" fill="none" fillRule="evenodd">
        <g id="WIRELESS_INTERNET" fill="#181818" fillRule="nonzero">
            <path d="M57,38 L54,38 L54,30 C53.9982589,29.1510198 53.634489,28.3430869 53,27.779 L53,3 C53,1.34314575 51.6568542,0 50,0 C48.3431458,0 47,1.34314575 47,3 L47,27.779 C46.365511,28.3430869 46.0017411,29.1510198 46,30 L46,38 L14,38 L14,30 C13.9982589,29.1510198 13.634489,28.3430869 13,27.779 L13,3 C13,1.34314575 11.6568542,0 10,0 C8.34314575,0 7,1.34314575 7,3 L7,27.779 C6.36551097,28.3430869 6.00174107,29.1510198 6,30 L6,38 L3,38 C1.34383121,38.0016537 0.00165368949,39.3438312 0,41 L0,51 C0.00165368949,52.6561688 1.34383121,53.9983463 3,54 L3,55 C3,56.6568542 4.34314575,58 6,58 L8,58 C9.65685425,58 11,56.6568542 11,55 L11,54 L49,54 L49,55 C49,56.6568542 50.3431458,58 52,58 L54,58 C55.6568542,58 57,56.6568542 57,55 L57,54 C58.6561688,53.9983463 59.9983463,52.6561688 60,51 L60,41 C59.9983463,39.3438312 58.6561688,38.0016537 57,38 Z M49,3 C49,2.44771525 49.4477153,2 50,2 C50.5522847,2 51,2.44771525 51,3 L51,27 L49,27 L49,3 Z M48,30 C48,29.4477153 48.4477153,29 49,29 L51,29 C51.5522847,29 52,29.4477153 52,30 L52,38 L48,38 L48,30 Z M51,40 L51,41 C51,41.5522847 50.5522847,42 50,42 L10,42 C9.44771525,42 9,41.5522847 9,41 L9,40 L51,40 Z M9,3 C9,2.44771525 9.44771525,2 10,2 C10.5522847,2 11,2.44771525 11,3 L11,27 L9,27 L9,3 Z M8,30 C8,29.4477153 8.44771525,29 9,29 L11,29 C11.5522847,29 12,29.4477153 12,30 L12,38 L8,38 L8,30 Z M9,55 C9,55.5522847 8.55228475,56 8,56 L6,56 C5.44771525,56 5,55.5522847 5,55 L5,54 L9,54 L9,55 Z M55,55 C55,55.5522847 54.5522847,56 54,56 L52,56 C51.4477153,56 51,55.5522847 51,55 L51,54 L55,54 L55,55 Z M58,51 C58,51.5520563 57.5520563,51.9994488 57,52 L3,52 C2.44794374,51.9994488 2,51.5520563 2,51 L2,41 C2,40.4479437 2.44794374,40.0005512 3,40 L7,40 L7,41 C7,42.6568542 8.34314575,44 10,44 L50,44 C51.6568542,44 53,42.6568542 53,41 L53,40 L57,40 C57.5520563,40.0005512 58,40.4479437 58,41 L58,51 Z M52.5,48 C52.5,48.8284271 51.8284271,49.5 51,49.5 C50.1715729,49.5 49.5,48.8284271 49.5,48 C49.5,47.1715729 50.1715729,46.5 51,46.5 C51.8284271,46.5 52.5,47.1715729 52.5,48 L52.5,48 Z M47.5,48 C47.5,48.8284271 46.8284271,49.5 46,49.5 C45.1715729,49.5 44.5,48.8284271 44.5,48 C44.5,47.1715729 45.1715729,46.5 46,46.5 C46.8284271,46.5 47.5,47.1715729 47.5,48 Z M8.5,48 C8.5,48.8284271 7.82842712,49.5 7,49.5 C6.17157288,49.5 5.5,48.8284271 5.5,48 C5.5,47.1715729 6.17157288,46.5 7,46.5 C7.82842712,46.5 8.5,47.1715729 8.5,48 Z M41,49 L12,49 C11.4477153,49 11,48.5522847 11,48 C11,47.4477153 11.4477153,47 12,47 L41,47 C41.5522847,47 42,47.4477153 42,48 C42,48.5522847 41.5522847,49 41,49 Z M26.75,30.945 C26.75,32.7399254 28.2050746,34.195 30,34.195 C31.7949254,34.195 33.25,32.7399254 33.25,30.945 C33.25,29.1500746 31.7949254,27.695 30,27.695 C28.2059883,27.6972039 26.7522039,29.1509883 26.75,30.945 L26.75,30.945 Z M31.25,30.945 C31.25,31.6353559 30.6903559,32.195 30,32.195 C29.3096441,32.195 28.75,31.6353559 28.75,30.945 C28.75,30.2546441 29.3096441,29.695 30,29.695 C30.6901274,29.6955514 31.2494486,30.2548726 31.25,30.945 L31.25,30.945 Z M17.31,18.569 C24.4500086,11.7493696 35.7300738,11.8826144 42.707,18.869 C43.638,19.771 42.197,21.214 41.293,20.282 C35.0832154,14.0640831 25.0433196,13.9468185 18.69,20.018 C18.2898697,20.3990765 17.6565765,20.3836303 17.2755,19.9835 C16.8944235,19.5833697 16.9098697,18.9500765 17.31,18.569 Z M37.864,23.755 C33.5381298,19.424186 26.5448969,19.3424613 22.119,23.571 C21.7191458,23.9520765 21.0860765,23.9368541 20.705,23.537 C20.3239236,23.1371458 20.3391459,22.5040765 20.739,22.123 C25.951173,17.1448116 34.1853225,17.2416317 39.279,22.341 C40.209,23.245 38.769,24.687 37.864,23.755 L37.864,23.755 Z M34.436,27.228 C31.9936383,24.7820911 28.0443753,24.7363348 25.546,27.125 C25.1458697,27.5060765 24.5125765,27.4906303 24.1315,27.0905 C23.7504235,26.6903697 23.7658697,26.0570765 24.166,25.676 C27.4507945,22.5386127 32.640223,22.5999051 35.85,25.814 C36.781,26.717 35.34,28.16 34.436,27.228 L34.436,27.228 Z" id="Shape"></path>
        </g>
    </g>
</svg>